<?xml version="1.0" encoding="UTF-8"?><svg xmlns="http://www.w3.org/2000/svg" viewBox="0 0 420 524"><defs><style>.cls-1{fill:#ffdd06;}.cls-2{fill-rule:evenodd;stroke:#232d56;}.cls-2,.cls-3{fill:#232d56;}.cls-2,.cls-4{stroke-miterlimit:10;}.cls-5{fill:#4b4a4a;}.cls-6{fill:#307abf;}.cls-4{fill:#fff;stroke:#ddd;stroke-width:.5px;}.cls-7{fill:#222d56;}</style></defs><g id="Capa_2"><rect class="cls-4" x="20.46" y="10.35" width="379.08" height="493.03" rx="3" ry="3"/></g><g id="Capa_3"><g><path class="cls-7" d="M78.95,69.1c1.06,.22,1.86,.69,2.41,1.39,.55,.7,.83,1.57,.83,2.59,0,1.34-.4,2.4-1.2,3.18-.8,.78-1.99,1.16-3.58,1.16h-8.59v-1.42h1.66v-13.49h-1.66v-1.42h8.11c1.58,0,2.78,.38,3.58,1.13s1.2,1.75,1.2,3c0,.96-.24,1.77-.71,2.44-.47,.66-1.16,1.12-2.05,1.38v.05Zm.89-3.65c0-.86-.26-1.57-.79-2.11s-1.3-.82-2.3-.82h-4.49v5.88h4.49c1.01,0,1.78-.25,2.3-.76,.53-.5,.79-1.24,.79-2.2Zm-7.58,4.37v6.19h4.9c1.01,0,1.79-.26,2.34-.79,.55-.53,.83-1.3,.83-2.3,0-.94-.29-1.7-.88-2.26-.58-.56-1.45-.84-2.6-.84h-4.58Z"/><path class="cls-7" d="M83.56,65.43h3.34v10.58h1.66v1.42h-4.99v-1.42h1.66v-9.17h-1.66v-1.42Zm3.34-4.8v2.86h-1.68v-2.86h1.68Z"/><path class="cls-7" d="M91.6,71.64c.02,.67,.1,1.29,.26,1.86,.16,.57,.41,1.06,.76,1.46,.34,.41,.79,.72,1.33,.95,.54,.22,1.21,.34,1.99,.34,.61,0,1.22-.03,1.82-.08,.61-.06,1.25-.19,1.92-.4l.22,1.37c-.72,.21-1.4,.35-2.05,.42-.65,.07-1.36,.11-2.15,.11-1.09,0-2-.15-2.75-.46s-1.35-.73-1.81-1.28c-.46-.55-.8-1.21-1.01-1.97-.21-.76-.31-1.6-.31-2.53s.1-1.77,.3-2.53c.2-.76,.53-1.42,.98-1.97s1.05-.98,1.78-1.28c.73-.3,1.62-.46,2.68-.46,1.25,0,2.21,.22,2.88,.66,.67,.44,1.15,.99,1.43,1.64,.28,.66,.42,1.36,.41,2.1,0,.74-.08,1.43-.2,2.05h-8.47Zm3.86-5.14c-.69,0-1.27,.1-1.74,.31-.47,.21-.86,.5-1.15,.86-.3,.37-.52,.8-.67,1.28-.15,.49-.25,1.01-.3,1.57h6.84c.1-.46,.13-.94,.11-1.42-.02-.48-.14-.91-.36-1.3-.22-.38-.54-.7-.98-.95-.44-.25-1.02-.37-1.74-.37Z"/><path class="cls-7" d="M110.05,76.01h1.56v-6.53c0-.83-.19-1.52-.58-2.06-.38-.54-1.07-.82-2.06-.82-.4,0-.78,.06-1.15,.17s-.72,.25-1.04,.41c-.33,.16-.63,.33-.9,.52-.27,.18-.5,.36-.7,.52v7.8h1.56v1.42h-4.9v-1.42h1.66v-9.17h-1.66v-1.42h3.34v1.75h.05c.61-.59,1.28-1.07,2.03-1.44,.74-.37,1.56-.55,2.44-.55,1.2,0,2.1,.34,2.7,1.01,.6,.67,.9,1.65,.9,2.93v6.89h1.63v1.42h-4.87v-1.42Z"/><path class="cls-7" d="M123.23,65.43h4.68v1.42h-1.1l-4.3,10.7h-1.99l-4.3-10.7h-1.15v-1.42h4.94v1.42h-1.92l3.53,8.93h.05l3.46-8.93h-1.9v-1.42Z"/><path class="cls-7" d="M130.5,71.64c.02,.67,.1,1.29,.26,1.86,.16,.57,.41,1.06,.76,1.46,.34,.41,.79,.72,1.33,.95,.54,.22,1.21,.34,1.99,.34,.61,0,1.22-.03,1.82-.08,.61-.06,1.25-.19,1.92-.4l.22,1.37c-.72,.21-1.4,.35-2.05,.42-.65,.07-1.36,.11-2.15,.11-1.09,0-2-.15-2.75-.46s-1.35-.73-1.81-1.28c-.46-.55-.8-1.21-1.01-1.97-.21-.76-.31-1.6-.31-2.53s.1-1.77,.3-2.53c.2-.76,.53-1.42,.98-1.97s1.05-.98,1.78-1.28c.73-.3,1.62-.46,2.68-.46,1.25,0,2.21,.22,2.88,.66,.67,.44,1.15,.99,1.43,1.64,.28,.66,.42,1.36,.41,2.1,0,.74-.08,1.43-.2,2.05h-8.47Zm3.86-5.14c-.69,0-1.27,.1-1.74,.31-.47,.21-.86,.5-1.15,.86-.3,.37-.52,.8-.67,1.28-.15,.49-.25,1.01-.3,1.57h6.84c.1-.46,.13-.94,.11-1.42-.02-.48-.14-.91-.36-1.3-.22-.38-.54-.7-.98-.95-.44-.25-1.02-.37-1.74-.37Z"/><path class="cls-7" d="M148.96,76.01h1.56v-6.53c0-.83-.19-1.52-.58-2.06-.38-.54-1.07-.82-2.06-.82-.4,0-.78,.06-1.15,.17s-.72,.25-1.04,.41c-.33,.16-.63,.33-.9,.52-.27,.18-.5,.36-.7,.52v7.8h1.56v1.42h-4.9v-1.42h1.66v-9.17h-1.66v-1.42h3.34v1.75h.05c.61-.59,1.28-1.07,2.03-1.44,.74-.37,1.56-.55,2.44-.55,1.2,0,2.1,.34,2.7,1.01,.6,.67,.9,1.65,.9,2.93v6.89h1.63v1.42h-4.87v-1.42Z"/><path class="cls-7" d="M154.91,65.43h3.34v10.58h1.66v1.42h-4.99v-1.42h1.66v-9.17h-1.66v-1.42Zm3.34-4.8v2.86h-1.68v-2.86h1.68Z"/><path class="cls-7" d="M167.87,60.63h3.34v15.38h1.63v1.42h-3.31v-1.2h-.05c-.46,.42-1.03,.76-1.69,1.03-.66,.27-1.38,.41-2.15,.41-.85,0-1.56-.16-2.12-.48-.57-.32-1.02-.76-1.37-1.32-.34-.56-.59-1.22-.74-1.98-.15-.76-.23-1.58-.23-2.46s.08-1.7,.24-2.46c.16-.76,.42-1.42,.78-1.98,.36-.56,.83-1,1.4-1.32,.58-.32,1.29-.48,2.14-.48,.72,0,1.41,.13,2.06,.38,.66,.26,1.22,.59,1.68,1.01h.05v-4.54h-1.66v-1.42Zm-4.92,10.8c0,.66,.05,1.27,.16,1.85,.1,.58,.28,1.09,.54,1.54,.26,.45,.6,.8,1.02,1.06,.42,.26,.96,.38,1.62,.38,.37,0,.72-.04,1.04-.12,.33-.08,.63-.18,.91-.29,.28-.11,.53-.24,.74-.37,.22-.14,.4-.26,.54-.37v-7.34c-.14-.11-.32-.24-.54-.37-.22-.14-.46-.26-.74-.37-.28-.11-.58-.21-.91-.29-.33-.08-.68-.12-1.04-.12-.66,0-1.2,.13-1.62,.4-.42,.26-.76,.62-1.02,1.06-.26,.44-.44,.95-.54,1.54s-.16,1.2-.16,1.84Z"/><path class="cls-7" d="M179.51,77.67c-.98,0-1.8-.15-2.48-.46-.68-.3-1.24-.73-1.67-1.28-.43-.55-.74-1.21-.94-1.97-.19-.76-.29-1.6-.29-2.53s.1-1.77,.29-2.53c.19-.76,.5-1.42,.94-1.97,.43-.55,.99-.98,1.67-1.28,.68-.3,1.51-.46,2.48-.46s1.8,.15,2.48,.46c.68,.3,1.24,.73,1.67,1.28s.74,1.21,.94,1.97c.19,.76,.29,1.6,.29,2.53s-.1,1.77-.29,2.53-.5,1.42-.94,1.97-.99,.98-1.67,1.28c-.68,.3-1.51,.46-2.48,.46Zm0-11.06c-.7,0-1.28,.13-1.74,.38s-.82,.6-1.1,1.03c-.28,.43-.48,.94-.59,1.52-.11,.58-.17,1.21-.17,1.88s.06,1.3,.17,1.88c.11,.58,.31,1.09,.59,1.52,.28,.43,.65,.78,1.1,1.03,.46,.26,1.04,.38,1.74,.38s1.26-.13,1.73-.38c.46-.26,.84-.6,1.12-1.03,.28-.43,.48-.94,.59-1.52,.11-.58,.17-1.21,.17-1.88s-.06-1.3-.17-1.88c-.11-.58-.31-1.09-.59-1.52-.28-.43-.65-.78-1.12-1.03-.46-.26-1.04-.38-1.73-.38Z"/><path class="cls-7" d="M192.33,68.45v-2.78c.8-.16,1.58-.28,2.35-.36,.77-.08,1.47-.12,2.11-.12,.69,0,1.3,.06,1.84,.18s.99,.33,1.36,.64,.64,.71,.83,1.21,.28,1.14,.28,1.91v6.89h1.63v1.42h-3.31v-1.2h-.05c-.56,.46-1.12,.81-1.67,1.03-.55,.22-1.18,.35-1.88,.38-.56,.03-1.09,0-1.6-.11-.5-.1-.96-.3-1.36-.58s-.72-.65-.95-1.12c-.23-.46-.35-1.04-.35-1.73s.14-1.28,.43-1.74c.29-.46,.66-.82,1.13-1.08,.46-.26,1-.45,1.61-.55,.61-.1,1.22-.16,1.85-.16h2.83v-1.37c0-.88-.22-1.54-.67-1.97-.45-.43-1.22-.65-2.3-.65-.32,0-.7,.02-1.13,.05s-.95,.1-1.56,.22v1.58h-1.42Zm7.08,3.19h-2.59c-1.33,0-2.26,.21-2.8,.62-.54,.42-.8,1.02-.8,1.8,0,.69,.25,1.24,.74,1.66,.5,.42,1.2,.62,2.11,.62,.8,0,1.48-.13,2.04-.4,.56-.26,.99-.52,1.3-.76v-3.55Z"/><path class="cls-7" d="M210.01,66.65h-1.9v-1.1l1.9-.12,.22-3.36h1.46v3.36h3.55v1.22h-3.55v6.98c0,.88,.15,1.54,.46,1.99s.88,.67,1.73,.67c.19,0,.39,0,.6-.02s.45-.05,.72-.1l.17,1.32c-.32,.05-.67,.09-1.04,.12-.38,.03-.7,.05-.97,.05-1.17,0-2.02-.28-2.54-.83-.53-.55-.79-1.53-.79-2.94v-7.25Z"/><path class="cls-7" d="M217.12,65.43h3.34v7.94c0,.42,.04,.8,.13,1.15s.24,.66,.44,.91c.21,.26,.48,.46,.82,.6s.75,.22,1.25,.22c.4,0,.78-.06,1.15-.17,.37-.11,.72-.25,1.04-.41,.33-.16,.63-.33,.9-.52,.27-.18,.5-.36,.7-.52v-7.8h-2.11v-1.42h3.79v10.58h1.63v1.42h-3.31v-1.73h-.05c-.61,.58-1.28,1.05-2.03,1.42s-1.56,.55-2.44,.55c-1.2,0-2.1-.33-2.7-1s-.9-1.64-.9-2.94v-6.89h-1.66v-1.42Z"/><path class="cls-7" d="M245.72,69.1c1.06,.22,1.86,.69,2.41,1.39,.55,.7,.83,1.57,.83,2.59,0,1.34-.4,2.4-1.2,3.18-.8,.78-1.99,1.16-3.58,1.16h-8.59v-1.42h1.66v-13.49h-1.66v-1.42h8.11c1.58,0,2.78,.38,3.58,1.13s1.2,1.75,1.2,3c0,.96-.24,1.77-.71,2.44s-1.16,1.12-2.05,1.38v.05Zm.89-3.65c0-.86-.26-1.57-.79-2.11s-1.3-.82-2.3-.82h-4.49v5.88h4.49c1.01,0,1.78-.25,2.3-.76,.53-.5,.79-1.24,.79-2.2Zm-7.58,4.37v6.19h4.9c1.01,0,1.79-.26,2.34-.79,.55-.53,.83-1.3,.83-2.3,0-.94-.29-1.7-.88-2.26-.58-.56-1.45-.84-2.6-.84h-4.58Z"/><path class="cls-7" d="M251.53,68.45v-2.78c.8-.16,1.58-.28,2.35-.36,.77-.08,1.47-.12,2.11-.12,.69,0,1.3,.06,1.84,.18,.54,.12,.99,.33,1.36,.64s.64,.71,.83,1.21,.28,1.14,.28,1.91v6.89h1.63v1.42h-3.31v-1.2h-.05c-.56,.46-1.12,.81-1.67,1.03-.55,.22-1.18,.35-1.88,.38-.56,.03-1.09,0-1.6-.11s-.96-.3-1.36-.58-.72-.65-.95-1.12c-.23-.46-.35-1.04-.35-1.73s.14-1.28,.43-1.74c.29-.46,.66-.82,1.13-1.08,.46-.26,1-.45,1.61-.55,.61-.1,1.22-.16,1.85-.16h2.83v-1.37c0-.88-.22-1.54-.67-1.97-.45-.43-1.22-.65-2.3-.65-.32,0-.7,.02-1.13,.05s-.95,.1-1.56,.22v1.58h-1.42Zm7.08,3.19h-2.59c-1.33,0-2.26,.21-2.8,.62-.54,.42-.8,1.02-.8,1.8,0,.69,.25,1.24,.74,1.66,.5,.42,1.2,.62,2.11,.62,.8,0,1.48-.13,2.04-.4,.56-.26,.99-.52,1.3-.76v-3.55Z"/><path class="cls-7" d="M271.21,76.01h1.56v-6.53c0-.83-.19-1.52-.58-2.06s-1.07-.82-2.06-.82c-.4,0-.78,.06-1.15,.17s-.72,.25-1.04,.41c-.33,.16-.63,.33-.9,.52-.27,.18-.5,.36-.7,.52v7.8h1.56v1.42h-4.9v-1.42h1.66v-9.17h-1.66v-1.42h3.34v1.75h.05c.61-.59,1.28-1.07,2.03-1.44,.74-.37,1.56-.55,2.44-.55,1.2,0,2.1,.34,2.7,1.01,.6,.67,.9,1.65,.9,2.93v6.89h1.63v1.42h-4.87v-1.42Z"/><path class="cls-7" d="M285.73,68.45v-1.58c-.61-.13-1.13-.2-1.56-.23-.43-.02-.78-.04-1.06-.04-.72,0-1.33,.12-1.82,.36-.5,.24-.9,.58-1.22,1.01-.32,.43-.55,.94-.7,1.54-.14,.59-.22,1.23-.22,1.92s.07,1.33,.22,1.92c.14,.59,.38,1.1,.7,1.54,.32,.43,.73,.77,1.22,1.01,.5,.24,1.1,.36,1.82,.36,.42,0,.9-.02,1.45-.06s1.3-.18,2.24-.42l.31,1.37c-.72,.18-1.38,.31-1.98,.4-.6,.09-1.28,.13-2.03,.13-1.06,0-1.95-.15-2.69-.46-.74-.3-1.33-.73-1.78-1.28-.45-.55-.77-1.21-.97-1.97-.2-.76-.3-1.6-.3-2.53s.1-1.77,.3-2.53c.2-.76,.52-1.42,.97-1.97,.45-.55,1.04-.98,1.78-1.28,.74-.3,1.63-.46,2.69-.46,.75,0,1.43,.04,2.03,.13,.6,.09,1.26,.22,1.98,.4v2.74h-1.39Z"/><path class="cls-7" d="M289.62,68.45v-2.78c.8-.16,1.58-.28,2.35-.36,.77-.08,1.47-.12,2.11-.12,.69,0,1.3,.06,1.84,.18,.54,.12,.99,.33,1.36,.64s.64,.71,.83,1.21,.28,1.14,.28,1.91v6.89h1.63v1.42h-3.31v-1.2h-.05c-.56,.46-1.12,.81-1.67,1.03-.55,.22-1.18,.35-1.88,.38-.56,.03-1.09,0-1.6-.11s-.96-.3-1.36-.58-.72-.65-.95-1.12c-.23-.46-.35-1.04-.35-1.73s.14-1.28,.43-1.74c.29-.46,.66-.82,1.13-1.08,.46-.26,1-.45,1.61-.55,.61-.1,1.22-.16,1.85-.16h2.83v-1.37c0-.88-.22-1.54-.67-1.97-.45-.43-1.22-.65-2.3-.65-.32,0-.7,.02-1.13,.05s-.95,.1-1.56,.22v1.58h-1.42Zm7.08,3.19h-2.59c-1.33,0-2.26,.21-2.8,.62-.54,.42-.8,1.02-.8,1.8,0,.69,.25,1.24,.74,1.66,.5,.42,1.2,.62,2.11,.62,.8,0,1.48-.13,2.04-.4,.56-.26,.99-.52,1.3-.76v-3.55Z"/><path class="cls-7" d="M310.98,61.11v1.42h-2.35l3.43,12.79h.02l3.74-14.21h1.92l3.82,14.21h.02l3.36-12.79h-2.38v-1.42h5.28v1.42h-1.18l-4.06,15.02h-2.38l-3.58-13.25h-.05l-3.48,13.25h-2.4l-4.13-15.02h-1.2v-1.42h5.57Z"/><path class="cls-7" d="M329.48,71.64c.02,.67,.1,1.29,.26,1.86s.41,1.06,.76,1.46c.34,.41,.79,.72,1.33,.95,.54,.22,1.21,.34,1.99,.34,.61,0,1.22-.03,1.82-.08,.61-.06,1.25-.19,1.92-.4l.22,1.37c-.72,.21-1.4,.35-2.05,.42-.65,.07-1.36,.11-2.15,.11-1.09,0-2-.15-2.75-.46-.74-.3-1.35-.73-1.81-1.28s-.8-1.21-1.01-1.97-.31-1.6-.31-2.53,.1-1.77,.3-2.53c.2-.76,.53-1.42,.98-1.97s1.05-.98,1.78-1.28c.73-.3,1.62-.46,2.68-.46,1.25,0,2.21,.22,2.88,.66,.67,.44,1.15,.99,1.43,1.64,.28,.66,.42,1.36,.41,2.1s-.08,1.43-.2,2.05h-8.47Zm3.86-5.14c-.69,0-1.27,.1-1.74,.31s-.86,.5-1.15,.86c-.3,.37-.52,.8-.67,1.28-.15,.49-.25,1.01-.3,1.57h6.84c.1-.46,.13-.94,.11-1.42-.02-.48-.14-.91-.36-1.3-.22-.38-.54-.7-.98-.95-.44-.25-1.02-.37-1.74-.37Z"/><path class="cls-7" d="M339.49,60.63h3.34v6h.05c.46-.42,1.03-.76,1.69-1.03,.66-.27,1.37-.41,2.12-.41,.83,0,1.54,.16,2.11,.48,.58,.32,1.04,.76,1.39,1.32,.35,.56,.6,1.22,.76,1.98,.15,.76,.23,1.58,.23,2.46s-.08,1.7-.24,2.46c-.16,.76-.42,1.42-.78,1.98-.36,.56-.83,1-1.42,1.32-.58,.32-1.29,.48-2.12,.48-.74,0-1.44-.13-2.11-.38s-1.25-.59-1.73-1.01h-.05l-.29,1.15h-2.95v-1.42h1.66v-13.97h-1.66v-1.42Zm9.91,10.8c0-.64-.05-1.25-.16-1.84-.1-.58-.28-1.1-.54-1.54-.26-.44-.6-.79-1.03-1.06-.43-.26-.97-.4-1.61-.4-.37,0-.72,.04-1.04,.12-.33,.08-.63,.18-.91,.29-.28,.11-.53,.24-.74,.37-.22,.14-.4,.26-.54,.37v7.34c.14,.11,.32,.24,.54,.37,.22,.14,.46,.26,.74,.37,.28,.11,.58,.21,.91,.29s.68,.12,1.04,.12c.64,0,1.18-.13,1.61-.38,.43-.26,.78-.61,1.03-1.06,.26-.45,.44-.96,.54-1.54,.1-.58,.16-1.19,.16-1.85Z"/></g><g><path class="cls-5" d="M76.01,109.77v.64h-.74v4.14c0,.95-.23,1.64-.69,2.07-.46,.43-1.13,.65-2.02,.65s-1.57-.22-2.02-.65c-.46-.43-.69-1.12-.69-2.07v-4.14h-.75v-.64h2.31v.64h-.75v4.14c0,.21,.02,.44,.05,.67s.11,.46,.24,.67c.13,.21,.32,.38,.58,.52,.26,.14,.61,.21,1.07,.21,.43,0,.77-.07,1.02-.21,.25-.14,.44-.31,.57-.52,.13-.21,.21-.44,.24-.67s.05-.46,.05-.67v-4.14h-.75v-.64h2.29Z"/><path class="cls-5" d="M79.82,113.1v-.72c-.3-.07-.59-.11-.84-.13-.26-.01-.46-.02-.59-.02-.28,0-.51,.03-.67,.1-.17,.07-.29,.15-.37,.24-.08,.09-.13,.18-.15,.28-.02,.09-.03,.16-.03,.21,0,.1,.02,.2,.05,.29,.03,.09,.1,.18,.19,.26,.09,.08,.23,.16,.4,.23,.17,.07,.39,.14,.67,.2,.3,.07,.57,.14,.83,.21s.48,.18,.66,.3c.18,.12,.33,.27,.44,.45,.1,.18,.16,.4,.16,.66,0,.52-.17,.92-.5,1.2-.33,.28-.81,.41-1.45,.41-.41,0-.81-.02-1.2-.06-.39-.04-.75-.1-1.07-.18v-1.24h.64v.72c.32,.07,.62,.11,.9,.13,.28,.01,.5,.02,.64,.02,.29,0,.52-.04,.69-.12,.17-.08,.3-.17,.39-.27,.09-.1,.14-.2,.16-.31,.02-.1,.03-.19,.03-.24,0-.1-.02-.2-.05-.29s-.1-.18-.21-.26c-.1-.08-.24-.15-.42-.22s-.41-.13-.69-.19c-.28-.05-.54-.11-.78-.19-.25-.08-.46-.18-.65-.3-.18-.13-.33-.28-.44-.47-.1-.19-.16-.42-.16-.7,0-.49,.17-.85,.5-1.1s.82-.37,1.45-.37c.41,0,.79,.02,1.13,.06,.34,.04,.67,.1,1,.18v1.24h-.64Z"/><path class="cls-5" d="M81.29,111.73h1.51v3.6c0,.19,.02,.36,.06,.52,.04,.16,.11,.3,.2,.41,.09,.12,.22,.21,.37,.27,.15,.07,.34,.1,.57,.1,.18,0,.35-.02,.52-.08,.17-.05,.32-.11,.47-.19,.15-.07,.28-.15,.41-.23,.12-.08,.23-.16,.32-.23v-3.54h-.96v-.64h1.72v4.8h.74v.64h-1.5v-.78h-.02c-.28,.26-.58,.48-.92,.64-.34,.17-.71,.25-1.1,.25-.54,0-.95-.15-1.22-.45-.27-.3-.41-.75-.41-1.33v-3.12h-.75v-.64Z"/><path class="cls-5" d="M88.22,113.1v-1.26c.36-.07,.72-.13,1.07-.16s.67-.05,.96-.05c.31,0,.59,.03,.83,.08,.24,.05,.45,.15,.61,.29,.17,.14,.29,.32,.38,.55,.08,.23,.12,.52,.12,.86v3.12h.74v.64h-1.5v-.54h-.02c-.25,.21-.51,.37-.76,.47-.25,.1-.53,.16-.85,.17-.25,.01-.5,0-.72-.05-.23-.05-.43-.13-.61-.26-.18-.13-.32-.3-.43-.51s-.16-.47-.16-.78,.07-.58,.2-.79,.3-.37,.51-.49c.21-.12,.45-.2,.73-.25,.28-.05,.55-.07,.84-.07h1.28v-.62c0-.4-.1-.7-.3-.89s-.55-.29-1.04-.29c-.15,0-.32,0-.51,.02-.2,.01-.43,.05-.71,.1v.72h-.64Zm3.21,1.45h-1.17c-.6,0-1.02,.09-1.27,.28-.24,.19-.36,.46-.36,.82,0,.31,.11,.56,.34,.75,.22,.19,.54,.28,.96,.28,.36,0,.67-.06,.92-.18s.45-.23,.59-.34v-1.61Z"/><path class="cls-5" d="M93.42,111.73h1.51v.87h.02c.12-.12,.26-.24,.42-.36,.16-.12,.32-.22,.51-.32s.37-.17,.58-.22c.2-.05,.41-.08,.63-.08v.72c-.22,0-.43,.02-.64,.07-.21,.05-.41,.11-.6,.18-.19,.07-.36,.15-.52,.24-.16,.09-.29,.17-.4,.24v3.46h.88v.64h-2.39v-.64h.75v-4.16h-.75v-.64Z"/><path class="cls-5" d="M97.77,111.73h1.51v4.8h.75v.64h-2.26v-.64h.75v-4.16h-.75v-.64Zm1.51-2.18v1.29h-.76v-1.29h.76Z"/><path class="cls-5" d="M103.04,117.28c-.44,0-.82-.07-1.13-.21-.31-.14-.56-.33-.76-.58-.2-.25-.34-.55-.42-.89-.09-.34-.13-.73-.13-1.15s.04-.8,.13-1.15c.09-.34,.23-.64,.42-.89,.2-.25,.45-.44,.76-.58s.68-.21,1.13-.21,.82,.07,1.13,.21,.56,.33,.76,.58c.2,.25,.34,.55,.42,.89,.09,.34,.13,.73,.13,1.15s-.04,.8-.13,1.15c-.09,.34-.23,.64-.42,.89-.2,.25-.45,.44-.76,.58-.31,.14-.68,.21-1.13,.21Zm0-5.01c-.32,0-.58,.06-.79,.17-.21,.12-.37,.27-.5,.47s-.22,.43-.27,.69c-.05,.27-.08,.55-.08,.85s.03,.59,.08,.85,.14,.49,.27,.69,.29,.35,.5,.47c.21,.12,.47,.17,.79,.17s.57-.06,.78-.17c.21-.12,.38-.27,.51-.47,.13-.2,.22-.43,.27-.69s.08-.55,.08-.85-.03-.59-.08-.85c-.05-.26-.14-.49-.27-.69-.13-.2-.3-.35-.51-.47-.21-.12-.47-.17-.78-.17Z"/></g><g><path class="cls-6" d="M257.8,188.41c-.28,.11-.58,.21-.9,.27-.32,.07-.65,.1-.98,.1-.38,0-.69-.05-.94-.16-.25-.11-.44-.24-.58-.41-.14-.16-.24-.35-.29-.55-.05-.2-.08-.4-.08-.6,0-.3,.05-.55,.14-.76,.09-.21,.21-.38,.35-.53,.14-.15,.3-.27,.46-.38,.16-.11,.32-.22,.46-.33,.14-.11,.26-.22,.36-.34,.09-.12,.14-.27,.14-.45v-.3h.63v.3c0,.23-.04,.43-.13,.6-.09,.16-.2,.31-.33,.43-.13,.12-.28,.24-.44,.35-.16,.11-.31,.22-.44,.35-.13,.12-.25,.26-.33,.42s-.13,.35-.13,.58c0,.26,.05,.46,.14,.61s.21,.26,.36,.33c.14,.07,.29,.12,.44,.14s.29,.03,.4,.03c.13,0,.29-.02,.48-.06,.19-.04,.41-.1,.65-.19v-.77h.59v1.29Zm-1.9-5.29v-1.23h.7v1.23h-.7Z"/><path class="cls-6" d="M261.76,186.99c-.57,0-1.04-.1-1.41-.29-.37-.19-.66-.45-.87-.77-.21-.32-.36-.7-.44-1.13s-.12-.89-.12-1.37,.04-.92,.12-1.33c.08-.42,.23-.78,.44-1.09,.21-.31,.5-.56,.87-.75,.37-.18,.84-.27,1.41-.27s1.04,.09,1.41,.27c.37,.18,.66,.43,.87,.75,.21,.31,.36,.68,.44,1.09,.08,.42,.12,.86,.12,1.33s-.04,.94-.12,1.37c-.08,.43-.23,.81-.44,1.13-.21,.32-.5,.58-.87,.77-.37,.19-.84,.29-1.41,.29Zm0-6.41c-.44,0-.79,.08-1.06,.23-.27,.16-.48,.37-.62,.63-.15,.26-.25,.57-.29,.92-.05,.35-.08,.71-.08,1.08s.02,.74,.08,1.1c.05,.36,.15,.67,.29,.95,.15,.28,.35,.5,.62,.66,.27,.17,.62,.25,1.06,.25s.79-.08,1.07-.25c.27-.17,.48-.39,.62-.66,.15-.28,.25-.59,.29-.95,.05-.36,.08-.72,.08-1.1s-.03-.73-.08-1.08-.15-.65-.29-.92c-.15-.26-.36-.47-.62-.63-.27-.16-.62-.23-1.07-.23Z"/><path class="cls-6" d="M265.13,179.89h1.39v6.41h.69v.59h-2.08v-.59h.69v-5.82h-.69v-.59Z"/><path class="cls-6" d="M270.65,181.89h1.95v.59h-.46l-1.79,4.46h-.83l-1.79-4.46h-.48v-.59h2.06v.59h-.8l1.47,3.72h.02l1.44-3.72h-.79v-.59Z"/><path class="cls-6" d="M273.04,181.89h1.39v4.41h.69v.59h-2.08v-.59h.69v-3.82h-.69v-.59Zm1.39-2v1.19h-.7v-1.19h.7Z"/><path class="cls-6" d="M278.44,179.89h1.39v6.41h.68v.59h-1.38v-.5h-.02c-.19,.17-.43,.32-.71,.43-.28,.11-.58,.17-.9,.17-.35,0-.65-.07-.88-.2-.24-.13-.43-.32-.57-.55s-.25-.51-.31-.83c-.06-.32-.1-.66-.1-1.02s.03-.71,.1-1.02c.07-.32,.17-.59,.33-.83,.15-.23,.34-.42,.58-.55,.24-.13,.54-.2,.89-.2,.3,0,.59,.05,.86,.16s.51,.25,.7,.42h.02v-1.89h-.69v-.59Zm-2.05,4.5c0,.27,.02,.53,.07,.77,.04,.24,.12,.45,.22,.64s.25,.33,.42,.44,.4,.16,.68,.16c.15,0,.3-.02,.43-.05,.14-.03,.26-.07,.38-.12,.12-.05,.22-.1,.31-.15,.09-.06,.17-.11,.22-.16v-3.06c-.06-.05-.13-.1-.22-.16-.09-.06-.19-.11-.31-.15-.12-.05-.24-.09-.38-.12s-.28-.05-.43-.05c-.27,0-.5,.05-.68,.16-.18,.11-.32,.26-.42,.44-.11,.18-.18,.4-.22,.64-.04,.24-.07,.5-.07,.77Z"/><path class="cls-6" d="M281.43,183.15v-1.16c.33-.07,.66-.12,.98-.15,.32-.03,.61-.05,.88-.05,.29,0,.54,.02,.77,.08,.22,.05,.41,.14,.56,.27,.15,.13,.27,.29,.35,.5,.08,.21,.11,.48,.11,.79v2.87h.68v.59h-1.38v-.5h-.02c-.23,.19-.46,.34-.7,.43-.23,.09-.49,.15-.78,.16-.23,.01-.46,0-.67-.04s-.4-.12-.57-.24-.3-.27-.39-.47c-.1-.19-.15-.43-.15-.72s.06-.54,.18-.73,.28-.34,.47-.45c.19-.11,.42-.19,.67-.23,.25-.04,.51-.06,.77-.06h1.18v-.57c0-.37-.09-.64-.28-.82-.19-.18-.51-.27-.96-.27-.13,0-.29,0-.47,.02-.18,.01-.4,.04-.65,.09v.66h-.59Zm2.95,1.33h-1.08c-.55,0-.94,.09-1.17,.26-.22,.17-.33,.42-.33,.75,0,.29,.1,.52,.31,.69s.5,.26,.88,.26c.33,0,.62-.05,.85-.17,.23-.11,.41-.21,.54-.31v-1.48Z"/><path class="cls-6" d="M289.66,183.15v-.66c-.28-.07-.54-.1-.78-.12-.24,0-.42-.01-.54-.01-.26,0-.47,.03-.62,.09-.15,.06-.27,.14-.34,.22s-.12,.17-.14,.25c-.02,.09-.03,.15-.03,.19,0,.09,.01,.18,.04,.27,.03,.09,.09,.17,.17,.24,.09,.07,.21,.14,.37,.21,.16,.07,.36,.13,.62,.18,.27,.06,.53,.12,.76,.2,.24,.07,.44,.16,.61,.27s.3,.25,.4,.42c.1,.16,.15,.36,.15,.6,0,.48-.15,.85-.46,1.1s-.75,.38-1.33,.38c-.38,0-.75-.02-1.11-.06-.36-.04-.68-.09-.98-.17v-1.14h.59v.66c.29,.07,.57,.1,.83,.12,.26,0,.46,.01,.59,.01,.27,0,.48-.04,.63-.11,.16-.07,.28-.16,.36-.25,.08-.09,.13-.19,.15-.29,.02-.1,.03-.17,.03-.22,0-.09-.02-.18-.05-.27s-.1-.16-.19-.23c-.09-.07-.22-.14-.38-.21s-.38-.12-.63-.18c-.25-.05-.49-.1-.72-.17-.23-.07-.43-.16-.6-.28s-.3-.26-.4-.44-.15-.39-.15-.64c0-.45,.15-.78,.46-1.01s.75-.34,1.33-.34c.38,0,.73,.02,1.04,.06s.62,.09,.92,.17v1.14h-.59Z"/><path class="cls-6" d="M291.8,182.4h-.79v-.46l.79-.05,.09-1.4h.61v1.4h1.48v.51h-1.48v2.91c0,.37,.06,.64,.19,.83,.13,.19,.37,.28,.72,.28,.08,0,.16,0,.25,0,.09,0,.19-.02,.3-.04l.07,.55c-.13,.02-.28,.04-.44,.05-.16,.01-.29,.02-.41,.02-.49,0-.84-.12-1.06-.35s-.33-.64-.33-1.23v-3.02Z"/><path class="cls-6" d="M295.36,184.48c0,.28,.04,.54,.11,.78,.07,.24,.17,.44,.32,.61s.33,.3,.55,.4,.5,.14,.83,.14c.25,0,.51-.01,.76-.03,.25-.02,.52-.08,.8-.17l.09,.57c-.3,.09-.58,.15-.86,.18-.27,.03-.57,.04-.89,.04-.45,0-.83-.06-1.15-.19-.31-.13-.56-.31-.75-.54s-.33-.5-.42-.82c-.09-.32-.13-.67-.13-1.06s.04-.74,.12-1.06c.08-.32,.22-.59,.41-.82,.19-.23,.44-.41,.74-.54,.3-.13,.67-.19,1.11-.19,.52,0,.92,.09,1.2,.27,.28,.18,.48,.41,.59,.69,.12,.27,.17,.56,.17,.88,0,.31-.03,.6-.09,.85h-3.53Zm1.61-2.14c-.29,0-.53,.04-.72,.13s-.36,.21-.48,.36c-.12,.15-.22,.33-.28,.54-.06,.2-.11,.42-.12,.65h2.85c.04-.19,.05-.39,.04-.59s-.06-.38-.15-.54c-.09-.16-.23-.29-.41-.4-.18-.1-.42-.15-.73-.15Z"/><path class="cls-6" d="M302.22,182.4h-.79v-.46l.79-.05,.09-1.4h.61v1.4h1.48v.51h-1.48v2.91c0,.37,.06,.64,.19,.83,.13,.19,.37,.28,.72,.28,.08,0,.16,0,.25,0,.09,0,.19-.02,.3-.04l.07,.55c-.13,.02-.28,.04-.44,.05-.16,.01-.29,.02-.41,.02-.49,0-.84-.12-1.06-.35s-.33-.64-.33-1.23v-3.02Z"/><path class="cls-6" d="M305.18,181.89h1.39v3.31c0,.17,.02,.33,.06,.48,.04,.15,.1,.27,.18,.38,.09,.11,.2,.19,.34,.25,.14,.06,.31,.09,.52,.09,.17,0,.33-.02,.48-.07,.15-.05,.3-.1,.44-.17,.14-.07,.26-.14,.38-.21s.21-.15,.29-.22v-3.25h-.88v-.59h1.58v4.41h.68v.59h-1.38v-.72h-.02c-.25,.24-.54,.44-.84,.59s-.65,.23-1.01,.23c-.5,0-.88-.14-1.12-.42s-.38-.69-.38-1.23v-2.87h-.69v-.59Z"/><path class="cls-6" d="M312.88,181.89h1.39v3.31c0,.17,.02,.33,.06,.48,.04,.15,.1,.27,.18,.38,.09,.11,.2,.19,.34,.25,.14,.06,.31,.09,.52,.09,.17,0,.33-.02,.48-.07,.15-.05,.3-.1,.44-.17,.14-.07,.26-.14,.38-.21s.21-.15,.29-.22v-3.25h-.88v-.59h1.58v4.41h.68v.59h-1.38v-.72h-.02c-.25,.24-.54,.44-.84,.59s-.65,.23-1.01,.23c-.5,0-.88-.14-1.12-.42s-.38-.69-.38-1.23v-2.87h-.69v-.59Z"/><path class="cls-6" d="M322.23,183.15v-.66c-.28-.07-.54-.1-.77-.12-.24,0-.42-.01-.54-.01-.26,0-.47,.03-.62,.09-.15,.06-.27,.14-.34,.22-.07,.08-.12,.17-.14,.25-.02,.09-.03,.15-.03,.19,0,.09,.01,.18,.04,.27,.03,.09,.09,.17,.17,.24,.09,.07,.21,.14,.37,.21,.16,.07,.36,.13,.61,.18,.27,.06,.53,.12,.77,.2,.24,.07,.44,.16,.61,.27s.3,.25,.4,.42c.1,.16,.14,.36,.14,.6,0,.48-.15,.85-.46,1.1-.3,.25-.75,.38-1.33,.38-.38,0-.75-.02-1.1-.06s-.69-.09-.99-.17v-1.14h.59v.66c.29,.07,.57,.1,.83,.12,.26,0,.46,.01,.59,.01,.27,0,.48-.04,.63-.11,.16-.07,.27-.16,.35-.25,.08-.09,.13-.19,.15-.29,.02-.1,.03-.17,.03-.22,0-.09-.02-.18-.05-.27s-.1-.16-.19-.23c-.09-.07-.22-.14-.38-.21-.16-.06-.38-.12-.64-.18-.25-.05-.49-.1-.72-.17s-.42-.16-.59-.28-.3-.26-.4-.44-.14-.39-.14-.64c0-.45,.15-.78,.46-1.01s.75-.34,1.33-.34c.38,0,.72,.02,1.04,.06,.31,.04,.61,.09,.91,.17v1.14h-.59Z"/><path class="cls-6" d="M323.58,181.89h1.39v3.31c0,.17,.02,.33,.05,.48,.04,.15,.1,.27,.19,.38,.09,.11,.2,.19,.34,.25,.14,.06,.31,.09,.52,.09,.17,0,.33-.02,.48-.07,.15-.05,.3-.1,.43-.17,.14-.07,.26-.14,.38-.21s.21-.15,.29-.22v-3.25h-.88v-.59h1.58v4.41h.68v.59h-1.38v-.72h-.02c-.25,.24-.54,.44-.85,.59-.31,.15-.65,.23-1.01,.23-.5,0-.88-.14-1.12-.42s-.38-.69-.38-1.23v-2.87h-.69v-.59Z"/><path class="cls-6" d="M329.95,183.15v-1.16c.33-.07,.66-.12,.98-.15,.32-.03,.61-.05,.88-.05,.29,0,.54,.02,.77,.08,.22,.05,.41,.14,.56,.27,.15,.13,.27,.29,.35,.5,.08,.21,.11,.48,.11,.79v2.87h.68v.59h-1.38v-.5h-.02c-.23,.19-.46,.34-.7,.43-.23,.09-.49,.15-.78,.16-.23,.01-.46,0-.67-.04s-.4-.12-.57-.24-.3-.27-.39-.47c-.1-.19-.15-.43-.15-.72s.06-.54,.18-.73,.28-.34,.47-.45c.19-.11,.42-.19,.67-.23,.25-.04,.51-.06,.77-.06h1.18v-.57c0-.37-.09-.64-.28-.82-.19-.18-.51-.27-.96-.27-.13,0-.29,0-.47,.02-.18,.01-.4,.04-.65,.09v.66h-.59Zm2.95,1.33h-1.08c-.55,0-.94,.09-1.17,.26-.22,.17-.33,.42-.33,.75,0,.29,.1,.52,.31,.69s.5,.26,.88,.26c.33,0,.62-.05,.85-.17,.23-.11,.41-.21,.54-.31v-1.48Z"/><path class="cls-6" d="M334.73,181.89h1.39v.8h.02c.11-.11,.24-.22,.38-.33,.14-.11,.3-.2,.46-.29,.17-.09,.34-.16,.53-.21,.19-.05,.38-.08,.58-.08v.66c-.2,0-.4,.02-.59,.06s-.38,.1-.55,.17c-.17,.07-.33,.14-.48,.22-.14,.08-.26,.15-.37,.22v3.18h.81v.59h-2.2v-.59h.69v-3.82h-.69v-.59Z"/><path class="cls-6" d="M338.73,181.89h1.39v4.41h.69v.59h-2.08v-.59h.69v-3.82h-.69v-.59Zm1.39-2v1.19h-.7v-1.19h.7Z"/><path class="cls-6" d="M343.58,186.99c-.41,0-.75-.06-1.04-.19-.28-.13-.51-.31-.7-.54-.18-.23-.31-.5-.39-.82-.08-.32-.12-.67-.12-1.06s.04-.74,.12-1.06c.08-.32,.21-.59,.39-.82,.18-.23,.41-.41,.7-.54,.28-.13,.63-.19,1.04-.19s.75,.06,1.04,.19c.28,.13,.51,.31,.69,.54,.18,.23,.31,.5,.39,.82,.08,.32,.12,.67,.12,1.06s-.04,.74-.12,1.06c-.08,.32-.21,.59-.39,.82-.18,.23-.41,.41-.69,.54-.28,.13-.63,.19-1.04,.19Zm0-4.61c-.29,0-.54,.05-.73,.16-.19,.11-.34,.25-.46,.43-.12,.18-.2,.39-.25,.63-.05,.24-.07,.51-.07,.79s.02,.54,.07,.79c.05,.24,.13,.46,.25,.63,.12,.18,.27,.32,.46,.43,.19,.11,.43,.16,.73,.16s.53-.05,.72-.16,.35-.25,.46-.43c.12-.18,.2-.39,.25-.63,.05-.24,.07-.51,.07-.79s-.02-.54-.07-.79c-.05-.24-.13-.46-.25-.63-.12-.18-.27-.32-.46-.43-.19-.11-.43-.16-.72-.16Z"/><path class="cls-6" d="M346.84,180.37c.28-.11,.58-.21,.9-.27,.32-.07,.65-.1,.98-.1,.38,0,.69,.05,.94,.16,.25,.11,.44,.24,.58,.41,.14,.16,.24,.35,.29,.55,.05,.2,.08,.4,.08,.6,0,.3-.05,.55-.14,.76-.09,.21-.21,.38-.36,.53s-.3,.27-.46,.38c-.17,.11-.32,.22-.46,.33s-.26,.22-.36,.34c-.09,.12-.14,.27-.14,.45v.3h-.62v-.3c0-.22,.04-.41,.12-.56,.08-.15,.19-.29,.31-.41,.12-.12,.26-.23,.41-.33,.15-.1,.29-.21,.42-.33,.13-.12,.24-.26,.34-.41,.1-.15,.15-.34,.17-.56,.02-.21,0-.39-.04-.54-.05-.15-.13-.28-.23-.37-.1-.09-.21-.16-.33-.21-.12-.05-.25-.08-.38-.09-.13-.01-.24-.02-.33-.02-.13,0-.29,.02-.48,.06-.19,.04-.41,.1-.64,.19v.78h-.59v-1.3Zm1.9,5.3v1.22h-.7v-1.22h.7Z"/></g><rect class="cls-4" x="69.11" y="124.9" width="281.99" height="39.36" rx="3" ry="3"/><g><path class="cls-6" d="M242.06,294.17c-.28,.11-.58,.21-.9,.27-.32,.07-.65,.11-.98,.11-.38,0-.69-.05-.94-.16-.25-.11-.44-.24-.58-.41s-.24-.35-.29-.55c-.05-.2-.08-.4-.08-.59,0-.3,.05-.55,.14-.76,.09-.21,.21-.38,.36-.53,.14-.15,.3-.28,.46-.38,.16-.11,.32-.22,.46-.33s.26-.22,.35-.34c.09-.12,.14-.27,.14-.45v-.3h.63v.3c0,.23-.04,.43-.13,.59-.09,.16-.2,.31-.33,.43-.13,.12-.28,.24-.44,.35s-.31,.22-.44,.34c-.13,.12-.24,.26-.33,.42-.09,.16-.13,.35-.13,.58,0,.26,.05,.46,.15,.62,.1,.15,.21,.26,.35,.33,.14,.07,.29,.12,.44,.14,.15,.02,.29,.03,.4,.03,.13,0,.29-.02,.49-.05,.19-.04,.41-.1,.64-.19v-.77h.59v1.29Zm-1.9-5.29v-1.23h.7v1.23h-.7Z"/><path class="cls-6" d="M246.02,292.75c-.57,0-1.04-.1-1.41-.29-.37-.19-.66-.45-.87-.77-.21-.32-.36-.7-.44-1.13-.08-.43-.12-.88-.12-1.37s.04-.92,.12-1.33c.08-.42,.23-.78,.44-1.09,.21-.31,.5-.56,.87-.75,.37-.18,.84-.27,1.41-.27s1.04,.09,1.41,.27c.37,.18,.66,.43,.87,.75,.21,.31,.36,.68,.44,1.09,.08,.42,.12,.86,.12,1.33s-.04,.94-.12,1.37c-.08,.43-.23,.81-.44,1.13-.21,.32-.5,.58-.87,.77-.37,.19-.84,.29-1.41,.29Zm0-6.41c-.44,0-.79,.08-1.07,.23-.27,.16-.48,.37-.62,.63-.15,.26-.25,.57-.29,.92s-.08,.71-.08,1.08,.03,.74,.08,1.1,.15,.67,.29,.95c.15,.28,.36,.5,.62,.66,.27,.17,.62,.25,1.07,.25s.79-.08,1.06-.25c.27-.17,.48-.39,.62-.66,.15-.28,.25-.59,.29-.95s.08-.72,.08-1.1-.03-.73-.08-1.08-.15-.65-.29-.92c-.15-.26-.35-.47-.62-.63-.27-.16-.62-.23-1.06-.23Z"/><path class="cls-6" d="M249.39,285.65h1.39v6.41h.69v.59h-2.08v-.59h.69v-5.82h-.69v-.59Z"/><path class="cls-6" d="M254.91,287.65h1.95v.59h-.46l-1.79,4.46h-.83l-1.79-4.46h-.48v-.59h2.06v.59h-.8l1.47,3.72h.02l1.44-3.72h-.79v-.59Z"/><path class="cls-6" d="M257.3,287.65h1.39v4.41h.69v.59h-2.08v-.59h.69v-3.82h-.69v-.59Zm1.39-2v1.19h-.7v-1.19h.7Z"/><path class="cls-6" d="M262.7,285.65h1.39v6.41h.68v.59h-1.38v-.5h-.02c-.19,.17-.43,.32-.71,.43s-.58,.17-.89,.17c-.35,0-.65-.07-.89-.2-.24-.13-.43-.32-.57-.55-.14-.23-.25-.51-.31-.83s-.09-.66-.09-1.03,.03-.71,.1-1.02c.07-.32,.18-.59,.33-.83,.15-.23,.34-.42,.58-.55,.24-.13,.54-.2,.89-.2,.3,0,.59,.05,.86,.16s.51,.25,.7,.42h.02v-1.89h-.69v-.59Zm-2.05,4.5c0,.27,.02,.53,.06,.77,.04,.24,.12,.45,.23,.64,.11,.19,.25,.33,.42,.44s.4,.16,.67,.16c.15,0,.3-.02,.44-.05,.14-.03,.26-.07,.38-.12,.12-.05,.22-.1,.31-.15s.17-.11,.23-.16v-3.06c-.06-.05-.14-.1-.23-.16s-.19-.11-.31-.16c-.12-.05-.24-.09-.38-.12-.14-.03-.28-.05-.44-.05-.27,0-.5,.05-.67,.17s-.32,.26-.42,.44c-.11,.18-.18,.4-.23,.64-.04,.24-.06,.5-.06,.76Z"/><path class="cls-6" d="M265.69,288.91v-1.16c.33-.07,.66-.12,.98-.15,.32-.03,.61-.05,.88-.05,.29,0,.54,.02,.76,.08,.22,.05,.41,.14,.57,.26s.27,.29,.34,.5c.08,.21,.12,.48,.12,.79v2.87h.68v.59h-1.38v-.5h-.02c-.23,.19-.47,.34-.7,.43-.23,.09-.49,.15-.79,.16-.23,.01-.46,0-.67-.04-.21-.04-.4-.12-.57-.24-.17-.12-.3-.27-.39-.47s-.14-.43-.14-.72,.06-.54,.18-.72c.12-.19,.28-.34,.47-.45s.42-.19,.67-.23c.25-.04,.51-.06,.77-.06h1.18v-.57c0-.37-.09-.64-.28-.82-.19-.18-.51-.27-.96-.27-.13,0-.29,0-.47,.02-.18,.01-.4,.04-.65,.09v.66h-.59Zm2.95,1.33h-1.08c-.55,0-.94,.09-1.17,.26-.22,.17-.33,.42-.33,.75,0,.29,.1,.52,.31,.69,.21,.17,.5,.26,.88,.26,.33,0,.62-.05,.85-.17,.23-.11,.41-.21,.54-.31v-1.48Z"/><path class="cls-6" d="M273.92,288.91v-.66c-.28-.07-.54-.11-.77-.12-.24,0-.42-.01-.54-.01-.26,0-.47,.03-.62,.09s-.27,.14-.34,.22c-.07,.08-.12,.17-.14,.25-.02,.09-.03,.15-.03,.19,0,.09,.01,.18,.04,.27,.03,.09,.09,.17,.17,.24,.09,.07,.21,.14,.37,.21,.16,.07,.36,.13,.61,.18,.27,.06,.53,.12,.77,.2,.24,.07,.44,.16,.61,.28s.3,.25,.4,.42c.1,.16,.14,.36,.14,.6,0,.48-.15,.85-.46,1.1-.3,.25-.75,.38-1.33,.38-.38,0-.75-.02-1.1-.06-.36-.04-.69-.09-.99-.17v-1.14h.59v.66c.29,.07,.57,.1,.83,.12,.26,0,.46,.01,.59,.01,.27,0,.48-.04,.63-.11,.16-.07,.27-.16,.35-.25,.08-.09,.13-.19,.15-.29,.02-.1,.03-.17,.03-.22,0-.09-.02-.18-.05-.26-.03-.08-.1-.16-.19-.24-.09-.07-.22-.14-.38-.21-.16-.06-.38-.12-.64-.17-.25-.05-.49-.11-.72-.17-.23-.07-.42-.16-.59-.28-.17-.12-.3-.26-.4-.43-.1-.17-.14-.39-.14-.64,0-.45,.15-.78,.46-1.01s.75-.34,1.33-.34c.38,0,.72,.02,1.04,.05,.31,.04,.61,.09,.91,.17v1.14h-.59Z"/><path class="cls-6" d="M276.06,288.16h-.79v-.46l.79-.05,.09-1.4h.61v1.4h1.48v.51h-1.48v2.91c0,.37,.06,.64,.19,.83,.13,.19,.37,.28,.72,.28,.08,0,.16,0,.25,0s.19-.02,.3-.04l.07,.55c-.13,.02-.28,.04-.43,.05-.16,.01-.29,.02-.41,.02-.49,0-.84-.12-1.06-.35-.22-.23-.33-.64-.33-1.22v-3.02Z"/><path class="cls-6" d="M279.62,290.24c0,.28,.04,.54,.11,.78s.17,.44,.31,.61c.14,.17,.33,.3,.56,.39,.23,.09,.5,.14,.83,.14,.25,0,.51-.01,.76-.03,.25-.02,.52-.08,.8-.17l.09,.57c-.3,.09-.58,.15-.85,.18-.27,.03-.57,.04-.9,.04-.45,0-.83-.06-1.14-.19-.31-.13-.56-.3-.75-.54-.19-.23-.33-.5-.42-.82-.09-.32-.13-.67-.13-1.06s.04-.74,.12-1.05c.08-.32,.22-.59,.41-.82,.19-.23,.44-.41,.74-.54,.3-.13,.67-.19,1.12-.19,.52,0,.92,.09,1.2,.27,.28,.18,.48,.41,.59,.69,.12,.27,.17,.56,.17,.88,0,.31-.03,.59-.08,.85h-3.53Zm1.61-2.14c-.29,0-.53,.04-.73,.13-.2,.09-.36,.21-.48,.36s-.22,.33-.28,.54c-.06,.2-.1,.42-.12,.65h2.85c.04-.19,.05-.39,.04-.59-.01-.2-.06-.38-.15-.54s-.23-.29-.41-.39-.42-.16-.72-.16Z"/><path class="cls-6" d="M286.48,288.16h-.79v-.46l.79-.05,.09-1.4h.61v1.4h1.48v.51h-1.48v2.91c0,.37,.06,.64,.19,.83,.13,.19,.37,.28,.72,.28,.08,0,.16,0,.25,0s.19-.02,.3-.04l.07,.55c-.13,.02-.28,.04-.43,.05-.16,.01-.29,.02-.41,.02-.49,0-.84-.12-1.06-.35-.22-.23-.33-.64-.33-1.22v-3.02Z"/><path class="cls-6" d="M289.44,287.65h1.39v3.31c0,.17,.02,.33,.05,.48,.04,.15,.1,.27,.19,.38,.09,.11,.2,.19,.34,.25,.14,.06,.31,.09,.52,.09,.17,0,.33-.02,.48-.07s.3-.1,.43-.17,.26-.14,.38-.21c.11-.08,.21-.15,.29-.22v-3.25h-.88v-.59h1.58v4.41h.68v.59h-1.38v-.72h-.02c-.25,.24-.54,.44-.85,.59-.31,.15-.65,.23-1.01,.23-.5,0-.88-.14-1.12-.42-.25-.28-.38-.69-.38-1.23v-2.87h-.69v-.59Z"/><path class="cls-6" d="M300.91,288.91v-.66c-.25-.05-.47-.08-.65-.1-.18,0-.33-.01-.44-.01-.3,0-.55,.05-.76,.15-.21,.1-.38,.24-.51,.42-.13,.18-.23,.39-.29,.64-.06,.25-.09,.51-.09,.8s.03,.55,.09,.8c.06,.25,.16,.46,.29,.64,.13,.18,.3,.32,.51,.42,.21,.1,.46,.15,.76,.15,.17,0,.38,0,.6-.02,.23-.02,.54-.08,.94-.17l.13,.57c-.3,.07-.58,.13-.83,.17-.25,.04-.53,.06-.84,.06-.44,0-.81-.06-1.12-.19s-.55-.3-.74-.54c-.19-.23-.32-.5-.41-.82-.08-.32-.12-.67-.12-1.06s.04-.74,.12-1.05c.08-.32,.22-.59,.41-.82,.19-.23,.43-.41,.74-.54,.31-.13,.68-.19,1.12-.19,.31,0,.59,.02,.84,.05,.25,.04,.53,.09,.83,.17v1.14h-.58Z"/><path class="cls-6" d="M304.49,292.75c-.41,0-.75-.06-1.04-.19s-.51-.3-.7-.54c-.18-.23-.31-.5-.39-.82-.08-.32-.12-.67-.12-1.06s.04-.74,.12-1.05,.21-.59,.39-.82c.18-.23,.41-.41,.7-.54,.28-.13,.63-.19,1.04-.19s.75,.06,1.04,.19c.28,.13,.51,.31,.69,.54,.18,.23,.31,.5,.39,.82s.12,.67,.12,1.05-.04,.74-.12,1.06c-.08,.32-.21,.59-.39,.82-.18,.23-.41,.41-.69,.54-.28,.13-.63,.19-1.04,.19Zm0-4.61c-.29,0-.54,.05-.73,.16-.19,.11-.34,.25-.46,.43-.12,.18-.2,.39-.25,.63-.05,.24-.07,.51-.07,.79s.02,.54,.07,.79c.05,.24,.13,.46,.25,.63,.12,.18,.27,.32,.46,.43,.19,.11,.43,.16,.73,.16s.53-.05,.72-.16,.35-.25,.46-.43c.12-.18,.2-.39,.25-.63s.07-.5,.07-.79-.02-.54-.07-.79c-.05-.24-.13-.46-.25-.63-.12-.18-.27-.32-.46-.43s-.43-.16-.72-.16Z"/><path class="cls-6" d="M310.78,292.06h.65v-2.72c0-.35-.08-.63-.24-.86-.16-.23-.45-.34-.86-.34-.17,0-.33,.02-.48,.07s-.3,.1-.43,.17-.26,.14-.38,.21-.21,.15-.29,.21v3.25h.65v.59h-2.04v-.59h.69v-3.82h-.69v-.59h1.39v.73h.02c.25-.25,.54-.45,.85-.6,.31-.15,.65-.23,1.01-.23,.5,0,.88,.14,1.12,.42s.38,.69,.38,1.22v2.87h.68v.59h-2.03v-.59Z"/><path class="cls-6" d="M313.65,288.16h-.79v-.46l.79-.05,.09-1.4h.61v1.4h1.48v.51h-1.48v2.91c0,.37,.06,.64,.19,.83,.13,.19,.37,.28,.72,.28,.08,0,.16,0,.25,0s.19-.02,.3-.04l.07,.55c-.13,.02-.28,.04-.43,.05-.16,.01-.29,.02-.41,.02-.49,0-.84-.12-1.06-.35-.22-.23-.33-.64-.33-1.22v-3.02Z"/><path class="cls-6" d="M316.61,287.65h1.39v.8h.02c.11-.11,.24-.22,.39-.33,.14-.11,.3-.2,.46-.29,.17-.09,.34-.16,.53-.21,.19-.05,.38-.08,.58-.08v.66c-.2,0-.4,.02-.59,.06-.19,.04-.38,.1-.55,.17-.17,.07-.33,.14-.47,.22-.14,.08-.27,.15-.37,.22v3.18h.81v.59h-2.2v-.59h.69v-3.82h-.69v-.59Z"/><path class="cls-6" d="M320.73,288.91v-1.16c.33-.07,.66-.12,.98-.15,.32-.03,.61-.05,.88-.05,.29,0,.54,.02,.76,.08,.22,.05,.41,.14,.57,.26s.27,.29,.34,.5c.08,.21,.12,.48,.12,.79v2.87h.68v.59h-1.38v-.5h-.02c-.23,.19-.47,.34-.7,.43-.23,.09-.49,.15-.79,.16-.23,.01-.46,0-.67-.04-.21-.04-.4-.12-.57-.24-.17-.12-.3-.27-.39-.47s-.14-.43-.14-.72,.06-.54,.18-.72c.12-.19,.28-.34,.47-.45s.42-.19,.67-.23c.25-.04,.51-.06,.77-.06h1.18v-.57c0-.37-.09-.64-.28-.82-.19-.18-.51-.27-.96-.27-.13,0-.29,0-.47,.02-.18,.01-.4,.04-.65,.09v.66h-.59Zm2.95,1.33h-1.08c-.55,0-.94,.09-1.17,.26-.22,.17-.33,.42-.33,.75,0,.29,.1,.52,.31,.69,.21,.17,.5,.26,.88,.26,.33,0,.62-.05,.85-.17,.23-.11,.41-.21,.54-.31v-1.48Z"/><path class="cls-6" d="M328.96,288.91v-.66c-.28-.07-.54-.11-.78-.12s-.42-.01-.54-.01c-.26,0-.47,.03-.62,.09s-.27,.14-.34,.22c-.07,.08-.12,.17-.14,.25-.02,.09-.03,.15-.03,.19,0,.09,.01,.18,.04,.27,.03,.09,.09,.17,.17,.24,.09,.07,.21,.14,.37,.21s.36,.13,.62,.18c.27,.06,.53,.12,.76,.2s.44,.16,.61,.28,.3,.25,.4,.42c.1,.16,.15,.36,.15,.6,0,.48-.15,.85-.46,1.1-.3,.25-.75,.38-1.33,.38-.38,0-.75-.02-1.11-.06-.36-.04-.68-.09-.98-.17v-1.14h.59v.66c.29,.07,.57,.1,.83,.12,.26,0,.46,.01,.59,.01,.27,0,.48-.04,.63-.11,.16-.07,.28-.16,.36-.25,.08-.09,.13-.19,.15-.29,.02-.1,.03-.17,.03-.22,0-.09-.02-.18-.05-.26-.03-.08-.1-.16-.19-.24-.09-.07-.22-.14-.38-.21s-.38-.12-.63-.17c-.25-.05-.49-.11-.72-.17-.23-.07-.43-.16-.6-.28-.17-.12-.3-.26-.4-.43-.1-.17-.15-.39-.15-.64,0-.45,.15-.78,.46-1.01s.75-.34,1.33-.34c.38,0,.73,.02,1.04,.05,.31,.04,.62,.09,.92,.17v1.14h-.59Z"/><path class="cls-6" d="M331.24,290.24c0,.28,.04,.54,.11,.78,.07,.24,.17,.44,.32,.61s.33,.3,.55,.39c.23,.09,.5,.14,.83,.14,.25,0,.51-.01,.76-.03,.25-.02,.52-.08,.8-.17l.09,.57c-.3,.09-.58,.15-.86,.18-.27,.03-.57,.04-.89,.04-.45,0-.83-.06-1.15-.19-.31-.13-.56-.3-.75-.54-.19-.23-.33-.5-.42-.82-.09-.32-.13-.67-.13-1.06s.04-.74,.12-1.05,.22-.59,.41-.82c.19-.23,.44-.41,.74-.54,.3-.13,.67-.19,1.11-.19,.52,0,.92,.09,1.2,.27,.28,.18,.48,.41,.59,.69,.12,.27,.17,.56,.17,.88,0,.31-.03,.59-.09,.85h-3.53Zm1.61-2.14c-.29,0-.53,.04-.72,.13-.2,.09-.36,.21-.48,.36-.12,.15-.22,.33-.28,.54-.06,.2-.11,.42-.12,.65h2.85c.04-.19,.05-.39,.04-.59s-.06-.38-.15-.54c-.09-.16-.23-.29-.41-.39-.18-.1-.42-.16-.73-.16Z"/><path class="cls-6" d="M338.93,292.06h.65v-2.72c0-.35-.08-.63-.24-.86s-.45-.34-.86-.34c-.17,0-.33,.02-.48,.07s-.3,.1-.44,.17-.26,.14-.38,.21-.21,.15-.29,.21v3.25h.65v.59h-2.04v-.59h.69v-3.82h-.69v-.59h1.39v.73h.02c.25-.25,.54-.45,.84-.6,.31-.15,.65-.23,1.02-.23,.5,0,.88,.14,1.12,.42s.38,.69,.38,1.22v2.87h.68v.59h-2.03v-.59Zm-1.19-5.7c-.06,0-.12,0-.17,.02-.05,0-.11,.03-.17,.06-.06,.03-.13,.08-.21,.16s-.18,.17-.3,.29l-.23-.19c.21-.3,.39-.51,.55-.63s.33-.18,.5-.18c.12,0,.24,.03,.36,.09,.12,.06,.24,.12,.35,.19,.11,.07,.22,.14,.32,.2,.1,.06,.19,.09,.28,.09,.05,0,.09,0,.14,0s.1-.03,.16-.05c.06-.03,.11-.08,.17-.14,.06-.06,.12-.14,.18-.25l.2,.22c-.11,.21-.22,.38-.34,.5-.12,.12-.26,.19-.42,.2-.03,0-.07,0-.11,0-.04,0-.07-.01-.1-.02-.09-.03-.19-.07-.29-.12-.1-.06-.2-.12-.3-.17-.1-.06-.2-.11-.3-.16-.1-.05-.19-.07-.28-.07Z"/><path class="cls-6" d="M341.88,288.91v-1.16c.33-.07,.66-.12,.98-.15,.32-.03,.61-.05,.88-.05,.29,0,.54,.02,.77,.08,.22,.05,.41,.14,.56,.26s.27,.29,.35,.5c.08,.21,.11,.48,.11,.79v2.87h.68v.59h-1.38v-.5h-.02c-.23,.19-.46,.34-.7,.43-.23,.09-.49,.15-.78,.16-.23,.01-.46,0-.67-.04-.21-.04-.4-.12-.57-.24-.17-.12-.3-.27-.39-.47-.1-.19-.15-.43-.15-.72s.06-.54,.18-.72c.12-.19,.28-.34,.47-.45s.42-.19,.67-.23c.25-.04,.51-.06,.77-.06h1.18v-.57c0-.37-.09-.64-.28-.82-.19-.18-.51-.27-.96-.27-.13,0-.29,0-.47,.02-.18,.01-.4,.04-.65,.09v.66h-.59Zm2.95,1.33h-1.08c-.55,0-.94,.09-1.17,.26-.22,.17-.33,.42-.33,.75,0,.29,.1,.52,.31,.69,.21,.17,.5,.26,.88,.26,.33,0,.62-.05,.85-.17,.23-.11,.41-.21,.54-.31v-1.48Z"/><path class="cls-6" d="M346.95,286.13c.28-.11,.58-.21,.9-.28s.65-.1,.98-.1c.38,0,.69,.05,.94,.16,.25,.11,.44,.24,.58,.41,.14,.16,.24,.35,.29,.55,.05,.2,.08,.4,.08,.6,0,.3-.05,.55-.14,.76-.09,.21-.21,.38-.36,.53s-.3,.27-.46,.38-.32,.22-.46,.33-.26,.22-.36,.34c-.09,.12-.14,.27-.14,.45v.3h-.62v-.3c0-.22,.04-.41,.12-.56,.08-.15,.19-.29,.31-.41,.12-.12,.26-.23,.41-.33,.15-.1,.29-.21,.42-.33,.13-.12,.24-.26,.34-.41,.1-.15,.15-.34,.17-.56,.02-.21,0-.39-.04-.54-.05-.15-.13-.28-.23-.37-.1-.09-.21-.16-.33-.21-.12-.05-.25-.08-.38-.09-.13-.01-.24-.02-.33-.02-.13,0-.29,.02-.48,.06-.19,.04-.41,.1-.64,.18v.78h-.59v-1.3Zm1.9,5.3v1.22h-.7v-1.22h.7Z"/></g><g><path class="cls-5" d="M74.9,221.27v1.41c-.44,.13-.87,.23-1.27,.28-.41,.06-.82,.09-1.23,.09-.62,0-1.13-.1-1.53-.3-.4-.2-.71-.48-.95-.83-.23-.35-.39-.76-.48-1.23-.09-.47-.13-.97-.13-1.5s.04-1,.13-1.45c.09-.45,.25-.85,.48-1.19,.23-.34,.55-.61,.95-.81,.4-.2,.91-.3,1.53-.3,.41,0,.82,.03,1.23,.09,.41,.06,.83,.15,1.27,.28v1.41h-.64v-.91c-.2-.04-.39-.08-.55-.11-.16-.03-.32-.06-.46-.07s-.28-.03-.4-.03c-.13,0-.26-.01-.39-.01-.47,0-.86,.09-1.16,.26-.3,.17-.54,.4-.71,.69s-.29,.62-.35,1-.09,.77-.09,1.17c0,.44,.03,.85,.09,1.24s.18,.73,.35,1.03c.17,.29,.41,.53,.71,.7,.3,.17,.69,.26,1.16,.26,.13,0,.26,0,.39,0,.13,0,.26-.01,.4-.03s.29-.04,.46-.07c.16-.03,.35-.07,.55-.12v-.91h.64Z"/><path class="cls-5" d="M78.21,223.05c-.44,0-.82-.07-1.13-.21-.31-.14-.56-.33-.76-.58-.2-.25-.34-.55-.42-.89-.09-.34-.13-.73-.13-1.15s.04-.8,.13-1.15c.09-.34,.23-.64,.42-.89,.2-.25,.45-.44,.76-.58s.68-.21,1.13-.21,.82,.07,1.13,.21,.56,.33,.76,.58c.2,.25,.34,.55,.42,.89,.09,.34,.13,.73,.13,1.15s-.04,.8-.13,1.15c-.09,.34-.23,.64-.42,.89-.2,.25-.45,.44-.76,.58-.31,.14-.68,.21-1.13,.21Zm0-5.01c-.32,0-.58,.06-.79,.17-.21,.12-.37,.27-.5,.47s-.22,.43-.27,.69c-.05,.27-.08,.55-.08,.85s.03,.59,.08,.85,.14,.49,.27,.69,.29,.35,.5,.47c.21,.12,.47,.17,.79,.17s.57-.06,.78-.17c.21-.12,.38-.27,.51-.47,.13-.2,.22-.43,.27-.69s.08-.55,.08-.85-.03-.59-.08-.85c-.05-.26-.14-.49-.27-.69-.13-.2-.3-.35-.51-.47-.21-.12-.47-.17-.78-.17Z"/><path class="cls-5" d="M85.05,222.3h.71v-2.96c0-.38-.09-.69-.26-.94-.17-.25-.49-.37-.94-.37-.18,0-.36,.03-.52,.08-.17,.05-.32,.11-.47,.18-.15,.07-.28,.15-.41,.23-.12,.08-.23,.16-.32,.23v3.54h.71v.64h-2.22v-.64h.75v-4.16h-.75v-.64h1.51v.79h.02c.28-.27,.58-.49,.92-.65,.34-.17,.71-.25,1.1-.25,.54,0,.95,.15,1.22,.46s.41,.75,.41,1.33v3.12h.74v.64h-2.21v-.64Z"/><path class="cls-5" d="M88.17,218.06h-.86v-.5l.86-.05,.1-1.52h.66v1.52h1.61v.55h-1.61v3.17c0,.4,.07,.7,.21,.9,.14,.2,.4,.3,.78,.3,.09,0,.18,0,.27-.01s.2-.02,.33-.04l.08,.6c-.15,.02-.3,.04-.47,.05s-.32,.02-.44,.02c-.53,0-.91-.12-1.15-.38-.24-.25-.36-.69-.36-1.33v-3.28Z"/><path class="cls-5" d="M91.39,217.51h1.51v.87h.02c.12-.12,.26-.24,.42-.36,.16-.12,.32-.22,.51-.32s.37-.17,.58-.22c.2-.05,.41-.08,.63-.08v.72c-.22,0-.43,.02-.64,.07-.21,.05-.41,.11-.6,.18-.19,.07-.36,.15-.52,.24-.16,.09-.29,.17-.4,.24v3.46h.88v.64h-2.39v-.64h.75v-4.16h-.75v-.64Z"/><path class="cls-5" d="M95.87,218.88v-1.26c.36-.07,.72-.13,1.07-.16s.67-.05,.96-.05c.31,0,.59,.03,.83,.08,.24,.05,.45,.15,.61,.29,.17,.14,.29,.32,.38,.55,.08,.23,.12,.52,.12,.86v3.12h.74v.64h-1.5v-.54h-.02c-.25,.21-.51,.37-.76,.47-.25,.1-.53,.16-.85,.17-.25,.01-.5,0-.72-.05-.23-.05-.43-.13-.61-.26-.18-.13-.32-.3-.43-.51s-.16-.47-.16-.78,.07-.58,.2-.79,.3-.37,.51-.49c.21-.12,.45-.2,.73-.25,.28-.05,.55-.07,.84-.07h1.28v-.62c0-.4-.1-.7-.3-.89s-.55-.29-1.04-.29c-.15,0-.32,0-.51,.02-.2,.01-.43,.05-.71,.1v.72h-.64Zm3.21,1.45h-1.17c-.6,0-1.02,.09-1.27,.28-.24,.19-.36,.46-.36,.82,0,.31,.11,.56,.34,.75,.22,.19,.54,.28,.96,.28,.36,0,.67-.06,.92-.18s.45-.23,.59-.34v-1.61Z"/><path class="cls-5" d="M104.83,218.88v-.72c-.3-.07-.59-.11-.84-.13-.26-.01-.46-.02-.59-.02-.28,0-.51,.03-.67,.1-.17,.07-.29,.15-.37,.24-.08,.09-.13,.18-.15,.28-.02,.09-.03,.16-.03,.21,0,.1,.02,.2,.05,.29,.03,.09,.1,.18,.19,.26,.09,.08,.23,.16,.4,.23,.17,.07,.39,.14,.67,.2,.3,.07,.57,.14,.83,.21s.48,.18,.66,.3c.18,.12,.33,.27,.44,.45,.1,.18,.16,.4,.16,.66,0,.52-.17,.92-.5,1.2-.33,.28-.81,.41-1.45,.41-.41,0-.81-.02-1.2-.06-.39-.04-.75-.1-1.07-.18v-1.24h.64v.72c.32,.07,.62,.11,.9,.13,.28,.01,.5,.02,.64,.02,.29,0,.52-.04,.69-.12,.17-.08,.3-.17,.39-.27,.09-.1,.14-.2,.16-.31,.02-.1,.03-.19,.03-.24,0-.1-.02-.2-.05-.29s-.1-.18-.21-.26c-.1-.08-.24-.15-.42-.22s-.41-.13-.69-.19c-.28-.05-.54-.11-.78-.19-.25-.08-.46-.18-.65-.3-.18-.13-.33-.28-.44-.47-.1-.19-.16-.42-.16-.7,0-.49,.17-.85,.5-1.1s.82-.37,1.45-.37c.41,0,.79,.02,1.13,.06,.34,.04,.67,.1,1,.18v1.24h-.64Z"/><path class="cls-5" d="M107.3,220.32c0,.3,.05,.59,.12,.84,.07,.26,.19,.48,.34,.66,.16,.18,.36,.33,.6,.43,.25,.1,.55,.15,.9,.15,.28,0,.55-.01,.83-.04,.28-.03,.57-.09,.87-.18l.1,.62c-.33,.09-.64,.16-.93,.19-.29,.03-.62,.05-.97,.05-.49,0-.91-.07-1.25-.21-.34-.14-.61-.33-.82-.58-.21-.25-.36-.55-.46-.89-.09-.34-.14-.73-.14-1.15s.05-.8,.14-1.15c.09-.34,.24-.64,.45-.89,.21-.25,.47-.44,.8-.58s.73-.21,1.21-.21c.57,0,1,.1,1.31,.3,.3,.2,.52,.45,.65,.75s.19,.61,.19,.95-.03,.65-.09,.93h-3.84Zm1.75-2.33c-.31,0-.57,.05-.79,.14s-.39,.23-.52,.39c-.13,.17-.24,.36-.3,.58s-.11,.46-.14,.71h3.1c.04-.21,.06-.42,.05-.64-.01-.22-.06-.41-.16-.59-.1-.17-.25-.32-.45-.43-.2-.11-.46-.17-.79-.17Z"/><path class="cls-5" d="M115.67,222.3h.71v-2.96c0-.38-.09-.69-.26-.94-.17-.25-.49-.37-.94-.37-.18,0-.36,.03-.52,.08-.17,.05-.32,.11-.47,.18-.15,.07-.28,.15-.41,.23-.12,.08-.23,.16-.32,.23v3.54h.71v.64h-2.22v-.64h.75v-4.16h-.75v-.64h1.51v.79h.02c.28-.27,.58-.49,.92-.65,.34-.17,.71-.25,1.1-.25,.54,0,.95,.15,1.22,.46s.41,.75,.41,1.33v3.12h.74v.64h-2.21v-.64Zm-1.29-6.2c-.07,0-.13,0-.18,.02s-.11,.03-.18,.07c-.06,.04-.14,.09-.23,.17-.09,.08-.2,.18-.33,.31l-.25-.21c.22-.33,.42-.56,.6-.69,.17-.13,.36-.2,.54-.2,.13,0,.26,.03,.39,.1,.13,.07,.26,.14,.38,.21,.12,.08,.24,.15,.35,.21,.11,.07,.21,.1,.3,.1,.05,0,.1,0,.15-.01,.05,0,.11-.03,.17-.06s.12-.08,.19-.15c.06-.06,.13-.16,.2-.27l.22,.24c-.12,.23-.24,.41-.38,.54s-.28,.2-.45,.22c-.04,0-.07,0-.11,0-.04,0-.08-.01-.11-.02-.1-.03-.21-.07-.32-.14s-.22-.12-.33-.19c-.11-.07-.22-.12-.33-.17-.11-.05-.21-.08-.3-.08Z"/><path class="cls-5" d="M118.88,218.88v-1.26c.36-.07,.72-.13,1.07-.16s.67-.05,.96-.05c.31,0,.59,.03,.83,.08,.24,.05,.45,.15,.61,.29,.17,.14,.29,.32,.38,.55,.08,.23,.12,.52,.12,.86v3.12h.74v.64h-1.5v-.54h-.02c-.25,.21-.51,.37-.76,.47-.25,.1-.53,.16-.85,.17-.25,.01-.5,0-.72-.05-.23-.05-.43-.13-.61-.26-.18-.13-.32-.3-.43-.51s-.16-.47-.16-.78,.07-.58,.2-.79,.3-.37,.51-.49c.21-.12,.45-.2,.73-.25,.28-.05,.55-.07,.84-.07h1.28v-.62c0-.4-.1-.7-.3-.89s-.55-.29-1.04-.29c-.15,0-.32,0-.51,.02-.2,.01-.43,.05-.71,.1v.72h-.64Zm3.21,1.45h-1.17c-.6,0-1.02,.09-1.27,.28-.24,.19-.36,.46-.36,.82,0,.31,.11,.56,.34,.75,.22,.19,.54,.28,.96,.28,.36,0,.67-.06,.92-.18s.45-.23,.59-.34v-1.61Z"/></g><rect class="cls-4" x="68.76" y="230.06" width="281.99" height="39.36" rx="3" ry="3"/><rect class="cls-1" x="69" y="315.5" width="281.99" height="39.36" rx="3" ry="3"/><g><path class="cls-3" d="M191.07,336.83v-6.11h-.75v-.64h2.31v.64h-.75v6.11h.75v.64h-2.31v-.64h.75Z"/><path class="cls-3" d="M196.83,336.83h.71v-2.96c0-.38-.09-.69-.26-.94-.17-.25-.49-.37-.94-.37-.18,0-.36,.03-.52,.08-.17,.05-.32,.11-.47,.18-.15,.07-.28,.15-.41,.23-.12,.08-.23,.16-.32,.23v3.54h.71v.64h-2.22v-.64h.75v-4.16h-.75v-.64h1.51v.79h.02c.28-.27,.58-.49,.92-.65,.34-.17,.71-.25,1.1-.25,.54,0,.95,.15,1.22,.46s.41,.75,.41,1.33v3.12h.74v.64h-2.21v-.64Z"/><path class="cls-3" d="M200.44,337.07c-.17-.09-.28-.21-.35-.35s-.08-.3-.05-.47c.03-.16,.1-.33,.22-.5,.12-.17,.27-.31,.46-.44v-.02c-.28-.14-.5-.34-.66-.59-.17-.26-.25-.57-.25-.93,0-.59,.19-1.04,.57-1.36,.38-.32,.91-.48,1.59-.48,.15,0,.29,.01,.41,.03,.12,.02,.23,.05,.33,.08h1.86v.48h-1.14c.14,.09,.25,.18,.33,.28,.08,.1,.15,.21,.2,.32,.05,.11,.08,.23,.09,.34,.01,.12,.02,.22,.02,.32,0,.3-.05,.56-.16,.78-.11,.23-.26,.41-.45,.56-.19,.15-.41,.26-.66,.33-.25,.07-.53,.11-.83,.11-.12,0-.25-.01-.41-.03-.16-.02-.3-.06-.42-.11-.11,.12-.2,.24-.26,.37-.07,.13-.1,.25-.1,.36s.03,.21,.1,.28c.07,.08,.18,.12,.33,.12l1.91,.09c.57,.04,.98,.17,1.22,.39,.24,.22,.36,.51,.36,.86,0,.58-.25,1.03-.73,1.36s-1.27,.5-2.33,.5c-.7,0-1.24-.11-1.62-.34s-.56-.59-.56-1.07c0-.25,.08-.48,.23-.68,.16-.2,.41-.39,.76-.57v-.02Zm-.33,1.15c0,.3,.13,.55,.39,.73,.26,.18,.69,.27,1.29,.27,.29,0,.56-.02,.82-.07,.25-.05,.47-.12,.66-.22,.19-.1,.34-.22,.45-.38,.11-.15,.16-.33,.16-.53,0-.18-.07-.34-.21-.47-.14-.13-.41-.21-.8-.23l-2-.11c-.22,.15-.4,.29-.54,.44s-.22,.34-.22,.58Zm1.84-3.21c.42,0,.76-.11,1.01-.33,.25-.22,.38-.52,.38-.91s-.13-.72-.38-.96-.59-.36-1-.36c-.47,0-.82,.12-1.06,.36s-.35,.56-.35,.96,.13,.71,.38,.92,.6,.32,1.03,.32Z"/><path class="cls-3" d="M205.35,332.03h1.51v.87h.02c.12-.12,.26-.24,.42-.36,.16-.12,.32-.22,.51-.32s.37-.17,.58-.22c.2-.05,.41-.08,.63-.08v.72c-.22,0-.43,.02-.64,.07-.21,.05-.41,.11-.6,.18-.19,.07-.36,.15-.52,.24-.16,.09-.29,.17-.4,.24v3.46h.88v.64h-2.39v-.64h.75v-4.16h-.75v-.64Z"/><path class="cls-3" d="M210.33,334.85c0,.3,.05,.59,.12,.84,.07,.26,.19,.48,.34,.66,.16,.18,.36,.33,.6,.43,.25,.1,.55,.15,.9,.15,.28,0,.55-.01,.83-.04s.57-.09,.87-.18l.1,.62c-.33,.09-.64,.16-.93,.19-.29,.03-.62,.05-.97,.05-.49,0-.91-.07-1.25-.21-.34-.14-.61-.33-.82-.58-.21-.25-.36-.55-.46-.89-.09-.34-.14-.73-.14-1.15s.05-.8,.14-1.15c.09-.34,.24-.64,.45-.89,.21-.25,.47-.44,.8-.58,.33-.14,.73-.21,1.21-.21,.57,0,1,.1,1.31,.3,.3,.2,.52,.45,.65,.75s.19,.61,.19,.95c0,.34-.03,.65-.09,.93h-3.84Zm1.75-2.33c-.31,0-.58,.05-.79,.14s-.39,.23-.52,.39c-.13,.17-.24,.36-.3,.58s-.11,.46-.14,.71h3.1c.04-.21,.06-.42,.05-.64-.01-.22-.07-.41-.16-.59-.1-.17-.25-.32-.45-.43s-.46-.17-.79-.17Z"/><path class="cls-3" d="M218.72,333.4v-.72c-.3-.07-.59-.11-.84-.13-.26-.01-.46-.02-.59-.02-.28,0-.51,.03-.67,.1s-.29,.15-.37,.24c-.08,.09-.13,.18-.15,.28-.02,.09-.03,.16-.03,.21,0,.1,.02,.2,.05,.29,.03,.09,.1,.18,.19,.26,.09,.08,.23,.16,.4,.23,.17,.07,.39,.14,.67,.2,.3,.07,.57,.14,.83,.21,.26,.08,.48,.18,.66,.3s.33,.27,.44,.45c.1,.18,.16,.4,.16,.66,0,.52-.17,.92-.5,1.2-.33,.28-.81,.41-1.45,.41-.41,0-.81-.02-1.2-.06-.39-.04-.75-.1-1.07-.18v-1.24h.64v.72c.32,.07,.62,.11,.9,.13,.28,.01,.5,.02,.64,.02,.29,0,.52-.04,.69-.12,.17-.08,.3-.17,.39-.27s.14-.2,.16-.31c.02-.1,.03-.19,.03-.24,0-.1-.02-.2-.05-.29s-.11-.18-.21-.26c-.1-.08-.24-.15-.42-.22s-.41-.13-.69-.19c-.28-.05-.54-.11-.78-.19s-.46-.18-.65-.3c-.18-.13-.33-.28-.43-.47-.11-.19-.16-.42-.16-.7,0-.49,.17-.85,.5-1.1,.33-.25,.82-.37,1.45-.37,.41,0,.79,.02,1.13,.06s.67,.1,1,.18v1.24h-.64Z"/><path class="cls-3" d="M220.81,333.4v-1.26c.36-.07,.72-.13,1.07-.16,.35-.04,.67-.05,.96-.05,.31,0,.59,.03,.83,.08,.24,.05,.45,.15,.61,.29s.29,.32,.38,.55c.08,.23,.12,.52,.12,.86v3.12h.74v.64h-1.5v-.54h-.02c-.25,.21-.51,.37-.76,.47-.25,.1-.53,.16-.85,.17-.25,.01-.5,0-.72-.05-.23-.05-.43-.13-.61-.26s-.32-.3-.43-.51c-.1-.21-.16-.47-.16-.78s.07-.58,.2-.79c.13-.21,.3-.37,.51-.49,.21-.12,.45-.2,.73-.25,.28-.05,.55-.07,.84-.07h1.28v-.62c0-.4-.1-.7-.3-.89s-.55-.29-1.04-.29c-.15,0-.32,0-.51,.02-.2,.01-.43,.05-.71,.1v.72h-.64Zm3.21,1.45h-1.17c-.6,0-1.02,.09-1.27,.28-.24,.19-.36,.46-.36,.82,0,.31,.11,.56,.34,.75,.22,.19,.54,.28,.96,.28,.36,0,.67-.06,.92-.18s.45-.23,.59-.34v-1.61Z"/><path class="cls-3" d="M226.01,332.03h1.51v.87h.02c.12-.12,.26-.24,.42-.36,.16-.12,.32-.22,.51-.32,.18-.09,.37-.17,.58-.22,.2-.05,.41-.08,.63-.08v.72c-.22,0-.43,.02-.64,.07-.21,.05-.41,.11-.6,.18-.19,.07-.36,.15-.52,.24-.16,.09-.29,.17-.4,.24v3.46h.88v.64h-2.39v-.64h.75v-4.16h-.75v-.64Z"/></g><rect class="cls-4" x="146.1" y="387.88" width="127.8" height="83.48" rx="3" ry="3"/><g><path class="cls-5" d="M184.31,444.31v2.08h-.58v-5h1.37c.61,0,1.07,.12,1.36,.35,.29,.24,.44,.59,.44,1.06,0,.66-.33,1.11-1,1.34l1.36,2.25h-.69l-1.21-2.08h-1.04Zm0-.5h.8c.41,0,.71-.08,.9-.24,.19-.16,.29-.41,.29-.73s-.1-.57-.29-.71c-.2-.15-.51-.22-.94-.22h-.76v1.91Z"/><path class="cls-5" d="M189.55,446.45c-.55,0-.99-.17-1.31-.51-.32-.34-.48-.81-.48-1.41s.15-1.08,.45-1.44c.3-.36,.7-.53,1.2-.53,.47,0,.84,.15,1.11,.46s.41,.72,.41,1.22v.36h-2.58c.01,.44,.12,.77,.33,1,.21,.23,.51,.34,.89,.34,.4,0,.8-.08,1.2-.25v.51c-.2,.09-.39,.15-.57,.19-.18,.04-.4,.06-.65,.06Zm-.15-3.41c-.3,0-.54,.1-.72,.29-.18,.2-.28,.47-.32,.81h1.96c0-.36-.08-.63-.24-.82-.16-.19-.39-.29-.68-.29Z"/><path class="cls-5" d="M194.96,442.64v.36l-.69,.08c.06,.08,.12,.18,.17,.31,.05,.13,.08,.27,.08,.44,0,.37-.13,.66-.38,.88s-.59,.33-1.03,.33c-.11,0-.22,0-.31-.03-.24,.13-.36,.29-.36,.48,0,.1,.04,.18,.13,.23,.08,.05,.23,.07,.43,.07h.66c.41,0,.72,.08,.93,.26,.22,.17,.33,.42,.33,.75,0,.42-.17,.73-.5,.95-.33,.22-.82,.33-1.46,.33-.49,0-.87-.09-1.13-.27-.27-.18-.4-.44-.4-.77,0-.23,.07-.42,.22-.59,.15-.17,.35-.28,.62-.34-.1-.04-.18-.11-.24-.2-.07-.09-.1-.2-.1-.32,0-.14,.04-.26,.11-.36s.19-.2,.35-.3c-.19-.08-.35-.22-.47-.41-.12-.19-.18-.41-.18-.66,0-.41,.12-.73,.37-.95,.25-.22,.59-.33,1.05-.33,.2,0,.37,.02,.53,.07h1.3Zm-2.99,4.38c0,.2,.09,.36,.26,.46,.17,.11,.42,.16,.73,.16,.48,0,.83-.07,1.06-.21,.23-.14,.34-.34,.34-.58,0-.2-.06-.34-.19-.42-.13-.08-.36-.12-.71-.12h-.68c-.26,0-.46,.06-.6,.18s-.22,.3-.22,.53Zm.31-3.18c0,.26,.07,.46,.22,.59,.15,.13,.35,.2,.62,.2,.55,0,.83-.27,.83-.81,0-.56-.28-.84-.84-.84-.27,0-.47,.07-.62,.22s-.22,.36-.22,.64Z"/><path class="cls-5" d="M195.68,441.62c0-.13,.03-.22,.1-.29s.14-.09,.24-.09,.17,.03,.24,.09,.1,.16,.1,.28-.03,.22-.1,.29c-.07,.06-.14,.09-.24,.09s-.18-.03-.24-.09c-.06-.06-.1-.16-.1-.29Zm.62,4.76h-.57v-3.75h.57v3.75Z"/><path class="cls-5" d="M199.92,445.36c0,.35-.13,.62-.39,.81-.26,.19-.62,.28-1.09,.28-.5,0-.88-.08-1.16-.24v-.53c.18,.09,.37,.16,.58,.22,.21,.05,.4,.08,.6,.08,.3,0,.52-.05,.68-.14s.24-.24,.24-.43c0-.15-.06-.27-.19-.37-.13-.1-.37-.23-.74-.37-.35-.13-.6-.24-.74-.34-.15-.1-.26-.21-.33-.33-.07-.12-.11-.27-.11-.44,0-.3,.12-.55,.37-.72s.59-.26,1.02-.26c.4,0,.8,.08,1.18,.25l-.2,.46c-.38-.15-.72-.23-1.02-.23-.27,0-.47,.04-.61,.13-.14,.08-.21,.2-.21,.35,0,.1,.03,.19,.08,.26,.05,.07,.13,.14,.25,.2,.11,.06,.33,.16,.66,.28,.44,.16,.74,.33,.9,.49,.16,.16,.23,.37,.23,.62Z"/><path class="cls-5" d="M202.05,445.98c.1,0,.2,0,.29-.02,.09-.02,.17-.03,.22-.05v.43c-.06,.03-.15,.05-.27,.07-.12,.02-.23,.03-.32,.03-.72,0-1.09-.38-1.09-1.15v-2.23h-.54v-.27l.54-.24,.24-.8h.33v.87h1.09v.44h-1.09v2.21c0,.23,.05,.4,.16,.52,.11,.12,.25,.18,.44,.18Z"/><path class="cls-5" d="M205.02,442.57c.17,0,.32,.01,.45,.04l-.08,.53c-.15-.03-.29-.05-.41-.05-.3,0-.56,.12-.78,.37-.22,.25-.32,.55-.32,.92v2.01h-.57v-3.75h.47l.06,.69h.03c.14-.24,.31-.43,.5-.56,.2-.13,.41-.2,.65-.2Z"/><path class="cls-5" d="M208.47,446.38l-.11-.53h-.03c-.19,.23-.37,.39-.56,.48-.19,.08-.42,.12-.7,.12-.37,0-.66-.1-.87-.29-.21-.19-.32-.46-.32-.82,0-.76,.6-1.15,1.81-1.19l.64-.02v-.23c0-.29-.06-.51-.19-.65-.13-.14-.33-.21-.61-.21-.31,0-.67,.1-1.06,.29l-.17-.43c.18-.1,.39-.18,.61-.24,.22-.06,.44-.08,.66-.08,.45,0,.78,.1,.99,.3,.21,.2,.32,.52,.32,.95v2.56h-.42Zm-1.28-.4c.35,0,.63-.1,.83-.29,.2-.19,.3-.46,.3-.81v-.34l-.57,.02c-.45,.02-.78,.09-.98,.21-.2,.12-.3,.32-.3,.58,0,.21,.06,.36,.19,.47,.12,.11,.3,.16,.52,.16Z"/><path class="cls-5" d="M211.27,445.98c.1,0,.2,0,.29-.02,.09-.02,.17-.03,.22-.05v.43c-.06,.03-.15,.05-.27,.07-.12,.02-.23,.03-.32,.03-.73,0-1.09-.38-1.09-1.15v-2.23h-.54v-.27l.54-.24,.24-.8h.33v.87h1.09v.44h-1.09v2.21c0,.23,.05,.4,.16,.52,.11,.12,.25,.18,.44,.18Z"/><path class="cls-5" d="M214.11,446.45c-.55,0-.99-.17-1.31-.51-.32-.34-.48-.81-.48-1.41s.15-1.08,.45-1.44c.3-.36,.7-.53,1.2-.53,.47,0,.84,.15,1.11,.46s.41,.72,.41,1.22v.36h-2.58c.01,.44,.12,.77,.33,1,.21,.23,.51,.34,.89,.34,.4,0,.8-.08,1.2-.25v.51c-.2,.09-.39,.15-.57,.19-.18,.04-.39,.06-.65,.06Zm-.15-3.41c-.3,0-.54,.1-.72,.29-.18,.2-.28,.47-.32,.81h1.96c0-.36-.08-.63-.24-.82-.16-.19-.39-.29-.68-.29Z"/><path class="cls-5" d="M220.58,446.38l-.11-.53h-.03c-.19,.23-.37,.39-.56,.48s-.42,.12-.7,.12c-.37,0-.66-.1-.87-.29-.21-.19-.32-.46-.32-.82,0-.76,.6-1.15,1.81-1.19l.64-.02v-.23c0-.29-.06-.51-.19-.65-.13-.14-.33-.21-.61-.21-.31,0-.67,.1-1.06,.29l-.17-.43c.18-.1,.39-.18,.61-.24,.22-.06,.44-.08,.66-.08,.45,0,.78,.1,.99,.3,.21,.2,.32,.52,.32,.95v2.56h-.42Zm-1.28-.4c.35,0,.63-.1,.83-.29,.2-.19,.3-.46,.3-.81v-.34l-.57,.02c-.45,.02-.78,.09-.98,.21s-.3,.32-.3,.58c0,.21,.06,.36,.19,.47,.12,.11,.3,.16,.52,.16Z"/><path class="cls-5" d="M224.73,446.38v-2.42c0-.3-.07-.53-.21-.68-.14-.15-.36-.23-.65-.23-.39,0-.68,.11-.86,.32-.18,.21-.27,.57-.27,1.05v1.96h-.57v-5.32h.57v1.61c0,.19,0,.35-.03,.48h.03c.11-.18,.27-.32,.48-.43,.21-.1,.44-.16,.71-.16,.46,0,.8,.11,1.03,.33,.23,.22,.34,.56,.34,1.04v2.44h-.57Z"/><path class="cls-5" d="M229.7,444.51c0,.61-.15,1.09-.46,1.43s-.73,.51-1.27,.51c-.33,0-.63-.08-.89-.24s-.46-.38-.6-.68c-.14-.29-.21-.64-.21-1.03,0-.61,.15-1.09,.46-1.43,.31-.34,.73-.51,1.27-.51s.94,.17,1.25,.52c.31,.35,.46,.82,.46,1.42Zm-2.85,0c0,.48,.1,.84,.29,1.09,.19,.25,.47,.38,.84,.38s.65-.12,.85-.37c.19-.25,.29-.61,.29-1.1s-.1-.84-.29-1.08-.48-.37-.85-.37-.65,.12-.84,.37c-.19,.24-.28,.61-.28,1.09Z"/><path class="cls-5" d="M232.4,442.57c.17,0,.32,.01,.45,.04l-.08,.53c-.15-.03-.29-.05-.41-.05-.3,0-.56,.12-.78,.37-.22,.25-.32,.55-.32,.92v2.01h-.57v-3.75h.47l.06,.69h.03c.14-.24,.31-.43,.5-.56,.2-.13,.41-.2,.65-.2Z"/><path class="cls-5" d="M235.86,446.38l-.11-.53h-.03c-.19,.23-.37,.39-.56,.48-.19,.08-.42,.12-.7,.12-.37,0-.66-.1-.87-.29s-.32-.46-.32-.82c0-.76,.61-1.15,1.82-1.19l.64-.02v-.23c0-.29-.06-.51-.19-.65-.13-.14-.33-.21-.61-.21-.31,0-.67,.1-1.06,.29l-.17-.43c.18-.1,.39-.18,.61-.24,.22-.06,.44-.08,.66-.08,.45,0,.78,.1,.99,.3,.21,.2,.32,.52,.32,.95v2.56h-.42Zm-1.28-.4c.35,0,.63-.1,.83-.29,.2-.19,.3-.46,.3-.81v-.34l-.57,.02c-.45,.02-.78,.09-.98,.21-.2,.12-.3,.32-.3,.58,0,.21,.06,.36,.19,.47,.12,.11,.3,.16,.52,.16Z"/></g><g><path class="cls-3" d="M187.79,428.91v3.7c0,.65-.2,1.16-.59,1.54-.39,.37-.93,.56-1.62,.56s-1.22-.19-1.6-.56-.56-.89-.56-1.55v-3.68h.66v3.73c0,.48,.13,.84,.39,1.1,.26,.26,.64,.38,1.15,.38s.85-.13,1.11-.38c.26-.26,.39-.62,.39-1.1v-3.72h.66Z"/><path class="cls-3" d="M191.96,433.46c0,.4-.15,.71-.45,.92-.3,.22-.71,.32-1.25,.32-.57,0-1.01-.09-1.33-.27v-.6c.21,.1,.43,.19,.66,.25,.24,.06,.46,.09,.68,.09,.34,0,.6-.05,.78-.16,.18-.11,.27-.27,.27-.49,0-.17-.07-.31-.22-.43-.14-.12-.43-.26-.85-.42-.4-.15-.68-.28-.85-.39-.17-.11-.29-.24-.38-.38s-.12-.31-.12-.5c0-.35,.14-.62,.43-.83,.28-.2,.67-.3,1.17-.3,.46,0,.91,.09,1.35,.28l-.23,.53c-.43-.18-.82-.27-1.17-.27-.31,0-.54,.05-.7,.14-.16,.1-.23,.23-.23,.4,0,.12,.03,.21,.09,.29,.06,.08,.15,.16,.28,.23,.13,.07,.38,.18,.75,.32,.51,.19,.85,.37,1.03,.56s.27,.42,.27,.71Z"/><path class="cls-3" d="M193.62,430.34v2.78c0,.35,.08,.61,.24,.78s.41,.26,.75,.26c.45,0,.78-.12,.98-.37,.21-.24,.31-.64,.31-1.2v-2.25h.65v4.28h-.54l-.09-.57h-.04c-.13,.21-.32,.37-.55,.48-.24,.11-.5,.17-.81,.17-.52,0-.91-.12-1.17-.37-.26-.25-.39-.64-.39-1.19v-2.8h.66Z"/><path class="cls-3" d="M200.56,434.62l-.13-.61h-.03c-.21,.27-.43,.45-.64,.54-.21,.1-.48,.14-.79,.14-.42,0-.76-.11-1-.33s-.36-.53-.36-.93c0-.86,.69-1.32,2.07-1.36l.73-.02v-.27c0-.34-.07-.58-.22-.74s-.38-.24-.69-.24c-.36,0-.76,.11-1.21,.33l-.2-.5c.21-.11,.44-.2,.69-.27,.25-.06,.5-.1,.76-.1,.51,0,.89,.11,1.13,.34s.37,.59,.37,1.09v2.92h-.48Zm-1.46-.46c.4,0,.72-.11,.95-.33,.23-.22,.35-.53,.35-.93v-.39l-.65,.03c-.52,.02-.89,.1-1.12,.24-.23,.14-.34,.36-.34,.66,0,.23,.07,.41,.21,.54,.14,.12,.34,.18,.6,.18Z"/><path class="cls-3" d="M204.33,430.26c.19,0,.36,.02,.51,.05l-.09,.6c-.18-.04-.33-.06-.47-.06-.35,0-.64,.14-.89,.42s-.37,.63-.37,1.05v2.3h-.65v-4.28h.54l.07,.79h.03c.16-.28,.35-.49,.57-.64,.22-.15,.47-.23,.74-.23Z"/><path class="cls-3" d="M205.59,429.18c0-.15,.04-.26,.11-.33,.07-.07,.16-.1,.27-.1s.19,.04,.27,.11,.11,.18,.11,.32-.04,.25-.11,.33c-.08,.07-.17,.11-.27,.11-.11,0-.2-.04-.27-.11-.07-.07-.11-.18-.11-.33Zm.7,5.44h-.65v-4.28h.65v4.28Z"/><path class="cls-3" d="M211.36,432.48c0,.7-.18,1.24-.53,1.63-.35,.39-.84,.59-1.46,.59-.38,0-.72-.09-1.02-.27s-.53-.44-.69-.77-.24-.73-.24-1.18c0-.7,.17-1.24,.52-1.63,.35-.39,.83-.58,1.45-.58s1.07,.2,1.43,.6c.35,.4,.53,.94,.53,1.62Zm-3.26,0c0,.55,.11,.96,.33,1.25,.22,.29,.54,.43,.96,.43s.75-.14,.97-.43,.33-.7,.33-1.25-.11-.96-.33-1.24c-.22-.28-.54-.42-.97-.42s-.74,.14-.96,.42c-.22,.28-.32,.69-.32,1.25Z"/><path class="cls-3" d="M217.5,434.62v-2.77c0-.35-.08-.61-.24-.78-.16-.17-.41-.26-.75-.26-.45,0-.78,.12-.98,.36-.21,.24-.31,.64-.31,1.2v2.25h-.65v-4.28h.53l.11,.59h.03c.13-.21,.32-.37,.56-.49,.24-.12,.51-.17,.8-.17,.52,0,.9,.12,1.16,.37,.26,.25,.39,.65,.39,1.19v2.79h-.65Z"/><path class="cls-3" d="M220.09,430.34v2.78c0,.35,.08,.61,.24,.78,.16,.17,.41,.26,.75,.26,.45,0,.78-.12,.98-.37,.21-.24,.31-.64,.31-1.2v-2.25h.65v4.28h-.54l-.09-.57h-.04c-.13,.21-.32,.37-.55,.48-.24,.11-.5,.17-.81,.17-.52,0-.91-.12-1.17-.37-.26-.25-.39-.64-.39-1.19v-2.8h.66Z"/><path class="cls-3" d="M226.2,434.7c-.63,0-1.13-.19-1.5-.58-.37-.38-.55-.92-.55-1.61s.17-1.24,.51-1.64,.8-.61,1.37-.61c.54,0,.96,.18,1.27,.53,.31,.35,.47,.82,.47,1.4v.41h-2.95c.01,.5,.14,.88,.38,1.14,.24,.26,.58,.39,1.02,.39,.46,0,.92-.1,1.37-.29v.58c-.23,.1-.45,.17-.65,.21-.21,.04-.45,.06-.74,.06Zm-.18-3.89c-.34,0-.62,.11-.82,.34-.21,.22-.33,.53-.36,.93h2.24c0-.41-.09-.72-.27-.94-.18-.22-.44-.33-.78-.33Z"/><path class="cls-3" d="M229.82,434.62l-1.62-4.28h.7l.92,2.54c.21,.59,.33,.98,.37,1.16h.03c.03-.14,.12-.42,.27-.86s.49-1.38,1.03-2.84h.7l-1.62,4.28h-.76Z"/><path class="cls-3" d="M236.59,432.48c0,.7-.18,1.24-.53,1.63-.35,.39-.84,.59-1.46,.59-.38,0-.72-.09-1.02-.27s-.53-.44-.69-.77c-.16-.34-.24-.73-.24-1.18,0-.7,.17-1.24,.52-1.63,.35-.39,.83-.58,1.45-.58s1.07,.2,1.43,.6c.35,.4,.53,.94,.53,1.62Zm-3.26,0c0,.55,.11,.96,.33,1.25,.22,.29,.54,.43,.96,.43s.75-.14,.97-.43c.22-.29,.33-.7,.33-1.25s-.11-.96-.33-1.24c-.22-.28-.54-.42-.97-.42s-.75,.14-.96,.42c-.22,.28-.32,.69-.32,1.25Z"/></g><path class="cls-2" d="M210,409.55c-2.54,0-4.23,2.47-1.87,6.84,.8,1.47-.86,1.82-2.55,2.21-1.54,.35-1.59,1.12-1.59,2.45v.5h12v-.48c0-1.34-.04-2.11-1.59-2.47-1.72-.4-3.32-.74-2.55-2.21,2.36-4.46,.63-6.84-1.87-6.84m0,.5c.95,0,1.7,.38,2.11,1.08,.68,1.13,.43,2.91-.69,5.03-.29,.55-.34,1.04-.14,1.47,.47,1.02,2.38,1.32,3.02,1.46,1.15,.27,1.21,.66,1.2,1.97h-11c0-1.31,.05-1.7,1.2-1.97,.58-.13,2.57-.46,3.02-1.47,.19-.43,.14-.92-.15-1.46-1.12-2.06-1.37-3.88-.7-5.01,.42-.71,1.18-1.09,2.13-1.09"/></g></svg>