<?xml version="1.0" encoding="UTF-8"?><svg xmlns="http://www.w3.org/2000/svg" viewBox="0 0 420 524"><defs><style>.cls-1{fill:#343434;}.cls-2{fill:#a8a6a7;}.cls-3{fill:#ffdd0a;}.cls-4{fill:#a9a9a9;}.cls-5{fill:#366fb6;}.cls-6{fill:#fff;stroke:#ddd;stroke-miterlimit:10;stroke-width:.5px;}.cls-7{fill:#222d56;}</style></defs><g id="Capa_2"><rect class="cls-6" x="20.46" y="10.35" width="379.08" height="493.03" rx="3" ry="3"/></g><g id="Capa_3"><g><path class="cls-7" d="M110.81,69.1c1.06,.22,1.86,.69,2.41,1.39,.55,.7,.83,1.57,.83,2.59,0,1.34-.4,2.4-1.2,3.18-.8,.78-1.99,1.16-3.58,1.16h-8.59v-1.42h1.66v-13.49h-1.66v-1.42h8.11c1.58,0,2.78,.38,3.58,1.13s1.2,1.75,1.2,3c0,.96-.24,1.77-.71,2.44-.47,.66-1.16,1.12-2.05,1.38v.05Zm.89-3.65c0-.86-.26-1.57-.79-2.11s-1.3-.82-2.3-.82h-4.49v5.88h4.49c1.01,0,1.78-.25,2.3-.76,.53-.5,.79-1.24,.79-2.2Zm-7.58,4.37v6.19h4.9c1.01,0,1.79-.26,2.34-.79,.55-.53,.83-1.3,.83-2.3,0-.94-.29-1.7-.88-2.26-.58-.56-1.45-.84-2.6-.84h-4.58Z"/><path class="cls-7" d="M116.62,68.45v-2.78c.8-.16,1.58-.28,2.35-.36,.77-.08,1.47-.12,2.11-.12,.69,0,1.3,.06,1.84,.18s.99,.33,1.36,.64,.64,.71,.83,1.21,.28,1.14,.28,1.91v6.89h1.63v1.42h-3.31v-1.2h-.05c-.56,.46-1.12,.81-1.67,1.03-.55,.22-1.18,.35-1.88,.38-.56,.03-1.09,0-1.6-.11-.5-.1-.96-.3-1.36-.58-.4-.28-.72-.65-.95-1.12-.23-.46-.35-1.04-.35-1.73s.14-1.28,.43-1.74,.66-.82,1.13-1.08c.46-.26,1-.45,1.61-.55s1.22-.16,1.85-.16h2.83v-1.37c0-.88-.22-1.54-.67-1.97-.45-.43-1.22-.65-2.3-.65-.32,0-.7,.02-1.13,.05s-.95,.1-1.56,.22v1.58h-1.42Zm7.08,3.19h-2.59c-1.33,0-2.26,.21-2.8,.62-.54,.42-.8,1.02-.8,1.8,0,.69,.25,1.24,.74,1.66,.5,.42,1.2,.62,2.11,.62,.8,0,1.48-.13,2.04-.4,.56-.26,.99-.52,1.3-.76v-3.55Z"/><path class="cls-7" d="M136.3,76.01h1.56v-6.53c0-.83-.19-1.52-.58-2.06-.38-.54-1.07-.82-2.06-.82-.4,0-.78,.06-1.15,.17-.37,.11-.72,.25-1.04,.41-.33,.16-.63,.33-.9,.52-.27,.18-.5,.36-.7,.52v7.8h1.56v1.42h-4.9v-1.42h1.66v-9.17h-1.66v-1.42h3.34v1.75h.05c.61-.59,1.28-1.07,2.03-1.44s1.56-.55,2.44-.55c1.2,0,2.1,.34,2.7,1.01,.6,.67,.9,1.65,.9,2.93v6.89h1.63v1.42h-4.87v-1.42Z"/><path class="cls-7" d="M150.82,68.45v-1.58c-.61-.13-1.13-.2-1.56-.23-.43-.02-.78-.04-1.06-.04-.72,0-1.33,.12-1.82,.36-.5,.24-.9,.58-1.22,1.01-.32,.43-.55,.94-.7,1.54-.14,.59-.22,1.23-.22,1.92s.07,1.33,.22,1.92c.14,.59,.38,1.1,.7,1.54,.32,.43,.73,.77,1.22,1.01,.5,.24,1.1,.36,1.82,.36,.42,0,.9-.02,1.45-.06,.55-.04,1.3-.18,2.24-.42l.31,1.37c-.72,.18-1.38,.31-1.98,.4-.6,.09-1.28,.13-2.03,.13-1.06,0-1.95-.15-2.69-.46-.74-.3-1.33-.73-1.78-1.28-.45-.55-.77-1.21-.97-1.97-.2-.76-.3-1.6-.3-2.53s.1-1.77,.3-2.53c.2-.76,.52-1.42,.97-1.97,.45-.55,1.04-.98,1.78-1.28,.74-.3,1.63-.46,2.69-.46,.75,0,1.43,.04,2.03,.13,.6,.09,1.26,.22,1.98,.4v2.74h-1.39Z"/><path class="cls-7" d="M154.7,68.45v-2.78c.8-.16,1.58-.28,2.35-.36,.77-.08,1.47-.12,2.11-.12,.69,0,1.3,.06,1.84,.18s.99,.33,1.36,.64,.64,.71,.83,1.21,.28,1.14,.28,1.91v6.89h1.63v1.42h-3.31v-1.2h-.05c-.56,.46-1.12,.81-1.67,1.03-.55,.22-1.18,.35-1.88,.38-.56,.03-1.09,0-1.6-.11-.5-.1-.96-.3-1.36-.58-.4-.28-.72-.65-.95-1.12-.23-.46-.35-1.04-.35-1.73s.14-1.28,.43-1.74,.66-.82,1.13-1.08c.46-.26,1-.45,1.61-.55s1.22-.16,1.85-.16h2.83v-1.37c0-.88-.22-1.54-.67-1.97-.45-.43-1.22-.65-2.3-.65-.32,0-.7,.02-1.13,.05s-.95,.1-1.56,.22v1.58h-1.42Zm7.08,3.19h-2.59c-1.33,0-2.26,.21-2.8,.62-.54,.42-.8,1.02-.8,1.8,0,.69,.25,1.24,.74,1.66,.5,.42,1.2,.62,2.11,.62,.8,0,1.48-.13,2.04-.4,.56-.26,.99-.52,1.3-.76v-3.55Z"/><path class="cls-7" d="M176.06,61.11v1.42h-2.35l3.43,12.79h.02l3.74-14.21h1.92l3.82,14.21h.02l3.36-12.79h-2.38v-1.42h5.28v1.42h-1.18l-4.06,15.02h-2.38l-3.58-13.25h-.05l-3.48,13.25h-2.4l-4.13-15.02h-1.2v-1.42h5.57Z"/><path class="cls-7" d="M194.57,71.64c.02,.67,.1,1.29,.26,1.86,.16,.57,.41,1.06,.76,1.46,.34,.41,.79,.72,1.33,.95,.54,.22,1.21,.34,1.99,.34,.61,0,1.22-.03,1.82-.08,.61-.06,1.25-.19,1.92-.4l.22,1.37c-.72,.21-1.4,.35-2.05,.42-.65,.07-1.36,.11-2.15,.11-1.09,0-2-.15-2.75-.46s-1.35-.73-1.81-1.28c-.46-.55-.8-1.21-1.01-1.97-.21-.76-.31-1.6-.31-2.53s.1-1.77,.3-2.53c.2-.76,.53-1.42,.98-1.97s1.05-.98,1.78-1.28c.73-.3,1.62-.46,2.68-.46,1.25,0,2.21,.22,2.88,.66,.67,.44,1.15,.99,1.43,1.64,.28,.66,.42,1.36,.41,2.1,0,.74-.08,1.43-.2,2.05h-8.47Zm3.86-5.14c-.69,0-1.27,.1-1.74,.31-.47,.21-.86,.5-1.15,.86-.3,.37-.52,.8-.67,1.28-.15,.49-.25,1.01-.3,1.57h6.84c.1-.46,.13-.94,.11-1.42-.02-.48-.14-.91-.36-1.3-.22-.38-.54-.7-.98-.95-.44-.25-1.02-.37-1.74-.37Z"/><path class="cls-7" d="M204.58,60.63h3.34v6h.05c.46-.42,1.03-.76,1.69-1.03,.66-.27,1.37-.41,2.12-.41,.83,0,1.54,.16,2.11,.48s1.04,.76,1.39,1.32c.35,.56,.6,1.22,.76,1.98,.15,.76,.23,1.58,.23,2.46s-.08,1.7-.24,2.46c-.16,.76-.42,1.42-.78,1.98-.36,.56-.83,1-1.42,1.32-.58,.32-1.29,.48-2.12,.48-.74,0-1.44-.13-2.11-.38s-1.25-.59-1.73-1.01h-.05l-.29,1.15h-2.95v-1.42h1.66v-13.97h-1.66v-1.42Zm9.91,10.8c0-.64-.05-1.25-.16-1.84-.1-.58-.29-1.1-.54-1.54-.26-.44-.6-.79-1.03-1.06-.43-.26-.97-.4-1.61-.4-.37,0-.72,.04-1.04,.12-.33,.08-.63,.18-.91,.29-.28,.11-.53,.24-.74,.37-.22,.14-.4,.26-.54,.37v7.34c.14,.11,.32,.24,.54,.37,.22,.14,.46,.26,.74,.37,.28,.11,.58,.21,.91,.29,.33,.08,.68,.12,1.04,.12,.64,0,1.18-.13,1.61-.38,.43-.26,.78-.61,1.03-1.06,.25-.45,.44-.96,.54-1.54,.1-.58,.16-1.19,.16-1.85Z"/><path class="cls-7" d="M230.59,61.11c.78,0,1.48,.12,2.09,.35,.61,.23,1.12,.55,1.52,.96s.72,.9,.94,1.46c.22,.57,.32,1.2,.32,1.88,0,1.46-.42,2.6-1.25,3.42-.83,.82-2.04,1.24-3.62,1.24h-4.82v5.59h1.66v1.42h-5.09v-1.42h1.66v-13.49h-1.66v-1.42h8.26Zm-4.82,7.9h4.66c1.01,0,1.8-.28,2.36-.83,.57-.55,.85-1.36,.85-2.41,0-.99-.28-1.78-.85-2.36-.57-.58-1.36-.88-2.36-.88h-4.66v6.48Z"/><path class="cls-7" d="M238.58,71.64c.02,.67,.1,1.29,.26,1.86,.16,.57,.41,1.06,.76,1.46,.34,.41,.79,.72,1.33,.95,.54,.22,1.21,.34,1.99,.34,.61,0,1.21-.03,1.82-.08,.61-.06,1.25-.19,1.92-.4l.22,1.37c-.72,.21-1.4,.35-2.05,.42-.65,.07-1.36,.11-2.15,.11-1.09,0-2-.15-2.75-.46s-1.35-.73-1.81-1.28-.8-1.21-1.01-1.97-.31-1.6-.31-2.53,.1-1.77,.3-2.53c.2-.76,.53-1.42,.98-1.97s1.05-.98,1.78-1.28c.73-.3,1.62-.46,2.68-.46,1.25,0,2.21,.22,2.88,.66,.67,.44,1.15,.99,1.43,1.64,.28,.66,.42,1.36,.41,2.1,0,.74-.08,1.43-.2,2.05h-8.47Zm3.86-5.14c-.69,0-1.27,.1-1.74,.31s-.86,.5-1.15,.86c-.3,.37-.52,.8-.67,1.28-.15,.49-.25,1.01-.3,1.57h6.84c.1-.46,.13-.94,.11-1.42-.02-.48-.14-.91-.36-1.3-.22-.38-.54-.7-.98-.95-.44-.25-1.02-.37-1.74-.37Z"/><path class="cls-7" d="M248.83,65.42h3.34v1.92h.05c.27-.27,.58-.54,.92-.79,.34-.26,.72-.49,1.12-.7,.4-.21,.82-.37,1.27-.49s.91-.18,1.39-.18v1.58c-.48,0-.95,.05-1.42,.16-.46,.1-.9,.24-1.32,.4s-.8,.34-1.14,.53c-.34,.19-.64,.37-.88,.53v7.63h1.94v1.42h-5.28v-1.42h1.66v-9.17h-1.66v-1.42Z"/><path class="cls-7" d="M266.71,68.45v-1.58c-.67-.16-1.29-.25-1.86-.28-.57-.02-1-.04-1.31-.04-.62,0-1.12,.08-1.49,.23s-.64,.33-.82,.53c-.18,.2-.29,.4-.34,.61s-.07,.36-.07,.46c0,.22,.04,.44,.11,.65s.21,.4,.42,.58c.21,.18,.5,.34,.88,.5s.87,.3,1.48,.43c.66,.14,1.27,.3,1.84,.47,.57,.17,1.06,.39,1.46,.66,.41,.27,.73,.6,.96,1,.23,.39,.35,.88,.35,1.45,0,1.15-.36,2.03-1.09,2.64-.73,.61-1.8,.91-3.2,.91-.91,0-1.8-.04-2.65-.13-.86-.09-1.64-.22-2.36-.4v-2.74h1.42v1.58c.7,.16,1.37,.25,1.99,.28,.62,.02,1.1,.04,1.42,.04,.64,0,1.15-.09,1.52-.26s.66-.38,.85-.6c.19-.22,.31-.45,.36-.68,.05-.23,.07-.41,.07-.54,0-.22-.04-.44-.12-.64s-.23-.39-.46-.56c-.22-.18-.53-.34-.92-.49-.39-.15-.9-.29-1.52-.42-.61-.11-1.18-.25-1.73-.42s-1.02-.39-1.43-.67c-.41-.28-.73-.63-.96-1.04-.23-.42-.35-.93-.35-1.54,0-1.07,.37-1.88,1.1-2.42,.74-.54,1.8-.82,3.19-.82,.91,0,1.74,.04,2.48,.13s1.48,.22,2.2,.4v2.74h-1.42Z"/><path class="cls-7" d="M275.78,77.67c-.98,0-1.8-.15-2.48-.46-.68-.3-1.24-.73-1.67-1.28-.43-.55-.74-1.21-.94-1.97s-.29-1.6-.29-2.53,.1-1.77,.29-2.53c.19-.76,.5-1.42,.94-1.97,.43-.55,.99-.98,1.67-1.28,.68-.3,1.51-.46,2.48-.46s1.8,.15,2.48,.46c.68,.3,1.24,.73,1.67,1.28,.43,.55,.74,1.21,.94,1.97,.19,.76,.29,1.6,.29,2.53s-.1,1.77-.29,2.53c-.19,.76-.5,1.42-.94,1.97-.43,.55-.99,.98-1.67,1.28-.68,.3-1.51,.46-2.48,.46Zm0-11.06c-.7,0-1.28,.13-1.74,.38s-.82,.6-1.1,1.03c-.28,.43-.48,.94-.59,1.52-.11,.58-.17,1.21-.17,1.88s.06,1.3,.17,1.88c.11,.58,.31,1.09,.59,1.52,.28,.43,.65,.78,1.1,1.03s1.04,.38,1.74,.38,1.26-.13,1.73-.38c.46-.26,.84-.6,1.12-1.03,.28-.43,.48-.94,.59-1.52,.11-.58,.17-1.21,.17-1.88s-.06-1.3-.17-1.88c-.11-.58-.31-1.09-.59-1.52-.28-.43-.65-.78-1.12-1.03-.46-.26-1.04-.38-1.73-.38Z"/><path class="cls-7" d="M290.88,76.01h1.56v-6.53c0-.83-.19-1.52-.58-2.06s-1.07-.82-2.06-.82c-.4,0-.78,.06-1.15,.17-.37,.11-.72,.25-1.04,.41-.33,.16-.63,.33-.9,.52s-.5,.36-.7,.52v7.8h1.56v1.42h-4.9v-1.42h1.66v-9.17h-1.66v-1.42h3.34v1.75h.05c.61-.59,1.28-1.07,2.03-1.44s1.56-.55,2.44-.55c1.2,0,2.1,.34,2.7,1.01,.6,.67,.9,1.65,.9,2.93v6.89h1.63v1.42h-4.87v-1.42Z"/><path class="cls-7" d="M297.96,68.45v-2.78c.8-.16,1.58-.28,2.35-.36,.77-.08,1.47-.12,2.11-.12,.69,0,1.3,.06,1.84,.18s.99,.33,1.36,.64,.64,.71,.83,1.21c.18,.5,.28,1.14,.28,1.91v6.89h1.63v1.42h-3.31v-1.2h-.05c-.56,.46-1.12,.81-1.67,1.03s-1.18,.35-1.88,.38c-.56,.03-1.09,0-1.6-.11-.5-.1-.96-.3-1.36-.58-.4-.28-.72-.65-.95-1.12-.23-.46-.35-1.04-.35-1.73s.14-1.28,.43-1.74,.66-.82,1.13-1.08,1-.45,1.61-.55c.61-.1,1.22-.16,1.85-.16h2.83v-1.37c0-.88-.22-1.54-.67-1.97s-1.22-.65-2.3-.65c-.32,0-.7,.02-1.13,.05-.43,.03-.95,.1-1.56,.22v1.58h-1.42Zm7.08,3.19h-2.59c-1.33,0-2.26,.21-2.8,.62-.54,.42-.8,1.02-.8,1.8,0,.69,.25,1.24,.74,1.66,.5,.42,1.2,.62,2.11,.62,.8,0,1.48-.13,2.04-.4,.56-.26,.99-.52,1.3-.76v-3.55Z"/><path class="cls-7" d="M317.71,68.45v-1.58c-.67-.16-1.29-.25-1.86-.28-.57-.02-1-.04-1.31-.04-.62,0-1.12,.08-1.49,.23s-.64,.33-.82,.53c-.18,.2-.29,.4-.34,.61s-.07,.36-.07,.46c0,.22,.04,.44,.11,.65,.07,.21,.21,.4,.42,.58,.21,.18,.5,.34,.88,.5,.38,.16,.87,.3,1.48,.43,.66,.14,1.27,.3,1.84,.47s1.06,.39,1.46,.66c.41,.27,.73,.6,.96,1,.23,.39,.35,.88,.35,1.45,0,1.15-.36,2.03-1.09,2.64-.73,.61-1.8,.91-3.2,.91-.91,0-1.8-.04-2.65-.13-.86-.09-1.64-.22-2.36-.4v-2.74h1.42v1.58c.7,.16,1.37,.25,1.99,.28,.62,.02,1.1,.04,1.42,.04,.64,0,1.15-.09,1.52-.26,.38-.18,.66-.38,.85-.6,.19-.22,.31-.45,.36-.68,.05-.23,.07-.41,.07-.54,0-.22-.04-.44-.12-.64-.08-.2-.23-.39-.46-.56-.22-.18-.53-.34-.92-.49-.39-.15-.9-.29-1.52-.42-.61-.11-1.18-.25-1.73-.42s-1.02-.39-1.43-.67c-.41-.28-.73-.63-.96-1.04-.23-.42-.35-.93-.35-1.54,0-1.07,.37-1.88,1.1-2.42s1.8-.82,3.19-.82c.91,0,1.74,.04,2.48,.13,.74,.09,1.48,.22,2.2,.4v2.74h-1.42Z"/></g><g><path class="cls-1" d="M79.7,192.26c0,1.16-.39,2.05-1.18,2.67s-1.92,.93-3.39,.93h-1.34v4.49h-1.33v-11.42h2.96c2.85,0,4.28,1.11,4.28,3.33Zm-5.91,2.46h1.2c1.18,0,2.03-.19,2.55-.57,.53-.38,.79-.99,.79-1.83,0-.75-.25-1.32-.74-1.69-.5-.37-1.27-.55-2.31-.55h-1.48v4.64Z"/><path class="cls-1" d="M89.28,196.07c0,1.4-.35,2.49-1.05,3.27s-1.67,1.18-2.91,1.18c-.77,0-1.45-.18-2.04-.54s-1.05-.88-1.38-1.55c-.32-.67-.48-1.46-.48-2.36,0-1.4,.35-2.48,1.05-3.26,.7-.78,1.67-1.17,2.91-1.17s2.15,.4,2.86,1.2c.71,.8,1.06,1.88,1.06,3.23Zm-6.52,0c0,1.09,.22,1.93,.66,2.5s1.08,.86,1.93,.86,1.49-.29,1.93-.86c.44-.57,.66-1.41,.66-2.5s-.22-1.92-.66-2.48c-.44-.57-1.09-.85-1.95-.85s-1.49,.28-1.92,.84c-.43,.56-.65,1.39-.65,2.49Z"/><path class="cls-1" d="M95.46,191.64c.38,0,.72,.03,1.02,.09l-.18,1.2c-.35-.08-.67-.12-.94-.12-.69,0-1.29,.28-1.78,.84s-.74,1.26-.74,2.1v4.59h-1.3v-8.56h1.07l.15,1.59h.06c.32-.56,.7-.99,1.15-1.29,.45-.3,.94-.45,1.48-.45Z"/><path class="cls-1" d="M106.1,192.8h-2.18v7.55h-1.3v-7.55h-1.53v-.59l1.53-.47v-.48c0-2.1,.92-3.16,2.76-3.16,.45,0,.98,.09,1.59,.27l-.34,1.04c-.5-.16-.93-.24-1.28-.24-.49,0-.85,.16-1.09,.49s-.35,.85-.35,1.57v.55h2.18v1.01Z"/><path class="cls-1" d="M112.93,200.36l-.26-1.22h-.06c-.43,.54-.85,.9-1.28,1.09-.42,.19-.95,.29-1.59,.29-.85,0-1.51-.22-2-.66-.48-.44-.72-1.06-.72-1.87,0-1.73,1.38-2.64,4.15-2.72l1.45-.05v-.53c0-.67-.14-1.17-.43-1.49s-.75-.48-1.39-.48c-.71,0-1.52,.22-2.42,.66l-.4-.99c.42-.23,.88-.41,1.39-.54,.5-.13,1.01-.2,1.51-.2,1.02,0,1.78,.23,2.27,.68s.74,1.18,.74,2.18v5.84h-.96Zm-2.93-.91c.81,0,1.44-.22,1.9-.66s.69-1.06,.69-1.86v-.77l-1.3,.05c-1.03,.04-1.77,.2-2.23,.48-.46,.28-.68,.73-.68,1.32,0,.47,.14,.83,.43,1.07,.28,.25,.68,.37,1.19,.37Z"/><path class="cls-1" d="M118.44,200.36l-3.25-8.56h1.39l1.84,5.08c.42,1.19,.66,1.96,.73,2.31h.06c.06-.28,.24-.85,.54-1.71s.99-2.76,2.05-5.68h1.39l-3.25,8.56h-1.52Z"/><path class="cls-1" d="M131.97,196.07c0,1.4-.35,2.49-1.05,3.27s-1.67,1.18-2.91,1.18c-.77,0-1.45-.18-2.04-.54s-1.05-.88-1.38-1.55c-.32-.67-.48-1.46-.48-2.36,0-1.4,.35-2.48,1.05-3.26,.7-.78,1.67-1.17,2.91-1.17s2.15,.4,2.86,1.2c.71,.8,1.06,1.88,1.06,3.23Zm-6.52,0c0,1.09,.22,1.93,.66,2.5s1.08,.86,1.93,.86,1.49-.29,1.93-.86c.44-.57,.66-1.41,.66-2.5s-.22-1.92-.66-2.48c-.44-.57-1.09-.85-1.95-.85s-1.49,.28-1.92,.84c-.43,.56-.65,1.39-.65,2.49Z"/><path class="cls-1" d="M138.15,191.64c.38,0,.72,.03,1.02,.09l-.18,1.2c-.35-.08-.67-.12-.94-.12-.69,0-1.29,.28-1.78,.84s-.74,1.26-.74,2.1v4.59h-1.3v-8.56h1.07l.15,1.59h.06c.32-.56,.7-.99,1.15-1.29,.45-.3,.94-.45,1.48-.45Z"/><path class="cls-1" d="M148.55,200.51c-1.27,0-2.26-.39-3-1.16-.73-.77-1.1-1.84-1.1-3.21s.34-2.48,1.02-3.29,1.59-1.22,2.74-1.22c1.07,0,1.92,.35,2.55,1.06s.94,1.64,.94,2.79v.82h-5.9c.03,1,.28,1.77,.76,2.29,.48,.52,1.16,.78,2.04,.78,.92,0,1.83-.19,2.73-.58v1.16c-.46,.2-.89,.34-1.3,.43-.41,.09-.9,.13-1.48,.13Zm-.35-7.79c-.69,0-1.24,.22-1.64,.67-.41,.45-.65,1.07-.72,1.86h4.48c0-.82-.18-1.44-.55-1.88-.36-.43-.89-.65-1.56-.65Z"/><path class="cls-1" d="M159.43,198.02c0,.8-.3,1.41-.89,1.84s-1.43,.65-2.5,.65c-1.14,0-2.02-.18-2.66-.54v-1.2c.41,.21,.85,.37,1.32,.49,.47,.12,.93,.18,1.36,.18,.68,0,1.2-.11,1.56-.32,.36-.22,.55-.55,.55-.99,0-.33-.14-.62-.43-.86s-.85-.52-1.69-.84c-.8-.3-1.36-.56-1.7-.78s-.59-.47-.75-.75-.25-.62-.25-1.01c0-.7,.28-1.25,.85-1.65,.57-.4,1.35-.61,2.34-.61,.92,0,1.82,.19,2.7,.56l-.46,1.05c-.86-.35-1.64-.53-2.34-.53-.61,0-1.08,.1-1.39,.29s-.47,.46-.47,.8c0,.23,.06,.42,.18,.59s.31,.32,.57,.46c.26,.15,.76,.36,1.5,.63,1.02,.37,1.7,.74,2.06,1.12,.36,.38,.54,.85,.54,1.41Z"/><path class="cls-1" d="M165.52,200.51c-.56,0-1.07-.1-1.53-.31-.46-.21-.85-.52-1.16-.95h-.09c.06,.5,.09,.97,.09,1.42v3.52h-1.3v-12.41h1.05l.18,1.17h.06c.33-.47,.72-.81,1.16-1.02,.44-.21,.95-.31,1.52-.31,1.14,0,2.01,.39,2.63,1.16s.93,1.86,.93,3.27-.31,2.5-.94,3.28c-.63,.78-1.5,1.17-2.61,1.17Zm-.19-7.77c-.88,0-1.51,.24-1.9,.73s-.59,1.25-.6,2.31v.29c0,1.2,.2,2.06,.6,2.58,.4,.52,1.04,.78,1.93,.78,.74,0,1.32-.3,1.74-.9,.42-.6,.63-1.42,.63-2.48s-.21-1.89-.63-2.46c-.42-.57-1.01-.86-1.77-.86Z"/><path class="cls-1" d="M174.96,200.51c-1.27,0-2.26-.39-3-1.16-.73-.77-1.1-1.84-1.1-3.21s.34-2.48,1.02-3.29,1.59-1.22,2.74-1.22c1.07,0,1.92,.35,2.55,1.06s.94,1.64,.94,2.79v.82h-5.9c.03,1,.28,1.77,.76,2.29,.48,.52,1.16,.78,2.04,.78,.92,0,1.83-.19,2.73-.58v1.16c-.46,.2-.89,.34-1.3,.43-.41,.09-.9,.13-1.48,.13Zm-.35-7.79c-.69,0-1.24,.22-1.64,.67-.41,.45-.65,1.07-.72,1.86h4.48c0-.82-.18-1.44-.55-1.88-.36-.43-.89-.65-1.56-.65Z"/><path class="cls-1" d="M184.23,191.64c.38,0,.72,.03,1.02,.09l-.18,1.2c-.35-.08-.67-.12-.94-.12-.69,0-1.29,.28-1.78,.84s-.74,1.26-.74,2.1v4.59h-1.3v-8.56h1.07l.15,1.59h.06c.32-.56,.7-.99,1.15-1.29,.45-.3,.94-.45,1.48-.45Z"/><path class="cls-1" d="M192.12,200.36l-.26-1.22h-.06c-.43,.54-.85,.9-1.28,1.09-.42,.19-.95,.29-1.59,.29-.85,0-1.51-.22-2-.66-.48-.44-.72-1.06-.72-1.87,0-1.73,1.38-2.64,4.15-2.72l1.45-.05v-.53c0-.67-.14-1.17-.43-1.49s-.75-.48-1.39-.48c-.71,0-1.52,.22-2.42,.66l-.4-.99c.42-.23,.88-.41,1.39-.54,.5-.13,1.01-.2,1.51-.2,1.02,0,1.78,.23,2.27,.68s.74,1.18,.74,2.18v5.84h-.96Zm-2.93-.91c.81,0,1.44-.22,1.9-.66s.69-1.06,.69-1.86v-.77l-1.3,.05c-1.03,.04-1.77,.2-2.23,.48-.46,.28-.68,.73-.68,1.32,0,.47,.14,.83,.43,1.07,.28,.25,.68,.37,1.19,.37Z"/><path class="cls-1" d="M210.82,200.36v-5.57c0-.68-.15-1.19-.44-1.54-.29-.34-.75-.51-1.36-.51-.81,0-1.4,.23-1.79,.7-.39,.46-.58,1.18-.58,2.14v4.78h-1.3v-5.57c0-.68-.15-1.19-.44-1.54-.29-.34-.75-.51-1.37-.51-.81,0-1.41,.24-1.79,.73-.38,.49-.57,1.29-.57,2.39v4.49h-1.3v-8.56h1.05l.21,1.17h.06c.24-.42,.59-.74,1.04-.98s.94-.35,1.5-.35c1.34,0,2.21,.48,2.62,1.45h.06c.25-.45,.62-.8,1.11-1.06s1.04-.39,1.66-.39c.97,0,1.69,.25,2.18,.75,.48,.5,.72,1.29,.72,2.39v5.59h-1.3Z"/><path class="cls-1" d="M214.68,189.47c0-.3,.07-.51,.22-.65s.33-.21,.55-.21,.39,.07,.54,.21,.23,.36,.23,.65-.08,.51-.23,.65-.33,.21-.54,.21c-.22,0-.4-.07-.55-.21s-.22-.36-.22-.65Zm1.41,10.88h-1.3v-8.56h1.3v8.56Z"/><path class="cls-1" d="M222.45,200.51c-1.27,0-2.26-.39-3-1.16s-1.1-1.84-1.1-3.21,.34-2.48,1.02-3.29,1.59-1.22,2.74-1.22c1.07,0,1.92,.35,2.55,1.06s.94,1.64,.94,2.79v.82h-5.9c.03,1,.28,1.77,.76,2.29s1.16,.78,2.04,.78c.92,0,1.83-.19,2.73-.58v1.16c-.46,.2-.89,.34-1.3,.43s-.9,.13-1.48,.13Zm-.35-7.79c-.69,0-1.24,.22-1.64,.67s-.65,1.07-.72,1.86h4.48c0-.82-.18-1.44-.55-1.88s-.89-.65-1.56-.65Z"/><path class="cls-1" d="M233.67,200.36v-5.54c0-.7-.16-1.22-.48-1.56s-.82-.52-1.49-.52c-.9,0-1.55,.24-1.97,.73s-.62,1.28-.62,2.4v4.49h-1.3v-8.56h1.05l.21,1.17h.06c.27-.42,.64-.75,1.12-.98s1.01-.35,1.6-.35c1.03,0,1.81,.25,2.33,.75s.78,1.29,.78,2.39v5.59h-1.3Z"/><path class="cls-1" d="M240.4,199.44c.23,0,.45-.02,.66-.05s.38-.07,.51-.11v.99c-.14,.07-.35,.12-.62,.17-.27,.04-.52,.07-.74,.07-1.66,0-2.48-.87-2.48-2.62v-5.09h-1.23v-.62l1.23-.54,.55-1.83h.75v1.98h2.48v1.01h-2.48v5.04c0,.52,.12,.91,.37,1.19s.58,.41,1.01,.41Z"/><path class="cls-1" d="M247.19,191.64c.38,0,.72,.03,1.02,.09l-.18,1.2c-.35-.08-.67-.12-.94-.12-.69,0-1.29,.28-1.78,.84s-.74,1.26-.74,2.1v4.59h-1.3v-8.56h1.07l.15,1.59h.06c.32-.56,.7-.99,1.15-1.29s.94-.45,1.48-.45Z"/><path class="cls-1" d="M255.08,200.36l-.26-1.22h-.06c-.43,.54-.85,.9-1.28,1.09-.42,.19-.95,.29-1.59,.29-.85,0-1.51-.22-2-.66s-.72-1.06-.72-1.87c0-1.73,1.38-2.64,4.15-2.72l1.45-.05v-.53c0-.67-.14-1.17-.43-1.49s-.75-.48-1.39-.48c-.71,0-1.52,.22-2.42,.66l-.4-.99c.42-.23,.88-.41,1.39-.54s1.01-.2,1.51-.2c1.02,0,1.78,.23,2.27,.68s.74,1.18,.74,2.18v5.84h-.96Zm-2.93-.91c.81,0,1.44-.22,1.9-.66s.69-1.06,.69-1.86v-.77l-1.3,.05c-1.03,.04-1.77,.2-2.23,.48s-.68,.73-.68,1.32c0,.47,.14,.83,.43,1.07s.68,.37,1.19,.37Z"/><path class="cls-1" d="M264.24,198.02c0,.8-.3,1.41-.89,1.84s-1.43,.65-2.5,.65c-1.14,0-2.02-.18-2.66-.54v-1.2c.41,.21,.85,.37,1.32,.49s.93,.18,1.36,.18c.68,0,1.2-.11,1.56-.32s.55-.55,.55-.99c0-.33-.14-.62-.43-.86s-.85-.52-1.69-.84c-.8-.3-1.36-.56-1.7-.78s-.59-.47-.75-.75-.25-.62-.25-1.01c0-.7,.28-1.25,.85-1.65s1.35-.61,2.34-.61c.92,0,1.82,.19,2.7,.56l-.46,1.05c-.86-.35-1.64-.53-2.34-.53-.61,0-1.08,.1-1.39,.29s-.47,.46-.47,.8c0,.23,.06,.42,.18,.59s.31,.32,.57,.46,.76,.36,1.5,.63c1.02,.37,1.7,.74,2.06,1.12s.54,.85,.54,1.41Z"/><path class="cls-1" d="M272.38,200.36l-3.25-8.56h1.39l1.84,5.08c.42,1.19,.66,1.96,.73,2.31h.06c.06-.28,.24-.85,.54-1.71s.99-2.76,2.05-5.68h1.39l-3.25,8.56h-1.52Z"/><path class="cls-1" d="M283.78,200.36l-.26-1.22h-.06c-.43,.54-.85,.9-1.28,1.09-.42,.19-.95,.29-1.59,.29-.85,0-1.51-.22-2-.66s-.72-1.06-.72-1.87c0-1.73,1.38-2.64,4.15-2.72l1.45-.05v-.53c0-.67-.14-1.17-.43-1.49s-.75-.48-1.39-.48c-.71,0-1.52,.22-2.42,.66l-.4-.99c.42-.23,.88-.41,1.39-.54s1.01-.2,1.51-.2c1.02,0,1.78,.23,2.27,.68s.74,1.18,.74,2.18v5.84h-.96Zm-2.93-.91c.81,0,1.44-.22,1.9-.66s.69-1.06,.69-1.86v-.77l-1.3,.05c-1.03,.04-1.77,.2-2.23,.48s-.68,.73-.68,1.32c0,.47,.14,.83,.43,1.07s.68,.37,1.19,.37Z"/><path class="cls-1" d="M288.71,200.36h-1.3v-12.16h1.3v12.16Z"/><path class="cls-1" d="M291.35,189.47c0-.3,.07-.51,.22-.65s.33-.21,.55-.21,.39,.07,.54,.21,.23,.36,.23,.65-.08,.51-.23,.65-.33,.21-.54,.21c-.22,0-.4-.07-.55-.21s-.22-.36-.22-.65Zm1.41,10.88h-1.3v-8.56h1.3v8.56Z"/><path class="cls-1" d="M301.34,199.21h-.07c-.6,.87-1.5,1.3-2.69,1.3-1.12,0-1.99-.38-2.61-1.15s-.93-1.85-.93-3.27,.31-2.51,.94-3.29,1.5-1.17,2.61-1.17,2.05,.42,2.67,1.27h.1l-.05-.62-.03-.6v-3.48h1.3v12.16h-1.05l-.17-1.15Zm-2.59,.22c.89,0,1.53-.24,1.93-.72s.6-1.26,.6-2.33v-.27c0-1.21-.2-2.08-.61-2.6s-1.05-.78-1.93-.78c-.76,0-1.34,.3-1.75,.89s-.61,1.43-.61,2.5,.2,1.92,.6,2.48,.99,.84,1.77,.84Z"/><path class="cls-1" d="M310.58,200.36l-.26-1.22h-.06c-.43,.54-.85,.9-1.28,1.09-.42,.19-.95,.29-1.59,.29-.85,0-1.51-.22-2-.66s-.72-1.06-.72-1.87c0-1.73,1.38-2.64,4.15-2.72l1.45-.05v-.53c0-.67-.14-1.17-.43-1.49s-.75-.48-1.39-.48c-.71,0-1.52,.22-2.42,.66l-.4-.99c.42-.23,.88-.41,1.39-.54s1.01-.2,1.51-.2c1.02,0,1.78,.23,2.27,.68s.74,1.18,.74,2.18v5.84h-.96Zm-2.93-.91c.81,0,1.44-.22,1.9-.66s.69-1.06,.69-1.86v-.77l-1.3,.05c-1.03,.04-1.77,.2-2.23,.48s-.68,.73-.68,1.32c0,.47,.14,.83,.43,1.07s.68,.37,1.19,.37Z"/><path class="cls-1" d="M325.13,200.36v-5.57c0-.68-.15-1.19-.44-1.54s-.75-.51-1.36-.51c-.81,0-1.4,.23-1.79,.7s-.58,1.18-.58,2.14v4.78h-1.3v-5.57c0-.68-.15-1.19-.44-1.54s-.75-.51-1.37-.51c-.81,0-1.41,.24-1.79,.73s-.57,1.29-.57,2.39v4.49h-1.3v-8.56h1.05l.21,1.17h.06c.25-.42,.59-.74,1.04-.98s.94-.35,1.5-.35c1.34,0,2.21,.48,2.62,1.45h.06c.25-.45,.62-.8,1.11-1.06s1.04-.39,1.66-.39c.97,0,1.69,.25,2.18,.75s.72,1.29,.72,2.39v5.59h-1.3Z"/><path class="cls-1" d="M336.49,196.07c0,1.4-.35,2.49-1.05,3.27s-1.67,1.18-2.91,1.18c-.77,0-1.45-.18-2.04-.54s-1.05-.88-1.38-1.55-.48-1.46-.48-2.36c0-1.4,.35-2.48,1.05-3.26s1.67-1.17,2.91-1.17,2.15,.4,2.86,1.2,1.06,1.88,1.06,3.23Zm-6.52,0c0,1.09,.22,1.93,.66,2.5s1.08,.86,1.93,.86,1.49-.29,1.93-.86,.66-1.41,.66-2.5-.22-1.92-.66-2.48-1.09-.85-1.95-.85-1.49,.28-1.92,.84-.65,1.39-.65,2.49Z"/><path class="cls-1" d="M344.28,198.02c0,.8-.3,1.41-.89,1.84s-1.43,.65-2.5,.65c-1.14,0-2.02-.18-2.66-.54v-1.2c.41,.21,.85,.37,1.32,.49s.93,.18,1.36,.18c.68,0,1.2-.11,1.56-.32s.55-.55,.55-.99c0-.33-.14-.62-.43-.86s-.85-.52-1.69-.84c-.8-.3-1.36-.56-1.7-.78s-.59-.47-.75-.75-.25-.62-.25-1.01c0-.7,.28-1.25,.85-1.65s1.35-.61,2.34-.61c.92,0,1.82,.19,2.7,.56l-.46,1.05c-.86-.35-1.64-.53-2.34-.53-.61,0-1.08,.1-1.39,.29s-.47,.46-.47,.8c0,.23,.06,.42,.18,.59s.31,.32,.57,.46,.76,.36,1.5,.63c1.02,.37,1.7,.74,2.06,1.12s.54,.85,.54,1.41Z"/><path class="cls-1" d="M157.07,218.64c.23,0,.45-.02,.66-.05,.21-.03,.38-.07,.51-.11v.99c-.14,.07-.35,.12-.62,.17-.27,.04-.52,.07-.74,.07-1.66,0-2.48-.87-2.48-2.62v-5.09h-1.23v-.62l1.23-.54,.55-1.83h.75v1.98h2.48v1.01h-2.48v5.04c0,.52,.12,.91,.37,1.19,.24,.28,.58,.41,1.01,.41Z"/><path class="cls-1" d="M161.17,211v5.55c0,.7,.16,1.22,.48,1.56,.32,.34,.81,.52,1.49,.52,.9,0,1.55-.25,1.96-.73s.62-1.29,.62-2.4v-4.5h1.3v8.56h-1.07l-.19-1.15h-.07c-.27,.42-.63,.75-1.11,.97-.47,.22-1.01,.34-1.61,.34-1.04,0-1.82-.25-2.34-.74-.52-.5-.78-1.29-.78-2.38v-5.6h1.31Z"/><path class="cls-1" d="M173.82,208.67c0-.3,.07-.51,.22-.65,.15-.14,.33-.21,.55-.21s.39,.07,.54,.21c.15,.14,.23,.36,.23,.65s-.08,.51-.23,.65c-.15,.14-.33,.21-.54,.21-.22,0-.4-.07-.55-.21-.15-.14-.22-.36-.22-.65Zm1.41,10.88h-1.3v-8.56h1.3v8.56Z"/><path class="cls-1" d="M183.84,219.56v-5.54c0-.7-.16-1.22-.48-1.56-.32-.34-.82-.52-1.49-.52-.9,0-1.55,.24-1.97,.73-.42,.48-.62,1.28-.62,2.4v4.49h-1.3v-8.56h1.05l.21,1.17h.06c.27-.42,.64-.75,1.12-.98,.48-.23,1.01-.35,1.6-.35,1.03,0,1.81,.25,2.33,.75,.52,.5,.78,1.29,.78,2.39v5.59h-1.3Z"/><path class="cls-1" d="M191.66,212h-2.18v7.55h-1.3v-7.55h-1.53v-.59l1.53-.47v-.48c0-2.1,.92-3.16,2.76-3.16,.45,0,.98,.09,1.59,.27l-.34,1.04c-.5-.16-.93-.24-1.28-.24-.49,0-.85,.16-1.09,.49s-.35,.85-.35,1.57v.55h2.18v1.01Z"/><path class="cls-1" d="M200.61,215.27c0,1.4-.35,2.49-1.05,3.27s-1.67,1.18-2.91,1.18c-.77,0-1.45-.18-2.04-.54s-1.05-.88-1.38-1.55c-.32-.67-.48-1.46-.48-2.36,0-1.4,.35-2.48,1.05-3.26,.7-.78,1.67-1.17,2.91-1.17s2.15,.4,2.86,1.2c.71,.8,1.06,1.88,1.06,3.23Zm-6.52,0c0,1.09,.22,1.93,.66,2.5s1.08,.86,1.93,.86,1.49-.29,1.93-.86c.44-.57,.66-1.41,.66-2.5s-.22-1.92-.66-2.48c-.44-.57-1.09-.85-1.95-.85s-1.49,.28-1.92,.84c-.43,.56-.65,1.39-.65,2.49Z"/><path class="cls-1" d="M206.79,210.84c.38,0,.72,.03,1.02,.09l-.18,1.2c-.35-.08-.67-.12-.94-.12-.69,0-1.29,.28-1.78,.84s-.74,1.26-.74,2.1v4.59h-1.3v-8.56h1.07l.15,1.59h.06c.32-.56,.7-.99,1.15-1.29,.45-.3,.94-.45,1.48-.45Z"/><path class="cls-1" d="M220.33,219.56v-5.57c0-.68-.15-1.19-.44-1.54s-.75-.51-1.36-.51c-.81,0-1.4,.23-1.79,.7s-.58,1.18-.58,2.14v4.78h-1.3v-5.57c0-.68-.15-1.19-.44-1.54s-.75-.51-1.37-.51c-.81,0-1.41,.24-1.79,.73s-.57,1.29-.57,2.39v4.49h-1.3v-8.56h1.05l.21,1.17h.06c.24-.42,.59-.74,1.04-.98s.94-.35,1.5-.35c1.34,0,2.21,.48,2.62,1.45h.06c.25-.45,.62-.8,1.11-1.06s1.04-.39,1.66-.39c.97,0,1.69,.25,2.18,.75s.72,1.29,.72,2.39v5.59h-1.3Z"/><path class="cls-1" d="M229.56,219.56l-.26-1.22h-.06c-.43,.54-.85,.9-1.28,1.09-.42,.19-.95,.29-1.59,.29-.85,0-1.51-.22-2-.66s-.72-1.06-.72-1.87c0-1.73,1.38-2.64,4.15-2.72l1.45-.05v-.53c0-.67-.14-1.17-.43-1.49s-.75-.48-1.39-.48c-.71,0-1.52,.22-2.42,.66l-.4-.99c.42-.23,.88-.41,1.39-.54s1.01-.2,1.51-.2c1.02,0,1.78,.23,2.27,.68s.74,1.18,.74,2.18v5.84h-.96Zm-2.93-.91c.81,0,1.44-.22,1.9-.66s.69-1.06,.69-1.86v-.77l-1.3,.05c-1.03,.04-1.77,.2-2.23,.48s-.68,.73-.68,1.32c0,.47,.14,.83,.43,1.07s.68,.37,1.19,.37Z"/><path class="cls-1" d="M236.62,219.71c-1.24,0-2.2-.38-2.88-1.14s-1.02-1.84-1.02-3.24,.34-2.54,1.04-3.32,1.67-1.17,2.95-1.17c.41,0,.82,.04,1.23,.13s.73,.19,.97,.31l-.4,1.1c-.29-.11-.6-.21-.94-.29s-.64-.11-.9-.11c-1.74,0-2.61,1.11-2.61,3.33,0,1.05,.21,1.86,.64,2.42s1.05,.84,1.89,.84c.71,0,1.45-.15,2.2-.46v1.15c-.57,.3-1.29,.45-2.16,.45Z"/><path class="cls-1" d="M240.7,208.67c0-.3,.07-.51,.22-.65s.33-.21,.55-.21,.39,.07,.54,.21,.23,.36,.23,.65-.08,.51-.23,.65-.33,.21-.54,.21c-.22,0-.4-.07-.55-.21s-.22-.36-.22-.65Zm1.41,10.88h-1.3v-8.56h1.3v8.56Z"/><path class="cls-1" d="M252.25,215.27c0,1.4-.35,2.49-1.05,3.27s-1.67,1.18-2.91,1.18c-.77,0-1.45-.18-2.04-.54s-1.05-.88-1.38-1.55-.48-1.46-.48-2.36c0-1.4,.35-2.48,1.05-3.26s1.67-1.17,2.91-1.17,2.15,.4,2.86,1.2,1.06,1.88,1.06,3.23Zm-6.52,0c0,1.09,.22,1.93,.66,2.5s1.08,.86,1.93,.86,1.49-.29,1.93-.86,.66-1.41,.66-2.5-.22-1.92-.66-2.48-1.09-.85-1.95-.85-1.49,.28-1.92,.84-.65,1.39-.65,2.49Zm1.5-5.6c.25-.32,.52-.71,.81-1.17s.52-.86,.68-1.2h1.58v.16c-.23,.34-.57,.75-1.02,1.25s-.85,.88-1.18,1.15h-.87v-.2Z"/><path class="cls-1" d="M260.38,219.56v-5.54c0-.7-.16-1.22-.48-1.56s-.82-.52-1.49-.52c-.9,0-1.55,.24-1.97,.73s-.62,1.28-.62,2.4v4.49h-1.3v-8.56h1.05l.21,1.17h.06c.27-.42,.64-.75,1.12-.98s1.01-.35,1.6-.35c1.03,0,1.81,.25,2.33,.75s.78,1.29,.78,2.39v5.59h-1.3Z"/></g><g><path class="cls-5" d="M57.66,470.96v1.34h-.58v-.75h-1.47v5.62h.69v.59h-2.12v-.59h.69v-5.62h-1.47v.75h-.59v-1.34h4.85Z"/><path class="cls-5" d="M58.04,475.35c0,.28,.04,.54,.11,.78,.07,.24,.17,.44,.31,.61,.14,.17,.33,.3,.56,.4,.23,.09,.5,.14,.83,.14,.25,0,.51-.01,.76-.04s.52-.08,.8-.17l.09,.57c-.3,.09-.58,.14-.85,.17s-.57,.04-.9,.04c-.45,0-.83-.06-1.15-.19-.31-.13-.56-.31-.75-.54-.19-.23-.33-.5-.42-.82-.09-.32-.13-.67-.13-1.05s.04-.74,.12-1.06c.08-.32,.22-.59,.41-.82,.19-.23,.44-.41,.74-.54,.3-.13,.67-.19,1.11-.19,.52,0,.92,.09,1.2,.28,.28,.18,.48,.41,.59,.68,.12,.27,.17,.57,.17,.88,0,.31-.03,.6-.09,.86h-3.53Zm1.61-2.14c-.29,0-.53,.04-.73,.13-.2,.09-.36,.21-.48,.36-.12,.15-.22,.33-.28,.54s-.1,.42-.12,.66h2.85c.04-.19,.05-.39,.04-.59-.01-.2-.06-.38-.15-.54-.09-.16-.23-.29-.41-.4-.18-.1-.42-.15-.73-.15Zm.32-1.05h-.4l.63-1.4h.62l-.85,1.4Z"/><path class="cls-5" d="M62.31,472.76h1.39v.8h.02c.11-.11,.24-.22,.39-.33,.14-.11,.3-.2,.46-.29s.34-.16,.53-.21c.19-.05,.38-.08,.58-.08v.66c-.2,0-.4,.02-.59,.07-.19,.04-.38,.1-.55,.17-.17,.07-.33,.14-.48,.22-.14,.08-.27,.15-.37,.22v3.18h.81v.59h-2.2v-.59h.69v-3.82h-.69v-.59Z"/><path class="cls-5" d="M69.54,477.17h.65v-2.75c0-.17-.02-.32-.06-.47-.04-.14-.1-.27-.19-.37-.09-.1-.2-.19-.34-.25-.14-.06-.31-.09-.51-.09-.15,0-.29,.02-.42,.06-.13,.04-.26,.1-.38,.17s-.23,.14-.33,.22-.19,.15-.27,.22v3.25h.65v.59h-2.04v-.59h.69v-3.82h-.69v-.59h1.39v.73h.02c.09-.09,.19-.19,.3-.28,.11-.09,.22-.18,.35-.26,.13-.08,.26-.14,.4-.19,.14-.05,.29-.08,.46-.08,.09,0,.17,0,.25,0,.08,0,.16,.01,.24,.02,.53,.07,.88,.35,1.05,.86,.23-.25,.5-.46,.81-.63,.31-.18,.64-.27,1-.27,.5,0,.88,.14,1.12,.42,.25,.28,.38,.69,.38,1.22v2.87h.68v.59h-2.03v-.59h.65v-2.72c0-.35-.08-.63-.25-.86s-.45-.34-.85-.34c-.15,0-.29,.02-.42,.07-.14,.05-.27,.1-.39,.17-.12,.07-.23,.14-.33,.23-.1,.08-.19,.16-.27,.22,.02,.14,.03,.3,.03,.48v2.75h.65v.59h-2v-.59Z"/><path class="cls-5" d="M75.21,472.76h1.39v4.41h.69v.59h-2.08v-.59h.69v-3.82h-.69v-.59Zm1.39-2v1.19h-.7v-1.19h.7Z"/><path class="cls-5" d="M81.15,477.17h.65v-2.72c0-.35-.08-.63-.24-.86-.16-.23-.45-.34-.86-.34-.17,0-.33,.02-.48,.07-.15,.05-.3,.1-.44,.17-.14,.07-.26,.14-.38,.21-.11,.08-.21,.15-.29,.22v3.25h.65v.59h-2.04v-.59h.69v-3.82h-.69v-.59h1.39v.73h.02c.25-.25,.54-.45,.85-.6s.65-.23,1.02-.23c.5,0,.88,.14,1.12,.42,.25,.28,.38,.69,.38,1.22v2.87h.68v.59h-2.03v-.59Z"/><path class="cls-5" d="M85.96,477.86c-.41,0-.75-.06-1.04-.19-.28-.13-.51-.31-.69-.54-.18-.23-.31-.5-.39-.82s-.12-.67-.12-1.05,.04-.74,.12-1.06c.08-.32,.21-.59,.39-.82,.18-.23,.41-.41,.69-.54s.63-.19,1.04-.19,.75,.06,1.04,.19c.28,.13,.51,.3,.69,.54,.18,.23,.31,.5,.39,.82,.08,.32,.12,.67,.12,1.06s-.04,.74-.12,1.05-.21,.59-.39,.82c-.18,.23-.41,.41-.69,.54-.28,.13-.63,.19-1.04,.19Zm0-4.61c-.29,0-.54,.05-.73,.16-.19,.11-.34,.25-.46,.43-.12,.18-.2,.39-.25,.63-.05,.24-.07,.5-.07,.79s.02,.54,.07,.79c.05,.24,.13,.46,.25,.63s.27,.32,.46,.43,.43,.16,.73,.16,.53-.05,.72-.16c.19-.11,.35-.25,.46-.43s.2-.39,.25-.63c.05-.24,.07-.51,.07-.79s-.02-.54-.07-.79c-.05-.24-.13-.46-.25-.63-.12-.18-.27-.32-.46-.43-.19-.11-.43-.16-.72-.16Z"/><path class="cls-5" d="M92.28,474.02v-.66c-.28-.07-.54-.1-.77-.12-.24,0-.42-.01-.54-.01-.26,0-.47,.03-.62,.09-.15,.06-.27,.14-.34,.22-.07,.08-.12,.17-.14,.25s-.03,.15-.03,.19c0,.09,.01,.18,.04,.27,.03,.09,.09,.17,.17,.24,.09,.07,.21,.14,.37,.21,.16,.07,.36,.13,.61,.18,.27,.06,.53,.12,.77,.2,.24,.07,.44,.16,.61,.27s.3,.25,.4,.42,.15,.37,.15,.61c0,.48-.15,.85-.46,1.1-.3,.25-.75,.38-1.33,.38-.38,0-.75-.02-1.1-.05-.36-.04-.69-.09-.98-.17v-1.14h.59v.66c.29,.07,.57,.11,.83,.12,.26,0,.46,.01,.59,.01,.27,0,.48-.04,.63-.11s.27-.16,.35-.25,.13-.19,.15-.29,.03-.17,.03-.22c0-.09-.02-.18-.05-.27-.03-.08-.1-.16-.19-.23s-.22-.14-.38-.21c-.16-.06-.38-.12-.64-.18-.25-.05-.49-.1-.72-.17-.23-.07-.43-.16-.6-.28-.17-.12-.3-.26-.4-.44-.1-.17-.15-.39-.15-.64,0-.45,.15-.78,.46-1.01s.75-.34,1.33-.34c.38,0,.73,.02,1.04,.06,.31,.04,.61,.09,.91,.17v1.14h-.59Z"/><path class="cls-5" d="M98.51,470.76h1.39v6.41h.68v.59h-1.38v-.5h-.02c-.19,.17-.43,.32-.71,.43-.28,.11-.58,.17-.9,.17-.35,0-.65-.07-.89-.2-.24-.13-.43-.32-.57-.55-.14-.23-.25-.51-.31-.83-.06-.32-.1-.66-.1-1.02s.03-.71,.1-1.03c.07-.32,.18-.59,.33-.83s.34-.42,.58-.55c.24-.13,.54-.2,.89-.2,.3,0,.59,.05,.86,.16s.51,.25,.7,.42h.02v-1.89h-.69v-.59Zm-2.05,4.5c0,.27,.02,.53,.06,.77s.12,.45,.23,.64c.11,.19,.25,.33,.42,.44s.4,.16,.68,.16c.15,0,.3-.02,.44-.05,.14-.03,.26-.07,.38-.12s.22-.1,.31-.16c.09-.06,.17-.11,.23-.16v-3.06c-.06-.05-.14-.1-.23-.16-.09-.06-.19-.11-.31-.15-.12-.05-.24-.09-.38-.12-.14-.03-.28-.05-.44-.05-.27,0-.5,.05-.68,.16-.18,.11-.32,.26-.42,.44-.11,.18-.18,.4-.23,.64-.04,.24-.06,.5-.06,.77Z"/><path class="cls-5" d="M101.86,475.35c0,.28,.04,.54,.11,.78,.07,.24,.17,.44,.31,.61,.14,.17,.33,.3,.56,.4,.23,.09,.5,.14,.83,.14,.25,0,.51-.01,.76-.04s.52-.08,.8-.17l.09,.57c-.3,.09-.58,.14-.85,.17s-.57,.04-.9,.04c-.45,0-.83-.06-1.15-.19-.31-.13-.56-.31-.75-.54-.19-.23-.33-.5-.42-.82-.09-.32-.13-.67-.13-1.05s.04-.74,.12-1.06c.08-.32,.22-.59,.41-.82,.19-.23,.44-.41,.74-.54,.3-.13,.67-.19,1.11-.19,.52,0,.92,.09,1.2,.28,.28,.18,.48,.41,.59,.68,.12,.27,.17,.57,.17,.88,0,.31-.03,.6-.09,.86h-3.53Zm1.61-2.14c-.29,0-.53,.04-.73,.13-.2,.09-.36,.21-.48,.36-.12,.15-.22,.33-.28,.54s-.1,.42-.12,.66h2.85c.04-.19,.05-.39,.04-.59-.01-.2-.06-.38-.15-.54-.09-.16-.23-.29-.41-.4-.18-.1-.42-.15-.73-.15Z"/><path class="cls-5" d="M107.93,472.76h1.39v3.31c0,.17,.02,.33,.06,.48s.1,.27,.19,.38c.09,.11,.2,.19,.34,.25,.14,.06,.31,.09,.52,.09,.17,0,.33-.02,.48-.07,.15-.05,.3-.1,.44-.17,.14-.07,.26-.14,.38-.21,.11-.08,.21-.15,.29-.21v-3.25h-.88v-.59h1.58v4.41h.68v.59h-1.38v-.72h-.02c-.25,.24-.54,.44-.85,.59-.31,.15-.65,.23-1.01,.23-.5,0-.88-.14-1.12-.42-.25-.28-.38-.68-.38-1.22v-2.87h-.69v-.59Z"/><path class="cls-5" d="M117.28,474.02v-.66c-.28-.07-.54-.1-.77-.12-.24,0-.42-.01-.54-.01-.26,0-.47,.03-.62,.09-.15,.06-.27,.14-.34,.22-.07,.08-.12,.17-.14,.25s-.03,.15-.03,.19c0,.09,.01,.18,.04,.27,.03,.09,.09,.17,.17,.24,.09,.07,.21,.14,.37,.21,.16,.07,.36,.13,.61,.18,.27,.06,.53,.12,.77,.2,.24,.07,.44,.16,.61,.27s.3,.25,.4,.42,.15,.37,.15,.61c0,.48-.15,.85-.46,1.1-.3,.25-.75,.38-1.33,.38-.38,0-.75-.02-1.1-.05-.36-.04-.69-.09-.98-.17v-1.14h.59v.66c.29,.07,.57,.11,.83,.12,.26,0,.46,.01,.59,.01,.27,0,.48-.04,.63-.11s.27-.16,.35-.25,.13-.19,.15-.29,.03-.17,.03-.22c0-.09-.02-.18-.05-.27-.03-.08-.1-.16-.19-.23s-.22-.14-.38-.21c-.16-.06-.38-.12-.64-.18-.25-.05-.49-.1-.72-.17-.23-.07-.43-.16-.6-.28-.17-.12-.3-.26-.4-.44-.1-.17-.15-.39-.15-.64,0-.45,.15-.78,.46-1.01s.75-.34,1.33-.34c.38,0,.73,.02,1.04,.06,.31,.04,.61,.09,.91,.17v1.14h-.59Z"/><path class="cls-5" d="M121.06,477.86c-.41,0-.75-.06-1.04-.19-.28-.13-.51-.31-.69-.54-.18-.23-.31-.5-.39-.82s-.12-.67-.12-1.05,.04-.74,.12-1.06c.08-.32,.21-.59,.39-.82,.18-.23,.41-.41,.69-.54s.63-.19,1.04-.19,.75,.06,1.04,.19c.28,.13,.51,.3,.69,.54,.18,.23,.31,.5,.39,.82,.08,.32,.12,.67,.12,1.06s-.04,.74-.12,1.05-.21,.59-.39,.82c-.18,.23-.41,.41-.69,.54-.28,.13-.63,.19-1.04,.19Zm0-4.61c-.29,0-.54,.05-.73,.16-.19,.11-.34,.25-.46,.43-.12,.18-.2,.39-.25,.63-.05,.24-.07,.5-.07,.79s.02,.54,.07,.79c.05,.24,.13,.46,.25,.63s.27,.32,.46,.43,.43,.16,.73,.16,.53-.05,.72-.16c.19-.11,.35-.25,.46-.43s.2-.39,.25-.63c.05-.24,.07-.51,.07-.79s-.02-.54-.07-.79c-.05-.24-.13-.46-.25-.63-.12-.18-.27-.32-.46-.43-.19-.11-.43-.16-.72-.16Z"/><path class="cls-4" d="M125.91,474.36c0-.49,.09-.94,.28-1.37,.18-.43,.43-.8,.75-1.11,.32-.31,.69-.56,1.12-.75,.43-.18,.88-.28,1.37-.28s.95,.09,1.38,.28c.43,.18,.81,.43,1.12,.75,.32,.31,.57,.68,.76,1.11,.18,.43,.27,.88,.27,1.37s-.09,.94-.27,1.37c-.18,.43-.44,.8-.76,1.11-.32,.31-.69,.56-1.12,.75-.43,.18-.89,.27-1.38,.27s-.94-.09-1.37-.27c-.43-.18-.8-.43-1.12-.75-.32-.31-.57-.68-.75-1.11-.18-.43-.28-.88-.28-1.37Zm.34,0c0,.44,.08,.85,.25,1.24,.17,.39,.39,.72,.68,1.01,.29,.29,.62,.51,1.01,.68,.39,.17,.8,.25,1.24,.25s.85-.08,1.24-.25c.39-.17,.73-.39,1.02-.68,.29-.29,.52-.62,.68-1.01,.17-.39,.25-.8,.25-1.24s-.08-.85-.25-1.23c-.17-.38-.39-.72-.68-1-.29-.28-.63-.51-1.02-.68-.39-.17-.8-.25-1.24-.25s-.85,.08-1.24,.25c-.39,.17-.72,.39-1.01,.68-.29,.28-.51,.62-.68,1-.17,.38-.25,.79-.25,1.23Zm3.23-1.37c-.42,0-.72,.12-.91,.35s-.28,.56-.28,.98c0,.45,.09,.8,.28,1.05,.19,.25,.49,.38,.91,.38,.17,0,.34-.02,.51-.07,.18-.04,.35-.12,.53-.24l.17,.33c-.12,.08-.28,.16-.48,.24-.2,.08-.45,.12-.75,.12-.54,0-.95-.16-1.23-.47-.28-.31-.42-.76-.42-1.35,0-.55,.14-.98,.42-1.27,.28-.3,.69-.45,1.23-.45,.3,0,.55,.04,.75,.12,.2,.08,.36,.16,.48,.24l-.16,.35c-.17-.11-.35-.2-.53-.25-.18-.05-.35-.08-.52-.08Z"/><path class="cls-4" d="M139.88,476.42v1.34h-4.41v-.69c.75-.5,1.34-.96,1.79-1.37,.45-.41,.8-.79,1.04-1.11,.24-.33,.4-.62,.48-.88,.08-.26,.12-.48,.12-.67,0-.34-.06-.61-.17-.81-.11-.2-.25-.36-.41-.46s-.33-.17-.5-.21-.31-.05-.42-.05c-.21,0-.43,.02-.64,.06s-.45,.12-.71,.25v.68h-.59v-1.13c.17-.08,.34-.15,.5-.21,.16-.06,.33-.11,.5-.16,.17-.04,.34-.08,.51-.1s.37-.04,.58-.04c.36,0,.67,.05,.94,.16,.26,.11,.48,.25,.65,.44s.3,.4,.38,.64,.12,.5,.12,.76c0,.7-.26,1.39-.78,2.08-.52,.69-1.32,1.41-2.4,2.17v.02h2.83v-.72h.58Z"/><path class="cls-4" d="M143.11,477.86c-.47,0-.85-.09-1.16-.29-.3-.19-.54-.45-.71-.77s-.29-.7-.36-1.13c-.07-.43-.11-.89-.11-1.37s.04-.92,.11-1.33c.07-.42,.19-.78,.36-1.09s.41-.56,.71-.75,.69-.28,1.16-.28,.85,.09,1.15,.28,.54,.43,.72,.75c.17,.31,.29,.68,.36,1.09s.1,.86,.1,1.33-.04,.93-.1,1.37c-.07,.43-.19,.81-.36,1.13-.17,.32-.41,.58-.72,.77-.3,.19-.69,.29-1.15,.29Zm0-6.41c-.33,0-.59,.08-.8,.24s-.37,.37-.49,.63-.2,.57-.25,.92-.06,.71-.06,1.08,.02,.74,.06,1.09c.04,.36,.12,.67,.25,.95s.28,.5,.49,.67,.47,.25,.8,.25,.59-.08,.8-.25,.37-.39,.49-.67c.12-.28,.2-.59,.24-.95,.04-.36,.07-.72,.07-1.09s-.02-.73-.07-1.08c-.04-.35-.12-.65-.24-.92-.12-.26-.28-.47-.49-.63s-.47-.24-.8-.24Z"/><path class="cls-4" d="M150.78,476.42v1.34h-4.41v-.69c.75-.5,1.34-.96,1.79-1.37,.45-.41,.8-.79,1.04-1.11,.24-.33,.4-.62,.48-.88,.08-.26,.12-.48,.12-.67,0-.34-.06-.61-.17-.81-.11-.2-.25-.36-.41-.46s-.33-.17-.5-.21-.31-.05-.42-.05c-.21,0-.43,.02-.64,.06s-.45,.12-.71,.25v.68h-.59v-1.13c.17-.08,.34-.15,.5-.21,.16-.06,.33-.11,.5-.16,.17-.04,.34-.08,.51-.1s.37-.04,.58-.04c.36,0,.67,.05,.94,.16,.26,.11,.48,.25,.65,.44s.3,.4,.38,.64,.12,.5,.12,.76c0,.7-.26,1.39-.78,2.08-.52,.69-1.32,1.41-2.4,2.17v.02h2.83v-.72h.58Z"/><path class="cls-4" d="M156.08,476.42v1.34h-4.41v-.69c.75-.5,1.34-.96,1.79-1.37,.45-.41,.8-.79,1.04-1.11,.24-.33,.4-.62,.48-.88,.08-.26,.12-.48,.12-.67,0-.34-.06-.61-.17-.81-.11-.2-.25-.36-.41-.46s-.33-.17-.5-.21-.31-.05-.42-.05c-.21,0-.43,.02-.64,.06s-.45,.12-.71,.25v.68h-.59v-1.13c.17-.08,.34-.15,.5-.21,.16-.06,.33-.11,.5-.16,.17-.04,.34-.08,.51-.1s.37-.04,.58-.04c.36,0,.67,.05,.94,.16,.26,.11,.48,.25,.65,.44s.3,.4,.38,.64,.12,.5,.12,.76c0,.7-.26,1.39-.78,2.08-.52,.69-1.32,1.41-2.4,2.17v.02h2.83v-.72h.58Z"/><path class="cls-4" d="M162.8,474.29c.44,.09,.77,.29,1,.58,.23,.29,.35,.65,.35,1.08,0,.56-.17,1-.5,1.33-.33,.32-.83,.49-1.49,.49h-3.58v-.59h.69v-5.62h-.69v-.59h3.38c.66,0,1.16,.16,1.49,.47s.5,.73,.5,1.25c0,.4-.1,.74-.29,1.01-.2,.28-.48,.47-.85,.58v.02Zm.37-1.52c0-.36-.11-.65-.33-.88s-.54-.34-.96-.34h-1.87v2.45h1.87c.42,0,.74-.11,.96-.32s.33-.51,.33-.92Zm-3.16,1.82v2.58h2.04c.42,0,.75-.11,.98-.33,.23-.22,.34-.54,.34-.96,0-.39-.12-.71-.36-.94-.24-.23-.6-.35-1.08-.35h-1.91Z"/><path class="cls-4" d="M165.22,474.02v-1.16c.33-.07,.66-.12,.98-.15,.32-.03,.61-.05,.88-.05,.29,0,.54,.03,.77,.08,.22,.05,.41,.14,.56,.27,.15,.13,.27,.29,.35,.5,.08,.21,.11,.47,.11,.79v2.87h.68v.59h-1.38v-.5h-.02c-.23,.19-.47,.34-.7,.43-.23,.09-.49,.15-.78,.16-.23,.01-.46,0-.67-.04-.21-.04-.4-.12-.57-.24-.17-.12-.3-.27-.39-.46-.1-.19-.15-.43-.15-.72s.06-.54,.18-.73c.12-.19,.28-.34,.47-.45,.19-.11,.42-.19,.67-.23s.51-.07,.77-.07h1.18v-.57c0-.37-.09-.64-.28-.82s-.51-.27-.96-.27c-.13,0-.29,0-.47,.02-.18,.01-.4,.04-.65,.09v.66h-.59Zm2.95,1.33h-1.08c-.55,0-.94,.09-1.17,.26-.22,.17-.33,.42-.33,.75,0,.29,.1,.52,.31,.69,.21,.17,.5,.26,.88,.26,.33,0,.62-.05,.85-.17,.23-.11,.41-.21,.54-.32v-1.48Z"/><path class="cls-4" d="M173.42,477.17h.65v-2.72c0-.35-.08-.63-.24-.86-.16-.23-.45-.34-.86-.34-.17,0-.33,.02-.48,.07-.15,.05-.3,.1-.44,.17-.14,.07-.26,.14-.38,.21-.11,.08-.21,.15-.29,.22v3.25h.65v.59h-2.04v-.59h.69v-3.82h-.69v-.59h1.39v.73h.02c.25-.25,.54-.45,.85-.6s.65-.23,1.02-.23c.5,0,.88,.14,1.12,.42,.25,.28,.38,.69,.38,1.22v2.87h.68v.59h-2.03v-.59Z"/><path class="cls-4" d="M179.47,474.02v-.66c-.25-.05-.47-.08-.65-.09-.18,0-.33-.01-.44-.01-.3,0-.55,.05-.76,.15-.21,.1-.38,.24-.51,.42-.13,.18-.23,.39-.29,.64-.06,.25-.09,.51-.09,.8s.03,.55,.09,.8,.16,.46,.29,.64c.13,.18,.3,.32,.51,.42,.21,.1,.46,.15,.76,.15,.17,0,.38,0,.6-.03,.23-.02,.54-.07,.94-.17l.13,.57c-.3,.07-.57,.13-.82,.17-.25,.04-.53,.05-.85,.05-.44,0-.81-.06-1.12-.19-.31-.13-.55-.31-.74-.54-.19-.23-.32-.5-.41-.82-.08-.32-.12-.67-.12-1.05s.04-.74,.12-1.06c.08-.32,.22-.59,.41-.82,.19-.23,.43-.41,.74-.54s.68-.19,1.12-.19c.31,0,.6,.02,.85,.06,.25,.04,.52,.09,.82,.17v1.14h-.58Z"/><path class="cls-4" d="M183.05,477.86c-.41,0-.75-.06-1.04-.19-.28-.13-.51-.31-.69-.54-.18-.23-.31-.5-.39-.82s-.12-.67-.12-1.05,.04-.74,.12-1.06c.08-.32,.21-.59,.39-.82,.18-.23,.41-.41,.69-.54s.63-.19,1.04-.19,.75,.06,1.04,.19c.28,.13,.51,.3,.69,.54,.18,.23,.31,.5,.39,.82,.08,.32,.12,.67,.12,1.06s-.04,.74-.12,1.05-.21,.59-.39,.82c-.18,.23-.41,.41-.69,.54-.28,.13-.63,.19-1.04,.19Zm0-4.61c-.29,0-.54,.05-.73,.16-.19,.11-.34,.25-.46,.43-.12,.18-.2,.39-.25,.63-.05,.24-.07,.5-.07,.79s.02,.54,.07,.79c.05,.24,.13,.46,.25,.63s.27,.32,.46,.43,.43,.16,.73,.16,.53-.05,.72-.16c.19-.11,.35-.25,.46-.43s.2-.39,.25-.63c.05-.24,.07-.51,.07-.79s-.02-.54-.07-.79c-.05-.24-.13-.46-.25-.63-.12-.18-.27-.32-.46-.43-.19-.11-.43-.16-.72-.16Z"/><path class="cls-4" d="M191.26,470.96c.33,0,.62,.05,.87,.14s.47,.23,.64,.4,.3,.37,.39,.61c.09,.24,.13,.5,.13,.79,0,.61-.17,1.08-.52,1.42-.35,.34-.85,.52-1.51,.52h-2.01v2.33h.69v.59h-2.12v-.59h.69v-5.62h-.69v-.59h3.44Zm-2.01,3.29h1.94c.42,0,.75-.12,.99-.35,.24-.23,.35-.56,.35-1,0-.41-.12-.74-.35-.99-.24-.24-.57-.36-.99-.36h-1.94v2.7Z"/><path class="cls-4" d="M193.92,472.76h1.39v4.41h.69v.59h-2.08v-.59h.69v-3.82h-.69v-.59Zm1.39-2v1.19h-.7v-1.19h.7Z"/><path class="cls-4" d="M200.01,474.02v-.66c-.25-.05-.47-.08-.65-.09-.18,0-.33-.01-.44-.01-.3,0-.55,.05-.76,.15-.21,.1-.38,.24-.51,.42-.13,.18-.23,.39-.29,.64-.06,.25-.09,.51-.09,.8s.03,.55,.09,.8,.16,.46,.29,.64c.13,.18,.3,.32,.51,.42,.21,.1,.46,.15,.76,.15,.17,0,.38,0,.6-.03,.23-.02,.54-.07,.94-.17l.13,.57c-.3,.07-.57,.13-.82,.17-.25,.04-.53,.05-.85,.05-.44,0-.81-.06-1.12-.19-.31-.13-.55-.31-.74-.54-.19-.23-.32-.5-.41-.82-.08-.32-.12-.67-.12-1.05s.04-.74,.12-1.06c.08-.32,.22-.59,.41-.82,.19-.23,.43-.41,.74-.54s.68-.19,1.12-.19c.31,0,.6,.02,.85,.06,.25,.04,.52,.09,.82,.17v1.14h-.58Z"/><path class="cls-4" d="M204.58,477.17h.65v-2.72c0-.35-.08-.63-.24-.86-.16-.23-.45-.34-.86-.34-.17,0-.33,.02-.48,.07-.15,.05-.3,.1-.44,.17-.14,.07-.26,.14-.38,.21-.11,.08-.21,.15-.29,.22v3.25h.65v.59h-2.04v-.59h.69v-5.82h-.69v-.59h1.39v2.73h.02c.25-.25,.54-.45,.85-.6s.65-.23,1.02-.23c.5,0,.88,.14,1.12,.42,.25,.28,.38,.69,.38,1.22v2.87h.68v.59h-2.03v-.59Z"/><path class="cls-4" d="M207.06,472.76h1.39v4.41h.69v.59h-2.08v-.59h.69v-3.82h-.69v-.59Zm1.39-2v1.19h-.7v-1.19h.7Z"/><path class="cls-4" d="M213,477.17h.65v-2.72c0-.35-.08-.63-.24-.86-.16-.23-.45-.34-.86-.34-.17,0-.33,.02-.48,.07-.15,.05-.3,.1-.43,.17-.14,.07-.26,.14-.38,.21-.11,.08-.21,.15-.29,.22v3.25h.65v.59h-2.04v-.59h.69v-3.82h-.69v-.59h1.39v.73h.02c.25-.25,.53-.45,.85-.6,.31-.15,.65-.23,1.01-.23,.5,0,.88,.14,1.12,.42,.25,.28,.38,.69,.38,1.22v2.87h.68v.59h-2.03v-.59Z"/><path class="cls-4" d="M219.05,474.02v-.66c-.25-.05-.47-.08-.65-.09s-.33-.01-.44-.01c-.3,0-.55,.05-.76,.15-.21,.1-.38,.24-.51,.42-.13,.18-.23,.39-.29,.64-.06,.25-.09,.51-.09,.8s.03,.55,.09,.8c.06,.25,.16,.46,.29,.64,.13,.18,.3,.32,.51,.42,.21,.1,.46,.15,.76,.15,.17,0,.38,0,.61-.03,.23-.02,.54-.07,.93-.17l.13,.57c-.3,.07-.57,.13-.82,.17-.25,.04-.53,.05-.85,.05-.44,0-.81-.06-1.12-.19-.31-.13-.55-.31-.74-.54-.19-.23-.32-.5-.41-.82s-.12-.67-.12-1.05,.04-.74,.12-1.06c.08-.32,.22-.59,.41-.82,.19-.23,.43-.41,.74-.54s.68-.19,1.12-.19c.31,0,.6,.02,.85,.06,.25,.04,.52,.09,.82,.17v1.14h-.58Z"/><path class="cls-4" d="M223.62,477.17h.65v-2.72c0-.35-.08-.63-.24-.86s-.45-.34-.86-.34c-.17,0-.33,.02-.48,.07-.15,.05-.3,.1-.44,.17-.14,.07-.26,.14-.38,.21-.11,.08-.21,.15-.29,.22v3.25h.65v.59h-2.04v-.59h.69v-5.82h-.69v-.59h1.39v2.73h.02c.25-.25,.54-.45,.84-.6,.31-.15,.65-.23,1.02-.23,.5,0,.88,.14,1.12,.42,.25,.28,.38,.69,.38,1.22v2.87h.68v.59h-2.03v-.59Z"/><path class="cls-4" d="M226.57,474.02v-1.16c.33-.07,.66-.12,.98-.15,.32-.03,.61-.05,.88-.05,.29,0,.54,.03,.76,.08s.41,.14,.57,.27c.15,.13,.27,.29,.34,.5,.08,.21,.12,.47,.12,.79v2.87h.68v.59h-1.38v-.5h-.02c-.23,.19-.47,.34-.7,.43-.23,.09-.49,.15-.79,.16-.23,.01-.46,0-.67-.04-.21-.04-.4-.12-.57-.24-.17-.12-.3-.27-.39-.46s-.14-.43-.14-.72,.06-.54,.18-.73c.12-.19,.28-.34,.47-.45,.19-.11,.42-.19,.67-.23,.25-.04,.51-.07,.77-.07h1.18v-.57c0-.37-.09-.64-.28-.82s-.51-.27-.96-.27c-.13,0-.29,0-.47,.02s-.4,.04-.65,.09v.66h-.59Zm2.95,1.33h-1.08c-.55,0-.94,.09-1.17,.26-.22,.17-.33,.42-.33,.75,0,.29,.1,.52,.31,.69,.21,.17,.5,.26,.88,.26,.33,0,.62-.05,.85-.17s.41-.21,.54-.32v-1.48Z"/><path class="cls-4" d="M232.44,476.54v1.22h-.7v-1.22h.7Z"/><path class="cls-4" d="M240.17,470.96v1.34h-.58v-.75h-1.47v5.62h.69v.59h-2.12v-.59h.69v-5.62h-1.47v.75h-.59v-1.34h4.85Z"/><path class="cls-4" d="M242.05,477.86c-.41,0-.75-.06-1.04-.19-.28-.13-.51-.31-.69-.54-.18-.23-.31-.5-.39-.82s-.12-.67-.12-1.05,.04-.74,.12-1.06c.08-.32,.21-.59,.39-.82,.18-.23,.41-.41,.69-.54s.63-.19,1.04-.19,.75,.06,1.04,.19,.51,.3,.7,.54c.18,.23,.31,.5,.39,.82,.08,.32,.12,.67,.12,1.06s-.04,.74-.12,1.05-.21,.59-.39,.82c-.18,.23-.41,.41-.7,.54-.28,.13-.63,.19-1.04,.19Zm0-4.61c-.29,0-.54,.05-.72,.16-.19,.11-.34,.25-.46,.43-.12,.18-.2,.39-.25,.63s-.07,.5-.07,.79,.02,.54,.07,.79c.05,.24,.13,.46,.25,.63,.12,.18,.27,.32,.46,.43,.19,.11,.43,.16,.72,.16s.53-.05,.72-.16c.19-.11,.35-.25,.46-.43,.12-.18,.2-.39,.25-.63,.05-.24,.07-.51,.07-.79s-.02-.54-.07-.79c-.05-.24-.13-.46-.25-.63-.12-.18-.27-.32-.46-.43-.19-.11-.43-.16-.72-.16Z"/><path class="cls-4" d="M248.1,470.76h1.39v6.41h.68v.59h-1.38v-.5h-.02c-.19,.17-.43,.32-.71,.43-.28,.11-.58,.17-.9,.17-.35,0-.65-.07-.88-.2-.24-.13-.43-.32-.57-.55s-.25-.51-.31-.83c-.06-.32-.1-.66-.1-1.02s.03-.71,.1-1.03,.17-.59,.33-.83c.15-.23,.34-.42,.58-.55,.24-.13,.54-.2,.89-.2,.3,0,.59,.05,.86,.16s.51,.25,.7,.42h.02v-1.89h-.69v-.59Zm-2.05,4.5c0,.27,.02,.53,.07,.77,.04,.24,.12,.45,.22,.64s.25,.33,.42,.44,.4,.16,.68,.16c.15,0,.3-.02,.43-.05s.26-.07,.38-.12c.12-.05,.22-.1,.31-.16,.09-.06,.17-.11,.22-.16v-3.06c-.06-.05-.13-.1-.22-.16-.09-.06-.19-.11-.31-.15-.12-.05-.24-.09-.38-.12s-.28-.05-.43-.05c-.27,0-.5,.05-.68,.16-.18,.11-.32,.26-.42,.44s-.18,.4-.22,.64c-.04,.24-.07,.5-.07,.77Z"/><path class="cls-4" d="M252.95,477.86c-.41,0-.75-.06-1.04-.19-.28-.13-.51-.31-.7-.54-.18-.23-.31-.5-.39-.82s-.12-.67-.12-1.05,.04-.74,.12-1.06c.08-.32,.21-.59,.39-.82,.18-.23,.41-.41,.7-.54s.63-.19,1.04-.19,.75,.06,1.04,.19c.28,.13,.51,.3,.69,.54,.18,.23,.31,.5,.39,.82,.08,.32,.12,.67,.12,1.06s-.04,.74-.12,1.05-.21,.59-.39,.82c-.18,.23-.41,.41-.69,.54-.28,.13-.63,.19-1.04,.19Zm0-4.61c-.29,0-.54,.05-.73,.16-.19,.11-.34,.25-.46,.43-.12,.18-.2,.39-.25,.63-.05,.24-.07,.5-.07,.79s.02,.54,.07,.79c.05,.24,.13,.46,.25,.63,.12,.18,.27,.32,.46,.43,.19,.11,.43,.16,.73,.16s.53-.05,.72-.16,.35-.25,.46-.43c.12-.18,.2-.39,.25-.63,.05-.24,.07-.51,.07-.79s-.02-.54-.07-.79-.13-.46-.25-.63c-.12-.18-.27-.32-.46-.43-.19-.11-.43-.16-.72-.16Z"/><path class="cls-4" d="M259.27,474.02v-.66c-.28-.07-.54-.1-.77-.12-.24,0-.42-.01-.54-.01-.26,0-.47,.03-.62,.09-.15,.06-.27,.14-.34,.22-.07,.08-.12,.17-.14,.25-.02,.09-.03,.15-.03,.19,0,.09,.01,.18,.04,.27,.03,.09,.09,.17,.17,.24,.09,.07,.21,.14,.37,.21,.16,.07,.36,.13,.61,.18,.27,.06,.53,.12,.77,.2,.24,.07,.44,.16,.61,.27s.3,.25,.4,.42,.14,.37,.14,.61c0,.48-.15,.85-.46,1.1-.3,.25-.75,.38-1.33,.38-.38,0-.75-.02-1.1-.05-.36-.04-.69-.09-.99-.17v-1.14h.59v.66c.29,.07,.57,.11,.83,.12,.26,0,.46,.01,.59,.01,.27,0,.48-.04,.63-.11,.16-.07,.27-.16,.35-.25s.13-.19,.15-.29c.02-.1,.03-.17,.03-.22,0-.09-.02-.18-.05-.27-.03-.08-.1-.16-.19-.23-.09-.07-.22-.14-.38-.21-.16-.06-.38-.12-.64-.18-.25-.05-.49-.1-.72-.17-.23-.07-.42-.16-.59-.28-.17-.12-.3-.26-.4-.44-.1-.17-.14-.39-.14-.64,0-.45,.15-.78,.46-1.01s.75-.34,1.33-.34c.38,0,.72,.02,1.04,.06,.31,.04,.61,.09,.91,.17v1.14h-.59Z"/><path class="cls-4" d="M262.42,470.76h1.39v6.41h.69v.59h-2.08v-.59h.69v-5.82h-.69v-.59Z"/><path class="cls-4" d="M267.27,477.86c-.41,0-.75-.06-1.04-.19-.28-.13-.51-.31-.69-.54-.18-.23-.31-.5-.39-.82s-.12-.67-.12-1.05,.04-.74,.12-1.06c.08-.32,.21-.59,.39-.82,.18-.23,.41-.41,.69-.54s.63-.19,1.04-.19,.75,.06,1.04,.19,.51,.3,.7,.54c.18,.23,.31,.5,.39,.82,.08,.32,.12,.67,.12,1.06s-.04,.74-.12,1.05-.21,.59-.39,.82c-.18,.23-.41,.41-.7,.54-.28,.13-.63,.19-1.04,.19Zm0-4.61c-.29,0-.54,.05-.72,.16-.19,.11-.34,.25-.46,.43-.12,.18-.2,.39-.25,.63s-.07,.5-.07,.79,.02,.54,.07,.79c.05,.24,.13,.46,.25,.63,.12,.18,.27,.32,.46,.43,.19,.11,.43,.16,.72,.16s.53-.05,.72-.16c.19-.11,.35-.25,.46-.43,.12-.18,.2-.39,.25-.63,.05-.24,.07-.51,.07-.79s-.02-.54-.07-.79c-.05-.24-.13-.46-.25-.63-.12-.18-.27-.32-.46-.43-.19-.11-.43-.16-.72-.16Z"/><path class="cls-4" d="M273.59,474.02v-.66c-.28-.07-.54-.1-.78-.12-.24,0-.42-.01-.54-.01-.26,0-.47,.03-.62,.09-.15,.06-.27,.14-.34,.22-.07,.08-.12,.17-.14,.25-.02,.09-.03,.15-.03,.19,0,.09,.01,.18,.04,.27s.09,.17,.17,.24c.09,.07,.21,.14,.37,.21,.16,.07,.36,.13,.62,.18,.27,.06,.53,.12,.76,.2,.24,.07,.44,.16,.61,.27s.3,.25,.4,.42,.15,.37,.15,.61c0,.48-.15,.85-.46,1.1-.3,.25-.75,.38-1.33,.38-.38,0-.75-.02-1.11-.05-.36-.04-.68-.09-.98-.17v-1.14h.59v.66c.29,.07,.57,.11,.83,.12s.46,.01,.59,.01c.27,0,.48-.04,.63-.11,.16-.07,.28-.16,.36-.25s.13-.19,.15-.29c.02-.1,.03-.17,.03-.22,0-.09-.02-.18-.05-.27-.03-.08-.1-.16-.19-.23-.09-.07-.22-.14-.38-.21s-.38-.12-.63-.18c-.25-.05-.49-.1-.72-.17-.23-.07-.43-.16-.6-.28-.17-.12-.3-.26-.4-.44-.1-.17-.15-.39-.15-.64,0-.45,.15-.78,.46-1.01s.75-.34,1.33-.34c.38,0,.73,.02,1.04,.06,.31,.04,.62,.09,.92,.17v1.14h-.59Z"/><path class="cls-4" d="M279.82,470.76h1.39v6.41h.68v.59h-1.38v-.5h-.02c-.19,.17-.43,.32-.71,.43-.28,.11-.58,.17-.9,.17-.35,0-.65-.07-.88-.2-.24-.13-.43-.32-.57-.55s-.25-.51-.31-.83c-.06-.32-.1-.66-.1-1.02s.03-.71,.1-1.03,.17-.59,.33-.83c.15-.23,.34-.42,.58-.55,.24-.13,.54-.2,.89-.2,.3,0,.59,.05,.86,.16s.51,.25,.7,.42h.02v-1.89h-.69v-.59Zm-2.05,4.5c0,.27,.02,.53,.07,.77,.04,.24,.12,.45,.22,.64s.25,.33,.42,.44,.4,.16,.68,.16c.15,0,.3-.02,.43-.05s.26-.07,.38-.12c.12-.05,.22-.1,.31-.16,.09-.06,.17-.11,.22-.16v-3.06c-.06-.05-.13-.1-.22-.16-.09-.06-.19-.11-.31-.15-.12-.05-.24-.09-.38-.12s-.28-.05-.43-.05c-.27,0-.5,.05-.68,.16-.18,.11-.32,.26-.42,.44s-.18,.4-.22,.64c-.04,.24-.07,.5-.07,.77Z"/><path class="cls-4" d="M283.17,475.35c0,.28,.04,.54,.11,.78,.07,.24,.17,.44,.32,.61s.33,.3,.55,.4c.23,.09,.5,.14,.83,.14,.25,0,.51-.01,.76-.04,.25-.02,.52-.08,.8-.17l.09,.57c-.3,.09-.58,.14-.86,.17-.27,.03-.57,.04-.89,.04-.45,0-.83-.06-1.15-.19-.31-.13-.56-.31-.75-.54-.19-.23-.33-.5-.42-.82s-.13-.67-.13-1.05,.04-.74,.12-1.06c.08-.32,.22-.59,.41-.82,.19-.23,.44-.41,.74-.54,.3-.13,.67-.19,1.11-.19,.52,0,.92,.09,1.2,.28s.48,.41,.59,.68c.12,.27,.17,.57,.17,.88,0,.31-.03,.6-.09,.86h-3.53Zm1.61-2.14c-.29,0-.53,.04-.72,.13-.2,.09-.36,.21-.48,.36-.12,.15-.22,.33-.28,.54s-.11,.42-.12,.66h2.85c.04-.19,.05-.39,.04-.59s-.06-.38-.15-.54c-.09-.16-.23-.29-.41-.4-.18-.1-.42-.15-.73-.15Z"/><path class="cls-4" d="M287.44,472.76h1.39v.8h.02c.11-.11,.24-.22,.39-.33,.14-.11,.3-.2,.46-.29,.17-.09,.34-.16,.53-.21,.19-.05,.38-.08,.58-.08v.66c-.2,0-.4,.02-.59,.07-.19,.04-.38,.1-.55,.17-.17,.07-.33,.14-.47,.22-.14,.08-.27,.15-.37,.22v3.18h.81v.59h-2.2v-.59h.69v-3.82h-.69v-.59Z"/><path class="cls-4" d="M292.02,475.35c0,.28,.04,.54,.11,.78,.07,.24,.17,.44,.31,.61,.14,.17,.33,.3,.56,.4,.23,.09,.5,.14,.83,.14,.25,0,.51-.01,.76-.04,.25-.02,.52-.08,.8-.17l.09,.57c-.3,.09-.58,.14-.85,.17-.27,.03-.57,.04-.9,.04-.45,0-.83-.06-1.14-.19-.31-.13-.56-.31-.75-.54-.19-.23-.33-.5-.42-.82-.09-.32-.13-.67-.13-1.05s.04-.74,.12-1.06c.08-.32,.22-.59,.41-.82,.19-.23,.44-.41,.74-.54s.67-.19,1.12-.19c.52,0,.92,.09,1.2,.28,.28,.18,.48,.41,.59,.68,.12,.27,.17,.57,.17,.88,0,.31-.03,.6-.08,.86h-3.53Zm1.61-2.14c-.29,0-.53,.04-.73,.13-.2,.09-.36,.21-.48,.36s-.22,.33-.28,.54-.1,.42-.12,.66h2.85c.04-.19,.05-.39,.04-.59-.01-.2-.06-.38-.15-.54s-.23-.29-.41-.4c-.18-.1-.42-.15-.72-.15Z"/><path class="cls-4" d="M300.06,474.02v-.66c-.25-.05-.47-.08-.65-.09-.18,0-.33-.01-.44-.01-.3,0-.55,.05-.76,.15-.21,.1-.38,.24-.51,.42-.13,.18-.23,.39-.29,.64-.06,.25-.09,.51-.09,.8s.03,.55,.09,.8c.06,.25,.16,.46,.29,.64,.13,.18,.3,.32,.51,.42,.21,.1,.46,.15,.76,.15,.17,0,.38,0,.6-.03,.23-.02,.54-.07,.94-.17l.13,.57c-.3,.07-.58,.13-.83,.17-.25,.04-.53,.05-.84,.05-.44,0-.81-.06-1.12-.19-.31-.13-.55-.31-.74-.54-.19-.23-.32-.5-.41-.82-.08-.32-.12-.67-.12-1.05s.04-.74,.12-1.06c.08-.32,.22-.59,.41-.82,.19-.23,.43-.41,.74-.54s.68-.19,1.12-.19c.31,0,.59,.02,.84,.06,.25,.04,.53,.09,.83,.17v1.14h-.58Z"/><path class="cls-4" d="M304.63,477.17h.65v-2.72c0-.35-.08-.63-.24-.86-.16-.23-.45-.34-.86-.34-.17,0-.33,.02-.48,.07-.15,.05-.3,.1-.43,.17-.14,.07-.26,.14-.38,.21-.11,.08-.21,.15-.29,.22v3.25h.65v.59h-2.04v-.59h.69v-5.82h-.69v-.59h1.39v2.73h.02c.25-.25,.54-.45,.85-.6,.31-.15,.65-.23,1.01-.23,.5,0,.88,.14,1.12,.42,.25,.28,.38,.69,.38,1.22v2.87h.68v.59h-2.03v-.59Z"/><path class="cls-4" d="M309.44,477.86c-.41,0-.75-.06-1.04-.19-.28-.13-.51-.31-.69-.54-.18-.23-.31-.5-.39-.82s-.12-.67-.12-1.05,.04-.74,.12-1.06c.08-.32,.21-.59,.39-.82,.18-.23,.41-.41,.69-.54s.63-.19,1.04-.19,.75,.06,1.04,.19,.51,.3,.7,.54c.18,.23,.31,.5,.39,.82,.08,.32,.12,.67,.12,1.06s-.04,.74-.12,1.05-.21,.59-.39,.82c-.18,.23-.41,.41-.7,.54-.28,.13-.63,.19-1.04,.19Zm0-4.61c-.29,0-.54,.05-.72,.16-.19,.11-.34,.25-.46,.43-.12,.18-.2,.39-.25,.63s-.07,.5-.07,.79,.02,.54,.07,.79c.05,.24,.13,.46,.25,.63,.12,.18,.27,.32,.46,.43,.19,.11,.43,.16,.72,.16s.53-.05,.72-.16c.19-.11,.35-.25,.46-.43,.12-.18,.2-.39,.25-.63,.05-.24,.07-.51,.07-.79s-.02-.54-.07-.79c-.05-.24-.13-.46-.25-.63-.12-.18-.27-.32-.46-.43-.19-.11-.43-.16-.72-.16Z"/><path class="cls-4" d="M315.76,474.02v-.66c-.28-.07-.54-.1-.78-.12-.24,0-.42-.01-.54-.01-.26,0-.47,.03-.62,.09-.15,.06-.27,.14-.34,.22-.07,.08-.12,.17-.14,.25-.02,.09-.03,.15-.03,.19,0,.09,.01,.18,.04,.27s.09,.17,.17,.24c.09,.07,.21,.14,.37,.21,.16,.07,.36,.13,.62,.18,.27,.06,.53,.12,.76,.2,.24,.07,.44,.16,.61,.27s.3,.25,.4,.42,.15,.37,.15,.61c0,.48-.15,.85-.46,1.1-.3,.25-.75,.38-1.33,.38-.38,0-.75-.02-1.11-.05-.36-.04-.68-.09-.98-.17v-1.14h.59v.66c.29,.07,.57,.11,.83,.12s.46,.01,.59,.01c.27,0,.48-.04,.63-.11,.16-.07,.28-.16,.36-.25s.13-.19,.15-.29c.02-.1,.03-.17,.03-.22,0-.09-.02-.18-.05-.27-.03-.08-.1-.16-.19-.23-.09-.07-.22-.14-.38-.21s-.38-.12-.63-.18c-.25-.05-.49-.1-.72-.17-.23-.07-.43-.16-.6-.28-.17-.12-.3-.26-.4-.44-.1-.17-.15-.39-.15-.64,0-.45,.15-.78,.46-1.01s.75-.34,1.33-.34c.38,0,.73,.02,1.04,.06,.31,.04,.62,.09,.92,.17v1.14h-.59Z"/><path class="cls-4" d="M318.91,472.76h1.39v.8h.02c.11-.11,.24-.22,.39-.33,.14-.11,.3-.2,.46-.29,.17-.09,.34-.16,.53-.21,.19-.05,.38-.08,.58-.08v.66c-.2,0-.4,.02-.59,.07-.19,.04-.38,.1-.55,.17-.17,.07-.33,.14-.47,.22-.14,.08-.27,.15-.37,.22v3.18h.81v.59h-2.2v-.59h.69v-3.82h-.69v-.59Z"/><path class="cls-4" d="M323.49,475.35c0,.28,.04,.54,.11,.78,.07,.24,.17,.44,.31,.61,.14,.17,.33,.3,.56,.4,.23,.09,.5,.14,.83,.14,.25,0,.51-.01,.76-.04,.25-.02,.52-.08,.8-.17l.09,.57c-.3,.09-.58,.14-.85,.17-.27,.03-.57,.04-.9,.04-.45,0-.83-.06-1.14-.19-.31-.13-.56-.31-.75-.54-.19-.23-.33-.5-.42-.82-.09-.32-.13-.67-.13-1.05s.04-.74,.12-1.06c.08-.32,.22-.59,.41-.82,.19-.23,.44-.41,.74-.54s.67-.19,1.12-.19c.52,0,.92,.09,1.2,.28,.28,.18,.48,.41,.59,.68,.12,.27,.17,.57,.17,.88,0,.31-.03,.6-.08,.86h-3.53Zm1.61-2.14c-.29,0-.53,.04-.73,.13-.2,.09-.36,.21-.48,.36s-.22,.33-.28,.54-.1,.42-.12,.66h2.85c.04-.19,.05-.39,.04-.59-.01-.2-.06-.38-.15-.54s-.23-.29-.41-.4c-.18-.1-.42-.15-.72-.15Z"/><path class="cls-4" d="M331.21,474.02v-.66c-.28-.07-.54-.1-.77-.12-.24,0-.42-.01-.54-.01-.26,0-.47,.03-.62,.09-.15,.06-.27,.14-.34,.22-.07,.08-.12,.17-.14,.25-.02,.09-.03,.15-.03,.19,0,.09,.01,.18,.04,.27,.03,.09,.09,.17,.17,.24,.09,.07,.21,.14,.37,.21,.16,.07,.36,.13,.61,.18,.27,.06,.53,.12,.77,.2,.24,.07,.44,.16,.61,.27s.3,.25,.4,.42,.14,.37,.14,.61c0,.48-.15,.85-.46,1.1-.3,.25-.75,.38-1.33,.38-.38,0-.75-.02-1.1-.05-.36-.04-.69-.09-.99-.17v-1.14h.59v.66c.29,.07,.57,.11,.83,.12,.26,0,.46,.01,.59,.01,.27,0,.48-.04,.63-.11,.16-.07,.27-.16,.35-.25s.13-.19,.15-.29c.02-.1,.03-.17,.03-.22,0-.09-.02-.18-.05-.27-.03-.08-.1-.16-.19-.23-.09-.07-.22-.14-.38-.21-.16-.06-.38-.12-.64-.18-.25-.05-.49-.1-.72-.17-.23-.07-.42-.16-.59-.28-.17-.12-.3-.26-.4-.44-.1-.17-.14-.39-.14-.64,0-.45,.15-.78,.46-1.01s.75-.34,1.33-.34c.38,0,.72,.02,1.04,.06,.31,.04,.61,.09,.91,.17v1.14h-.59Z"/><path class="cls-4" d="M333.49,475.35c0,.28,.04,.54,.11,.78,.07,.24,.17,.44,.31,.61,.14,.17,.33,.3,.56,.4,.23,.09,.5,.14,.83,.14,.25,0,.51-.01,.76-.04,.25-.02,.52-.08,.8-.17l.09,.57c-.3,.09-.58,.14-.85,.17-.27,.03-.57,.04-.9,.04-.45,0-.83-.06-1.14-.19-.31-.13-.56-.31-.75-.54-.19-.23-.33-.5-.42-.82-.09-.32-.13-.67-.13-1.05s.04-.74,.12-1.06c.08-.32,.22-.59,.41-.82,.19-.23,.44-.41,.74-.54s.67-.19,1.12-.19c.52,0,.92,.09,1.2,.28,.28,.18,.48,.41,.59,.68,.12,.27,.17,.57,.17,.88,0,.31-.03,.6-.08,.86h-3.53Zm1.61-2.14c-.29,0-.53,.04-.73,.13-.2,.09-.36,.21-.48,.36s-.22,.33-.28,.54-.1,.42-.12,.66h2.85c.04-.19,.05-.39,.04-.59-.01-.2-.06-.38-.15-.54s-.23-.29-.41-.4c-.18-.1-.42-.15-.72-.15Z"/><path class="cls-4" d="M337.76,472.76h1.39v.8h.02c.11-.11,.24-.22,.39-.33,.14-.11,.3-.2,.46-.29,.17-.09,.34-.16,.53-.21,.19-.05,.38-.08,.58-.08v.66c-.2,0-.4,.02-.59,.07-.19,.04-.38,.1-.55,.17-.17,.07-.33,.14-.47,.22-.14,.08-.27,.15-.37,.22v3.18h.81v.59h-2.2v-.59h.69v-3.82h-.69v-.59Z"/><path class="cls-4" d="M345.16,472.76h1.95v.59h-.46l-1.79,4.46h-.83l-1.79-4.46h-.48v-.59h2.06v.59h-.8l1.47,3.72h.02l1.44-3.72h-.79v-.59Z"/><path class="cls-4" d="M347.69,474.02v-1.16c.33-.07,.66-.12,.98-.15,.32-.03,.61-.05,.88-.05,.29,0,.54,.03,.76,.08s.41,.14,.57,.27c.15,.13,.27,.29,.34,.5,.08,.21,.12,.47,.12,.79v2.87h.68v.59h-1.38v-.5h-.02c-.23,.19-.46,.34-.69,.43-.23,.09-.49,.15-.79,.16-.23,.01-.46,0-.67-.04-.21-.04-.4-.12-.57-.24-.17-.12-.3-.27-.39-.46s-.15-.43-.15-.72,.06-.54,.18-.73c.12-.19,.28-.34,.47-.45,.19-.11,.42-.19,.67-.23,.25-.04,.51-.07,.77-.07h1.18v-.57c0-.37-.09-.64-.28-.82s-.51-.27-.96-.27c-.13,0-.29,0-.47,.02-.18,.01-.4,.04-.65,.09v.66h-.59Zm2.95,1.33h-1.08c-.55,0-.94,.09-1.17,.26-.22,.17-.33,.42-.33,.75,0,.29,.1,.52,.31,.69,.21,.17,.5,.26,.88,.26,.33,0,.62-.05,.85-.17s.41-.21,.54-.32v-1.48Z"/><path class="cls-4" d="M355.35,470.76h1.39v6.41h.68v.59h-1.38v-.5h-.02c-.19,.17-.43,.32-.71,.43-.28,.11-.57,.17-.89,.17-.35,0-.65-.07-.88-.2-.24-.13-.43-.32-.57-.55s-.25-.51-.31-.83c-.06-.32-.1-.66-.1-1.02s.03-.71,.1-1.03c.07-.32,.17-.59,.32-.83,.15-.23,.35-.42,.58-.55,.24-.13,.54-.2,.89-.2,.3,0,.59,.05,.86,.16s.51,.25,.7,.42h.02v-1.89h-.69v-.59Zm-2.05,4.5c0,.27,.02,.53,.07,.77,.04,.24,.12,.45,.22,.64s.25,.33,.42,.44,.4,.16,.67,.16c.15,0,.3-.02,.44-.05s.26-.07,.38-.12c.12-.05,.22-.1,.31-.16,.09-.06,.17-.11,.23-.16v-3.06c-.06-.05-.13-.1-.23-.16-.09-.06-.19-.11-.31-.15-.12-.05-.24-.09-.38-.12s-.28-.05-.44-.05c-.27,0-.5,.05-.67,.16-.18,.11-.32,.26-.42,.44s-.18,.4-.22,.64c-.04,.24-.07,.5-.07,.77Z"/><path class="cls-4" d="M360.2,477.86c-.41,0-.75-.06-1.04-.19-.28-.13-.51-.31-.7-.54-.18-.23-.31-.5-.39-.82s-.12-.67-.12-1.05,.04-.74,.12-1.06c.08-.32,.21-.59,.39-.82,.18-.23,.41-.41,.7-.54s.63-.19,1.04-.19,.75,.06,1.04,.19,.51,.3,.7,.54c.18,.23,.31,.5,.39,.82,.08,.32,.12,.67,.12,1.06s-.04,.74-.12,1.05-.21,.59-.39,.82c-.18,.23-.41,.41-.7,.54-.28,.13-.63,.19-1.04,.19Zm0-4.61c-.29,0-.54,.05-.72,.16-.19,.11-.34,.25-.46,.43-.12,.18-.2,.39-.25,.63-.05,.24-.07,.5-.07,.79s.02,.54,.07,.79c.05,.24,.13,.46,.25,.63,.12,.18,.27,.32,.46,.43,.19,.11,.43,.16,.72,.16s.53-.05,.72-.16,.35-.25,.46-.43c.12-.18,.2-.39,.25-.63,.05-.24,.07-.51,.07-.79s-.02-.54-.07-.79-.13-.46-.25-.63c-.12-.18-.27-.32-.46-.43-.19-.11-.43-.16-.72-.16Z"/><path class="cls-4" d="M366.52,474.02v-.66c-.28-.07-.54-.1-.78-.12-.24,0-.42-.01-.54-.01-.26,0-.47,.03-.62,.09-.15,.06-.27,.14-.34,.22-.07,.08-.12,.17-.14,.25s-.03,.15-.03,.19c0,.09,.02,.18,.04,.27,.03,.09,.09,.17,.18,.24,.09,.07,.21,.14,.36,.21,.16,.07,.36,.13,.62,.18,.27,.06,.53,.12,.76,.2,.24,.07,.44,.16,.61,.27s.3,.25,.4,.42,.14,.37,.14,.61c0,.48-.15,.85-.46,1.1-.3,.25-.75,.38-1.33,.38-.38,0-.75-.02-1.1-.05-.36-.04-.69-.09-.99-.17v-1.14h.59v.66c.29,.07,.57,.11,.83,.12s.46,.01,.59,.01c.27,0,.48-.04,.64-.11,.16-.07,.27-.16,.35-.25s.13-.19,.15-.29c.02-.1,.03-.17,.03-.22,0-.09-.02-.18-.05-.27-.03-.08-.1-.16-.19-.23-.09-.07-.22-.14-.39-.21-.16-.06-.38-.12-.63-.18-.25-.05-.49-.1-.72-.17-.23-.07-.42-.16-.59-.28-.17-.12-.3-.26-.4-.44-.1-.17-.15-.39-.15-.64,0-.45,.15-.78,.46-1.01,.31-.23,.75-.34,1.33-.34,.38,0,.73,.02,1.04,.06,.31,.04,.62,.09,.92,.17v1.14h-.59Z"/></g><path class="cls-3" d="M221.95,141.5c1.8-2.1,2.8-4.7,2.8-7.5v-5.7h-29.6v5.7c0,2.8,1,5.4,2.8,7.5l5.7,6.8c1,1.2,1,3.1,0,4.3l-5.8,7c-1.7,2.1-2.7,4.7-2.7,7.4v5.8h29.6v-5.8c0-2.7-1-5.3-2.7-7.4l-5.8-7c-1-1.3-1-3,0-4.3-.1,0,5.7-6.8,5.7-6.8Zm-1-7.6c0,1.9-.7,3.8-1.9,5.2l-1.8,2.2h-14.8l-1.8-2.2c-1.2-1.5-1.9-3.3-1.9-5.2h22.2Zm-1.8,28.1c1.2,1.5,1.8,3.3,1.8,5.2h-2c-3.6-3.7-9.1-3.7-9.1-3.7,0,0-5.6,0-9.1,3.7h-2c0-1.9,.6-3.7,1.8-5.2l5.8-7c.6-.7,1-1.6,1.3-2.5h.3v1.9h3.7v-1.9h.3c.3,.9,.7,1.8,1.3,2.5l5.9,7Zm-11.2-2.2h3.7v1.8h-3.7v-1.8Zm0-3.7h3.7v1.9h-3.7v-1.9Z"/><path class="cls-2" d="M228.45,278.9c-.2,1.1-.5,2.1-.8,3.2l3.4,1.7c.6-1.5,1-3,1.2-4.6l-3.8-.3h0Zm-7.4,12c-.9,.7-1.9,1.3-2.9,1.8l1.3,3.6c1.5-.7,3-1.6,4.3-2.6l-2.7-2.8h0Zm4.9-5.4c-.6,1-1.4,2-2.2,2.9l2.6,2.7c1.1-1.2,2.1-2.5,2.9-3.9l-3.3-1.7Zm4.5-18.4l-2.5-13.2-4.1,4.1c-4-3.1-8.9-4.8-13.9-4.8-12.4,0-22.5,10.1-22.5,22.5s10.1,22.5,22.5,22.5c2,0,3.9-.3,5.8-.8l-1.2-3.6c-1.5,.4-3,.6-4.6,.6-10.4,0-18.8-8.4-18.8-18.8s8.4-18.8,18.8-18.8c4,0,8,1.3,11.2,3.7l-3.8,3.8,13.1,2.8h0Zm1.6,4.3h-3.9c.3,1.2,.5,2.5,.5,3.8l3.8,.3c0-1.4-.1-2.7-.4-4.1h0Z"/></g></svg>