<?xml version="1.0" encoding="UTF-8"?><svg xmlns="http://www.w3.org/2000/svg" viewBox="0 0 420 524"><defs><style>.cls-1{fill:#343434;}.cls-2{fill:#ffdd06;}.cls-3{fill:#a9a9a9;}.cls-4{fill:#232d56;}.cls-5{fill:#366fb6;}.cls-6{fill:none;}.cls-6,.cls-7{stroke:#ddd;stroke-miterlimit:10;stroke-width:.5px;}.cls-8{fill:#4b4a4a;}.cls-7{fill:#fff;}.cls-9{fill:#222d56;}</style></defs><g id="Capa_2"><rect class="cls-7" x="20.46" y="10.35" width="379.08" height="493.03" rx="3" ry="3"/></g><g id="Capa_3"><g><path class="cls-9" d="M158.75,73.73v3.12c-.98,.29-1.91,.5-2.81,.62-.9,.13-1.8,.19-2.71,.19-1.38,0-2.5-.22-3.38-.67-.88-.45-1.58-1.06-2.09-1.84-.51-.78-.86-1.68-1.06-2.71-.19-1.03-.29-2.13-.29-3.3s.1-2.2,.29-3.2,.54-1.88,1.06-2.63c.51-.75,1.21-1.35,2.09-1.79,.88-.44,2.01-.66,3.38-.66,.91,0,1.82,.06,2.71,.19,.9,.13,1.83,.34,2.81,.62v3.12h-1.42v-2.02c-.45-.1-.85-.18-1.21-.25s-.7-.12-1.01-.16c-.31-.03-.61-.06-.89-.07-.28-.02-.56-.02-.85-.02-1.04,0-1.89,.19-2.56,.56-.66,.38-1.18,.88-1.56,1.51s-.63,1.36-.77,2.2c-.14,.83-.2,1.7-.2,2.59,0,.96,.07,1.87,.2,2.74s.39,1.62,.77,2.27c.38,.65,.9,1.16,1.56,1.54,.66,.38,1.52,.56,2.56,.56,.29,0,.57,0,.85-.01,.28,0,.58-.03,.89-.07,.31-.04,.65-.09,1.01-.16,.36-.06,.76-.15,1.21-.26v-2.02h1.42Z"/><path class="cls-9" d="M160.36,60.63h3.34v15.38h1.66v1.42h-4.99v-1.42h1.66v-13.97h-1.66v-1.42Z"/><path class="cls-9" d="M167.53,68.45v-2.78c.8-.16,1.58-.28,2.35-.36,.77-.08,1.47-.12,2.11-.12,.69,0,1.3,.06,1.84,.18s.99,.33,1.36,.64,.64,.71,.83,1.21c.18,.5,.28,1.14,.28,1.91v6.89h1.63v1.42h-3.31v-1.2h-.05c-.56,.46-1.12,.81-1.67,1.03-.55,.22-1.18,.35-1.88,.38-.56,.03-1.09,0-1.6-.11-.5-.1-.96-.3-1.36-.58-.4-.28-.72-.65-.95-1.12-.23-.46-.35-1.04-.35-1.73s.14-1.28,.43-1.74,.66-.82,1.13-1.08c.46-.26,1-.45,1.61-.55,.61-.1,1.22-.16,1.85-.16h2.83v-1.37c0-.88-.22-1.54-.67-1.97-.45-.43-1.22-.65-2.3-.65-.32,0-.7,.02-1.13,.05-.43,.03-.95,.1-1.56,.22v1.58h-1.42Zm7.08,3.19h-2.59c-1.33,0-2.26,.21-2.8,.62-.54,.42-.8,1.02-.8,1.8,0,.69,.25,1.24,.74,1.66,.5,.42,1.2,.62,2.11,.62,.8,0,1.48-.13,2.04-.4,.56-.26,.99-.52,1.3-.76v-3.55Z"/><path class="cls-9" d="M185.89,65.42h4.68v1.42h-1.1l-4.3,10.7h-1.99l-4.3-10.7h-1.15v-1.42h4.94v1.42h-1.92l3.53,8.93h.05l3.46-8.93h-1.9v-1.42Z"/><path class="cls-9" d="M193.16,71.64c.02,.67,.1,1.29,.26,1.86,.16,.57,.41,1.06,.76,1.46s.79,.72,1.33,.95c.54,.22,1.21,.34,1.99,.34,.61,0,1.22-.03,1.82-.08,.61-.06,1.25-.19,1.92-.4l.22,1.37c-.72,.21-1.4,.35-2.05,.42-.65,.07-1.36,.11-2.15,.11-1.09,0-2-.15-2.75-.46s-1.35-.73-1.81-1.28c-.46-.55-.8-1.21-1.01-1.97-.21-.76-.31-1.6-.31-2.53s.1-1.77,.3-2.53c.2-.76,.53-1.42,.98-1.97s1.05-.98,1.78-1.28c.73-.3,1.62-.46,2.68-.46,1.25,0,2.21,.22,2.88,.66,.67,.44,1.15,.99,1.43,1.64s.42,1.36,.41,2.1-.08,1.43-.2,2.05h-8.47Zm3.86-5.14c-.69,0-1.27,.1-1.74,.31-.47,.21-.86,.5-1.15,.86-.3,.37-.52,.8-.67,1.28-.15,.49-.25,1.01-.3,1.57h6.84c.1-.46,.13-.94,.11-1.42-.02-.48-.14-.91-.36-1.3s-.54-.7-.98-.95-1.02-.37-1.74-.37Z"/><path class="cls-9" d="M215.08,61.11c1.3,0,2.38,.21,3.25,.62s1.56,.98,2.08,1.7c.51,.72,.88,1.57,1.09,2.54,.22,.98,.32,2.03,.32,3.17s-.11,2.23-.32,3.24-.58,1.88-1.09,2.63c-.51,.74-1.2,1.33-2.08,1.76-.87,.43-1.96,.65-3.25,.65h-7.34v-1.42h1.66v-13.49h-1.66v-1.42h7.34Zm0,14.9c.98,0,1.78-.19,2.41-.56,.63-.38,1.13-.88,1.5-1.51,.37-.63,.62-1.36,.76-2.2,.14-.83,.2-1.7,.2-2.59s-.07-1.75-.2-2.56c-.14-.81-.39-1.51-.76-2.11-.37-.6-.87-1.08-1.5-1.43-.63-.35-1.44-.53-2.41-.53h-3.91v13.49h3.91Z"/><path class="cls-9" d="M223.33,65.42h3.34v10.58h1.66v1.42h-4.99v-1.42h1.66v-9.17h-1.66v-1.42Zm3.34-4.8v2.86h-1.68v-2.86h1.68Z"/><path class="cls-9" d="M231.4,76.54c-.37-.19-.62-.45-.77-.78-.14-.33-.18-.67-.12-1.03,.06-.36,.22-.72,.48-1.09,.25-.37,.59-.69,1.01-.96v-.05c-.61-.3-1.1-.74-1.46-1.31-.37-.57-.55-1.25-.55-2.05,0-1.3,.42-2.3,1.25-3.01s2-1.07,3.5-1.07c.34,0,.64,.02,.9,.07s.51,.1,.73,.17h4.1v1.06h-2.52v.02c.3,.18,.55,.38,.73,.6,.18,.22,.33,.46,.43,.71,.1,.25,.17,.5,.2,.76s.05,.49,.05,.7c0,.66-.12,1.23-.36,1.73s-.57,.91-.98,1.24-.9,.57-1.46,.73c-.56,.16-1.17,.24-1.82,.24-.26,0-.56-.02-.9-.07-.34-.05-.65-.13-.92-.24-.24,.26-.43,.53-.58,.82-.14,.29-.22,.56-.22,.8s.08,.46,.23,.62,.4,.26,.73,.28l4.22,.19c1.26,.08,2.16,.37,2.69,.86,.53,.5,.79,1.13,.79,1.9,0,1.28-.54,2.28-1.62,3.01-1.08,.73-2.8,1.09-5.15,1.09-1.55,0-2.74-.25-3.56-.76-.82-.5-1.24-1.29-1.24-2.36,0-.56,.17-1.06,.52-1.5,.34-.44,.9-.86,1.67-1.26v-.05Zm-.72,2.54c0,.67,.29,1.21,.86,1.61,.58,.4,1.53,.6,2.86,.6,.64,0,1.24-.05,1.8-.16,.56-.1,1.05-.26,1.46-.48,.42-.22,.74-.49,.98-.83,.24-.34,.36-.73,.36-1.18,0-.4-.16-.75-.47-1.04-.31-.3-.9-.47-1.76-.52l-4.42-.24c-.48,.32-.88,.64-1.2,.96s-.48,.74-.48,1.27Zm4.06-7.08c.93,0,1.67-.24,2.22-.72,.55-.48,.83-1.15,.83-2.02s-.28-1.58-.84-2.11c-.56-.53-1.3-.79-2.21-.79-1.04,0-1.82,.26-2.34,.79-.52,.53-.78,1.23-.78,2.11s.28,1.56,.84,2.03c.56,.47,1.32,.71,2.28,.71Z"/><path class="cls-9" d="M242.22,65.42h3.34v10.58h1.66v1.42h-4.99v-1.42h1.66v-9.17h-1.66v-1.42Zm3.34-4.8v2.86h-1.68v-2.86h1.68Z"/><path class="cls-9" d="M249.44,66.65h-1.9v-1.1l1.9-.12,.22-3.36h1.46v3.36h3.55v1.22h-3.55v6.98c0,.88,.15,1.54,.46,1.99,.3,.45,.88,.67,1.73,.67,.19,0,.39,0,.6-.02,.21-.02,.45-.05,.72-.1l.17,1.32c-.32,.05-.67,.09-1.04,.12-.38,.03-.7,.05-.97,.05-1.17,0-2.02-.28-2.54-.83-.53-.55-.79-1.53-.79-2.94v-7.25Z"/><path class="cls-9" d="M257.12,68.45v-2.78c.8-.16,1.58-.28,2.35-.36,.77-.08,1.47-.12,2.11-.12,.69,0,1.3,.06,1.84,.18s.99,.33,1.36,.64,.64,.71,.83,1.21c.18,.5,.28,1.14,.28,1.91v6.89h1.63v1.42h-3.31v-1.2h-.05c-.56,.46-1.12,.81-1.67,1.03s-1.18,.35-1.88,.38c-.56,.03-1.09,0-1.6-.11-.5-.1-.96-.3-1.36-.58-.4-.28-.72-.65-.95-1.12-.23-.46-.35-1.04-.35-1.73s.14-1.28,.43-1.74,.66-.82,1.13-1.08,1-.45,1.61-.55c.61-.1,1.22-.16,1.85-.16h2.83v-1.37c0-.88-.22-1.54-.67-1.97s-1.22-.65-2.3-.65c-.32,0-.7,.02-1.13,.05-.43,.03-.95,.1-1.56,.22v1.58h-1.42Zm7.08,3.19h-2.59c-1.33,0-2.26,.21-2.8,.62-.54,.42-.8,1.02-.8,1.8,0,.69,.25,1.24,.74,1.66,.5,.42,1.2,.62,2.11,.62,.8,0,1.48-.13,2.04-.4,.56-.26,.99-.52,1.3-.76v-3.55Z"/><path class="cls-9" d="M268.6,60.63h3.34v15.38h1.66v1.42h-4.99v-1.42h1.66v-13.97h-1.66v-1.42Z"/></g><rect class="cls-7" x="50.7" y="184.52" width="39.36" height="39.36" rx="3" ry="3"/><rect class="cls-7" x="106.55" y="184.52" width="39.36" height="39.36" rx="3" ry="3"/><rect class="cls-7" x="162.4" y="184.52" width="39.36" height="39.36" rx="3" ry="3"/><rect class="cls-7" x="218.24" y="184.52" width="39.36" height="39.36" rx="3" ry="3"/><rect class="cls-7" x="274.09" y="184.52" width="39.36" height="39.36" rx="3" ry="3"/><rect class="cls-7" x="329.94" y="184.52" width="39.36" height="39.36" rx="3" ry="3"/><rect class="cls-2" x="69" y="320.5" width="281.99" height="39.36" rx="3" ry="3"/><g><path class="cls-4" d="M196.23,340.79v1.41c-.44,.13-.87,.22-1.27,.28-.41,.06-.82,.09-1.23,.09-.62,0-1.13-.1-1.53-.3s-.71-.48-.95-.83-.39-.76-.48-1.23-.13-.97-.13-1.5,.04-1,.13-1.45,.25-.85,.48-1.19,.55-.61,.95-.81c.4-.2,.91-.3,1.53-.3,.41,0,.82,.03,1.23,.09,.41,.06,.83,.15,1.27,.28v1.41h-.64v-.91c-.2-.04-.39-.08-.55-.11-.16-.03-.32-.06-.46-.07s-.28-.03-.4-.03c-.13,0-.26-.01-.39-.01-.47,0-.86,.09-1.16,.26-.3,.17-.54,.4-.71,.69-.17,.29-.29,.62-.35,1s-.09,.77-.09,1.17c0,.43,.03,.85,.09,1.24s.18,.73,.35,1.03c.17,.29,.41,.53,.71,.7,.3,.17,.69,.25,1.16,.25,.13,0,.26,0,.39,0,.13,0,.26-.01,.4-.03,.14-.02,.29-.04,.46-.07,.16-.03,.35-.07,.55-.12v-.91h.64Z"/><path class="cls-4" d="M199.54,342.58c-.44,0-.82-.07-1.13-.21-.31-.14-.56-.33-.76-.58-.2-.25-.34-.55-.42-.89s-.13-.73-.13-1.15,.04-.8,.13-1.15c.09-.34,.23-.64,.42-.89,.2-.25,.45-.44,.76-.58,.31-.14,.68-.21,1.13-.21s.82,.07,1.13,.21c.31,.14,.56,.33,.76,.58,.2,.25,.34,.55,.42,.89,.09,.34,.13,.73,.13,1.15s-.04,.8-.13,1.15c-.09,.34-.23,.64-.42,.89-.2,.25-.45,.44-.76,.58-.31,.14-.68,.21-1.13,.21Zm0-5.01c-.32,0-.58,.06-.79,.17-.21,.12-.37,.27-.5,.47-.13,.2-.22,.43-.27,.69-.05,.27-.08,.55-.08,.85s.03,.59,.08,.85,.14,.5,.27,.69c.13,.2,.29,.35,.5,.47,.21,.12,.47,.17,.79,.17s.57-.06,.78-.17c.21-.12,.38-.27,.51-.47,.13-.2,.22-.43,.27-.69s.08-.55,.08-.85-.03-.59-.08-.85c-.05-.26-.14-.49-.27-.69-.13-.2-.3-.35-.51-.47-.21-.12-.47-.17-.78-.17Z"/><path class="cls-4" d="M206.38,341.83h.71v-2.96c0-.38-.09-.69-.26-.94-.17-.25-.49-.37-.94-.37-.18,0-.36,.03-.52,.08-.17,.05-.33,.11-.47,.18-.15,.07-.28,.15-.41,.23-.12,.08-.23,.16-.32,.23v3.54h.71v.64h-2.22v-.64h.75v-4.16h-.75v-.64h1.51v.79h.02c.28-.27,.58-.49,.92-.65s.71-.25,1.1-.25c.54,0,.95,.15,1.22,.46,.27,.3,.41,.75,.41,1.33v3.12h.74v.64h-2.21v-.64Z"/><path class="cls-4" d="M209.5,337.58h-.86v-.5l.86-.05,.1-1.52h.66v1.52h1.61v.55h-1.61v3.17c0,.4,.07,.7,.21,.9s.4,.3,.78,.3c.09,0,.18,0,.27-.01,.09,0,.2-.02,.33-.04l.08,.6c-.15,.02-.3,.04-.47,.05-.17,.01-.32,.02-.44,.02-.53,0-.91-.12-1.15-.38-.24-.25-.36-.69-.36-1.33v-3.29Z"/><path class="cls-4" d="M212.72,337.03h1.51v4.8h.75v.64h-2.26v-.64h.75v-4.16h-.75v-.64Zm1.51-2.17v1.29h-.76v-1.29h.76Z"/><path class="cls-4" d="M219.18,341.83h.71v-2.96c0-.38-.09-.69-.26-.94-.17-.25-.49-.37-.94-.37-.18,0-.36,.03-.52,.08s-.32,.11-.47,.18c-.15,.07-.29,.15-.41,.23s-.23,.16-.32,.23v3.54h.71v.64h-2.22v-.64h.75v-4.16h-.75v-.64h1.51v.79h.02c.28-.27,.58-.49,.92-.65,.34-.17,.71-.25,1.1-.25,.54,0,.95,.15,1.22,.46,.27,.3,.41,.75,.41,1.33v3.12h.74v.64h-2.21v-.64Z"/><path class="cls-4" d="M221.55,337.03h1.51v3.6c0,.19,.02,.36,.06,.52,.04,.16,.11,.3,.2,.41,.09,.12,.22,.21,.37,.27,.15,.07,.34,.1,.57,.1,.18,0,.35-.02,.52-.08s.32-.11,.47-.19c.15-.07,.28-.15,.41-.23,.12-.08,.23-.16,.32-.23v-3.54h-.96v-.64h1.72v4.8h.74v.64h-1.5v-.78h-.02c-.28,.26-.58,.48-.92,.64-.34,.17-.71,.25-1.1,.25-.54,0-.95-.15-1.22-.45-.27-.3-.41-.75-.41-1.33v-3.12h-.75v-.64Z"/><path class="cls-4" d="M228.48,338.4v-1.26c.36-.07,.72-.13,1.07-.16,.35-.04,.67-.05,.96-.05,.31,0,.59,.03,.83,.08,.24,.05,.45,.15,.61,.29s.29,.32,.38,.55c.08,.23,.12,.52,.12,.87v3.12h.74v.64h-1.5v-.54h-.02c-.25,.21-.51,.37-.76,.47-.25,.1-.53,.16-.85,.17-.25,.01-.5,0-.72-.05-.23-.05-.43-.13-.61-.26s-.32-.29-.43-.51c-.1-.21-.16-.47-.16-.78s.07-.58,.2-.79c.13-.21,.3-.37,.51-.49,.21-.12,.45-.2,.73-.25,.28-.05,.55-.07,.84-.07h1.28v-.62c0-.4-.1-.7-.3-.89-.2-.2-.55-.29-1.04-.29-.15,0-.32,0-.51,.02-.2,.01-.43,.05-.71,.1v.72h-.64Zm3.21,1.45h-1.17c-.6,0-1.02,.09-1.27,.28-.24,.19-.36,.46-.36,.82,0,.31,.11,.56,.34,.75,.22,.19,.54,.28,.96,.28,.36,0,.67-.06,.92-.18,.25-.12,.45-.23,.59-.34v-1.61Z"/><path class="cls-4" d="M233.68,337.03h1.51v.87h.02c.12-.12,.26-.24,.42-.36s.32-.22,.51-.32c.18-.09,.37-.17,.58-.22,.2-.05,.41-.08,.63-.08v.72c-.22,0-.43,.02-.64,.07-.21,.05-.41,.11-.6,.18-.19,.07-.36,.15-.52,.24-.16,.09-.29,.17-.4,.24v3.46h.88v.64h-2.39v-.64h.75v-4.16h-.75v-.64Z"/></g><g><path class="cls-8" d="M51.88,256.87v-8.57h1v7.66h3.78v.9h-4.78Z"/><path class="cls-8" d="M61.91,256.87l-.19-.91h-.05c-.32,.4-.64,.67-.96,.82s-.72,.21-1.19,.21c-.64,0-1.14-.16-1.5-.49s-.54-.79-.54-1.4c0-1.3,1.04-1.98,3.11-2.04l1.09-.04v-.4c0-.5-.11-.88-.33-1.12s-.56-.36-1.04-.36c-.54,0-1.14,.16-1.82,.49l-.3-.74c.32-.17,.66-.31,1.04-.4s.75-.15,1.13-.15c.77,0,1.33,.17,1.7,.51s.55,.88,.55,1.63v4.38h-.72Zm-2.2-.69c.61,0,1.08-.17,1.43-.5s.52-.8,.52-1.39v-.58l-.97,.04c-.77,.03-1.33,.15-1.67,.36s-.51,.54-.51,.99c0,.35,.11,.62,.32,.8s.51,.28,.89,.28Z"/><path class="cls-8" d="M70.32,256.99c-.93,0-1.65-.29-2.16-.86s-.76-1.38-.76-2.43,.26-1.9,.78-2.49,1.25-.88,2.21-.88c.31,0,.62,.03,.93,.1s.55,.14,.73,.23l-.3,.83c-.21-.09-.45-.16-.7-.21s-.48-.08-.67-.08c-1.3,0-1.96,.83-1.96,2.5,0,.79,.16,1.39,.48,1.82s.79,.63,1.42,.63c.54,0,1.08-.12,1.65-.35v.86c-.43,.22-.97,.33-1.62,.33Z"/><path class="cls-8" d="M74.44,256.87h-.97v-9.12h.97v9.12Z"/><path class="cls-8" d="M80.45,256.87l-.19-.91h-.05c-.32,.4-.64,.67-.96,.82s-.72,.21-1.19,.21c-.64,0-1.14-.16-1.5-.49s-.54-.79-.54-1.4c0-1.3,1.04-1.98,3.11-2.04l1.09-.04v-.4c0-.5-.11-.88-.33-1.12s-.56-.36-1.04-.36c-.54,0-1.14,.16-1.82,.49l-.3-.74c.32-.17,.66-.31,1.04-.4s.75-.15,1.13-.15c.77,0,1.33,.17,1.7,.51s.55,.88,.55,1.63v4.38h-.72Zm-2.2-.69c.61,0,1.08-.17,1.43-.5s.52-.8,.52-1.39v-.58l-.97,.04c-.77,.03-1.33,.15-1.67,.36s-.51,.54-.51,.99c0,.35,.11,.62,.32,.8s.51,.28,.89,.28Z"/><path class="cls-8" d="M84.58,256.87l-2.44-6.42h1.04l1.38,3.81c.31,.89,.5,1.47,.55,1.73h.05c.04-.21,.18-.64,.41-1.29s.74-2.07,1.54-4.26h1.04l-2.44,6.42h-1.14Z"/><path class="cls-8" d="M91.9,256.99c-.95,0-1.7-.29-2.25-.87s-.82-1.38-.82-2.41,.25-1.86,.76-2.47,1.19-.91,2.05-.91c.8,0,1.44,.26,1.91,.79s.7,1.23,.7,2.09v.62h-4.42c.02,.75,.21,1.33,.57,1.72s.87,.59,1.53,.59c.69,0,1.38-.14,2.05-.43v.87c-.34,.15-.67,.25-.98,.32s-.68,.1-1.11,.1Zm-.26-5.84c-.52,0-.93,.17-1.23,.5s-.49,.8-.54,1.39h3.36c0-.61-.14-1.08-.41-1.41s-.66-.49-1.17-.49Z"/><path class="cls-8" d="M101.75,256.99c-.95,0-1.7-.29-2.25-.87s-.82-1.38-.82-2.41,.25-1.86,.76-2.47,1.19-.91,2.05-.91c.8,0,1.44,.26,1.91,.79s.7,1.23,.7,2.09v.62h-4.42c.02,.75,.21,1.33,.57,1.72s.87,.59,1.53,.59c.69,0,1.38-.14,2.05-.43v.87c-.34,.15-.67,.25-.98,.32s-.68,.1-1.11,.1Zm-.26-5.84c-.52,0-.93,.17-1.23,.5s-.49,.8-.54,1.39h3.36c0-.61-.14-1.08-.41-1.41s-.66-.49-1.17-.49Z"/><path class="cls-8" d="M107.31,253.58l-2.23-3.13h1.11l1.69,2.46,1.69-2.46h1.1l-2.23,3.13,2.35,3.29h-1.1l-1.8-2.6-1.82,2.6h-1.1l2.35-3.29Z"/><path class="cls-8" d="M115.04,256.99c-.42,0-.8-.08-1.15-.23s-.64-.39-.87-.71h-.07c.05,.38,.07,.73,.07,1.07v2.64h-.97v-9.3h.79l.13,.88h.05c.25-.35,.54-.61,.87-.76s.71-.23,1.14-.23c.85,0,1.51,.29,1.97,.87s.69,1.4,.69,2.45-.24,1.87-.71,2.46-1.12,.88-1.96,.88Zm-.14-5.83c-.66,0-1.13,.18-1.42,.54s-.44,.94-.45,1.73v.22c0,.9,.15,1.55,.45,1.94s.78,.58,1.45,.58c.55,0,.99-.22,1.3-.67s.47-1.07,.47-1.86-.16-1.42-.47-1.84-.76-.64-1.33-.64Z"/><path class="cls-8" d="M119.33,248.71c0-.22,.05-.39,.16-.49s.25-.16,.41-.16,.29,.05,.4,.16,.17,.27,.17,.49-.06,.38-.17,.49-.25,.16-.4,.16c-.16,0-.3-.05-.41-.16s-.16-.27-.16-.49Zm1.05,8.16h-.97v-6.42h.97v6.42Z"/><path class="cls-8" d="M125.37,250.33c.29,0,.54,.02,.77,.07l-.13,.9c-.27-.06-.5-.09-.7-.09-.52,0-.96,.21-1.33,.63s-.55,.95-.55,1.58v3.45h-.97v-6.42h.8l.11,1.19h.05c.24-.42,.53-.74,.86-.97s.71-.34,1.11-.34Z"/><path class="cls-8" d="M131.29,256.87l-.19-.91h-.05c-.32,.4-.64,.67-.96,.82s-.72,.21-1.19,.21c-.64,0-1.14-.16-1.5-.49s-.54-.79-.54-1.4c0-1.3,1.04-1.98,3.11-2.04l1.09-.04v-.4c0-.5-.11-.88-.33-1.12s-.56-.36-1.04-.36c-.54,0-1.14,.16-1.82,.49l-.3-.74c.32-.17,.66-.31,1.04-.4s.75-.15,1.13-.15c.77,0,1.33,.17,1.7,.51s.55,.88,.55,1.63v4.38h-.72Zm-2.2-.69c.61,0,1.08-.17,1.43-.5s.52-.8,.52-1.39v-.58l-.97,.04c-.77,.03-1.33,.15-1.67,.36s-.51,.54-.51,.99c0,.35,.11,.62,.32,.8s.51,.28,.89,.28Z"/><path class="cls-8" d="M139.7,256.99c-.93,0-1.65-.29-2.16-.86s-.76-1.38-.76-2.43,.26-1.9,.78-2.49,1.25-.88,2.21-.88c.31,0,.62,.03,.93,.1s.55,.14,.73,.23l-.3,.83c-.21-.09-.45-.16-.7-.21s-.48-.08-.67-.08c-1.3,0-1.96,.83-1.96,2.5,0,.79,.16,1.39,.48,1.82s.79,.63,1.42,.63c.54,0,1.08-.12,1.65-.35v.86c-.43,.22-.97,.33-1.62,.33Z"/><path class="cls-8" d="M146.79,256.87l-.19-.91h-.05c-.32,.4-.64,.67-.96,.82s-.72,.21-1.19,.21c-.64,0-1.14-.16-1.5-.49s-.54-.79-.54-1.4c0-1.3,1.04-1.98,3.11-2.04l1.09-.04v-.4c0-.5-.11-.88-.33-1.12s-.56-.36-1.04-.36c-.54,0-1.14,.16-1.82,.49l-.3-.74c.32-.17,.66-.31,1.04-.4s.75-.15,1.13-.15c.77,0,1.33,.17,1.7,.51s.55,.88,.55,1.63v4.38h-.72Zm-2.2-.69c.61,0,1.08-.17,1.43-.5s.52-.8,.52-1.39v-.58l-.97,.04c-.77,.03-1.33,.15-1.67,.36s-.51,.54-.51,.99c0,.35,.11,.62,.32,.8s.51,.28,.89,.28Z"/><path class="cls-8" d="M153.89,256.01h-.05c-.45,.65-1.12,.98-2.02,.98-.84,0-1.49-.29-1.96-.86s-.7-1.39-.7-2.45,.23-1.88,.7-2.47,1.12-.88,1.96-.88,1.54,.32,2,.95h.08l-.04-.46-.02-.45v-2.61h.97v9.12h-.79l-.13-.86Zm-1.95,.16c.66,0,1.15-.18,1.44-.54s.45-.94,.45-1.75v-.21c0-.91-.15-1.56-.45-1.95s-.79-.58-1.45-.58c-.57,0-1.01,.22-1.31,.67s-.45,1.07-.45,1.88,.15,1.44,.45,1.86,.74,.63,1.32,.63Z"/><path class="cls-8" d="M160.82,256.87l-.19-.91h-.05c-.32,.4-.64,.67-.96,.82s-.72,.21-1.19,.21c-.64,0-1.14-.16-1.5-.49s-.54-.79-.54-1.4c0-1.3,1.04-1.98,3.11-2.04l1.09-.04v-.4c0-.5-.11-.88-.33-1.12s-.56-.36-1.04-.36c-.54,0-1.14,.16-1.82,.49l-.3-.74c.32-.17,.66-.31,1.04-.4s.75-.15,1.13-.15c.77,0,1.33,.17,1.7,.51s.55,.88,.55,1.63v4.38h-.72Zm-2.2-.69c.61,0,1.08-.17,1.43-.5s.52-.8,.52-1.39v-.58l-.97,.04c-.77,.03-1.33,.15-1.67,.36s-.51,.54-.51,.99c0,.35,.11,.62,.32,.8s.51,.28,.89,.28Z"/><path class="cls-8" d="M171.53,250.32c0,.55-.15,.99-.46,1.34s-.74,.58-1.3,.7v.05c.69,.09,1.2,.3,1.53,.66s.5,.81,.5,1.38c0,.82-.28,1.44-.85,1.88s-1.37,.66-2.41,.66c-.45,0-.87-.03-1.25-.1s-.74-.19-1.1-.36v-.93c.37,.18,.77,.32,1.19,.42s.82,.14,1.19,.14c1.48,0,2.22-.58,2.22-1.74,0-1.04-.82-1.56-2.45-1.56h-.84v-.84h.86c.67,0,1.2-.15,1.59-.44s.59-.7,.59-1.23c0-.42-.14-.75-.43-.98s-.68-.36-1.17-.36c-.38,0-.73,.05-1.06,.15s-.71,.29-1.14,.56l-.49-.66c.35-.28,.76-.5,1.22-.65s.94-.24,1.45-.24c.83,0,1.48,.19,1.94,.57s.69,.9,.69,1.57Z"/><path class="cls-8" d="M178.76,252.57c0,1.48-.23,2.59-.7,3.32s-1.18,1.1-2.14,1.1-1.62-.37-2.1-1.12-.72-1.84-.72-3.29,.23-2.6,.7-3.32,1.17-1.08,2.13-1.08,1.64,.38,2.12,1.13,.72,1.85,.72,3.28Zm-4.68,0c0,1.25,.15,2.15,.44,2.72s.76,.85,1.4,.85,1.12-.29,1.41-.86,.44-1.48,.44-2.71-.15-2.13-.44-2.7-.76-.86-1.41-.86-1.11,.28-1.4,.85-.44,1.47-.44,2.72Z"/><path class="cls-8" d="M187.65,255.12c0,.6-.22,1.06-.67,1.38s-1.07,.49-1.88,.49c-.85,0-1.52-.13-1.99-.4v-.9c.31,.16,.64,.28,.99,.37s.69,.13,1.02,.13c.51,0,.9-.08,1.17-.24s.41-.41,.41-.74c0-.25-.11-.46-.33-.64s-.64-.39-1.27-.63c-.6-.22-1.02-.42-1.27-.58s-.44-.35-.56-.57-.18-.46-.18-.76c0-.52,.21-.94,.64-1.24s1.01-.45,1.75-.45c.69,0,1.37,.14,2.03,.42l-.35,.79c-.64-.27-1.23-.4-1.75-.4-.46,0-.81,.07-1.04,.22s-.35,.34-.35,.6c0,.17,.04,.32,.13,.44s.23,.24,.42,.35,.57,.27,1.12,.47c.76,.28,1.28,.56,1.54,.84s.4,.63,.4,1.06Z"/><path class="cls-8" d="M191.94,256.99c-.95,0-1.7-.29-2.25-.87s-.82-1.38-.82-2.41,.25-1.86,.76-2.47,1.19-.91,2.05-.91c.8,0,1.44,.26,1.91,.79s.7,1.23,.7,2.09v.62h-4.42c.02,.75,.21,1.33,.57,1.72s.87,.59,1.53,.59c.69,0,1.38-.14,2.05-.43v.87c-.34,.15-.67,.25-.98,.32s-.68,.1-1.11,.1Zm-.26-5.84c-.52,0-.93,.17-1.23,.5s-.49,.8-.54,1.39h3.36c0-.61-.14-1.08-.41-1.41s-.66-.49-1.17-.49Z"/><path class="cls-8" d="M201.22,250.45v.62l-1.19,.14c.11,.14,.21,.32,.29,.54s.13,.47,.13,.75c0,.63-.21,1.13-.64,1.51s-1.02,.56-1.77,.56c-.19,0-.37-.02-.54-.05-.41,.22-.62,.49-.62,.83,0,.18,.07,.31,.22,.39s.39,.13,.74,.13h1.14c.7,0,1.23,.15,1.6,.44s.56,.72,.56,1.28c0,.71-.29,1.25-.86,1.63s-1.4,.56-2.5,.56c-.84,0-1.49-.16-1.94-.47s-.68-.75-.68-1.32c0-.39,.12-.73,.38-1.01s.6-.48,1.05-.58c-.16-.07-.3-.19-.41-.35s-.17-.34-.17-.54c0-.23,.06-.44,.19-.62s.32-.35,.59-.51c-.33-.14-.6-.37-.81-.7s-.31-.7-.31-1.12c0-.7,.21-1.25,.63-1.63s1.02-.57,1.79-.57c.34,0,.64,.04,.91,.12h2.22Zm-5.12,7.5c0,.35,.15,.61,.44,.79s.71,.27,1.26,.27c.82,0,1.42-.12,1.81-.37s.59-.58,.59-.99c0-.35-.11-.59-.32-.72s-.62-.2-1.21-.2h-1.17c-.44,0-.79,.11-1.03,.32s-.37,.51-.37,.91Zm.53-5.44c0,.45,.13,.79,.38,1.02s.61,.35,1.06,.35c.95,0,1.42-.46,1.42-1.38s-.48-1.45-1.44-1.45c-.46,0-.81,.12-1.05,.37s-.37,.61-.37,1.1Z"/><path class="cls-8" d="M203.45,250.45v4.17c0,.52,.12,.91,.36,1.17s.61,.39,1.12,.39c.67,0,1.16-.18,1.47-.55s.47-.97,.47-1.8v-3.38h.97v6.42h-.8l-.14-.86h-.05c-.2,.32-.48,.56-.83,.73s-.76,.25-1.21,.25c-.78,0-1.37-.19-1.75-.56s-.58-.96-.58-1.78v-4.2h.98Z"/><path class="cls-8" d="M214.29,256.87v-4.15c0-.52-.12-.91-.36-1.17s-.61-.39-1.12-.39c-.67,0-1.16,.18-1.48,.54s-.47,.96-.47,1.8v3.37h-.97v-6.42h.79l.16,.88h.05c.2-.32,.48-.56,.84-.74s.76-.26,1.2-.26c.77,0,1.36,.19,1.75,.56s.59,.97,.59,1.79v4.19h-.97Z"/><path class="cls-8" d="M221.64,256.01h-.05c-.45,.65-1.12,.98-2.02,.98-.84,0-1.49-.29-1.96-.86s-.7-1.39-.7-2.45,.23-1.88,.7-2.47,1.12-.88,1.96-.88,1.54,.32,2,.95h.08l-.04-.46-.02-.45v-2.61h.97v9.12h-.79l-.13-.86Zm-1.95,.16c.66,0,1.15-.18,1.44-.54s.45-.94,.45-1.75v-.21c0-.91-.15-1.56-.45-1.95s-.79-.58-1.45-.58c-.57,0-1.01,.22-1.31,.67s-.45,1.07-.45,1.88,.15,1.44,.45,1.86,.74,.63,1.32,.63Z"/><path class="cls-8" d="M230.16,253.65c0,1.05-.26,1.86-.79,2.45s-1.26,.88-2.19,.88c-.57,0-1.08-.13-1.53-.4s-.79-.66-1.03-1.16-.36-1.09-.36-1.77c0-1.05,.26-1.86,.79-2.45s1.25-.88,2.18-.88,1.61,.3,2.14,.9,.79,1.41,.79,2.43Zm-4.89,0c0,.82,.16,1.45,.49,1.88s.81,.64,1.45,.64,1.12-.21,1.45-.64,.5-1.05,.5-1.88-.17-1.44-.5-1.86-.82-.64-1.46-.64-1.12,.21-1.44,.63-.49,1.04-.49,1.87Z"/><path class="cls-8" d="M236.01,255.12c0,.6-.22,1.06-.67,1.38s-1.07,.49-1.88,.49c-.85,0-1.52-.13-1.99-.4v-.9c.31,.16,.64,.28,.99,.37s.69,.13,1.02,.13c.51,0,.9-.08,1.17-.24s.41-.41,.41-.74c0-.25-.11-.46-.33-.64s-.64-.39-1.27-.63c-.6-.22-1.02-.42-1.27-.58s-.44-.35-.56-.57-.18-.46-.18-.76c0-.52,.21-.94,.64-1.24s1.01-.45,1.75-.45c.69,0,1.37,.14,2.03,.42l-.35,.79c-.64-.27-1.23-.4-1.75-.4-.46,0-.81,.07-1.04,.22s-.35,.34-.35,.6c0,.17,.04,.32,.13,.44s.23,.24,.42,.35,.57,.27,1.12,.47c.76,.28,1.28,.56,1.54,.84s.4,.63,.4,1.06Z"/></g><g><path class="cls-1" d="M72.95,118.18v-11.42h1.33v11.42h-1.33Z"/><path class="cls-1" d="M83.07,118.18v-5.54c0-.7-.16-1.22-.48-1.56s-.82-.52-1.49-.52c-.9,0-1.55,.24-1.97,.73s-.62,1.28-.62,2.4v4.49h-1.3v-8.56h1.05l.21,1.17h.06c.27-.42,.64-.75,1.12-.98,.48-.23,1.01-.35,1.6-.35,1.03,0,1.81,.25,2.33,.75,.52,.5,.78,1.29,.78,2.39v5.59h-1.3Z"/><path class="cls-1" d="M94.04,109.62v.82l-1.59,.19c.15,.18,.28,.42,.39,.71,.11,.29,.17,.63,.17,1,0,.84-.29,1.51-.86,2.01s-1.36,.75-2.36,.75c-.25,0-.5-.02-.72-.06-.55,.29-.83,.66-.83,1.1,0,.23,.1,.41,.29,.52,.19,.11,.52,.17,.99,.17h1.52c.93,0,1.64,.2,2.14,.59s.75,.96,.75,1.7c0,.95-.38,1.67-1.14,2.17s-1.87,.75-3.33,.75c-1.12,0-1.98-.21-2.59-.62s-.91-1-.91-1.77c0-.52,.17-.97,.5-1.35s.8-.64,1.41-.77c-.22-.1-.4-.25-.55-.46-.15-.21-.22-.45-.22-.73,0-.31,.08-.59,.25-.82s.43-.46,.79-.68c-.44-.18-.8-.49-1.08-.93s-.42-.94-.42-1.5c0-.94,.28-1.66,.84-2.17s1.36-.76,2.39-.76c.45,0,.85,.05,1.21,.16h2.96Zm-6.83,10c0,.46,.2,.82,.59,1.05s.95,.36,1.68,.36c1.09,0,1.89-.16,2.42-.49s.79-.77,.79-1.32c0-.46-.14-.79-.43-.96s-.83-.27-1.62-.27h-1.55c-.59,0-1.05,.14-1.38,.42s-.49,.68-.49,1.21Zm.7-7.26c0,.6,.17,1.05,.51,1.36,.34,.31,.81,.46,1.41,.46,1.27,0,1.9-.61,1.9-1.84s-.64-1.93-1.92-1.93c-.61,0-1.08,.16-1.41,.49s-.49,.82-.49,1.46Z"/><path class="cls-1" d="M99.7,109.47c.38,0,.72,.03,1.02,.09l-.18,1.2c-.35-.08-.67-.12-.94-.12-.69,0-1.29,.28-1.78,.84s-.74,1.26-.74,2.1v4.59h-1.3v-8.56h1.07l.15,1.59h.06c.32-.56,.7-.99,1.15-1.29,.45-.3,.94-.45,1.48-.45Z"/><path class="cls-1" d="M105.95,118.34c-1.27,0-2.26-.38-3-1.16-.73-.77-1.1-1.84-1.1-3.21s.34-2.48,1.02-3.29,1.59-1.22,2.74-1.22c1.07,0,1.92,.35,2.55,1.06,.62,.71,.94,1.64,.94,2.79v.82h-5.9c.03,1.01,.28,1.77,.76,2.29,.48,.52,1.16,.78,2.04,.78,.92,0,1.83-.19,2.73-.58v1.16c-.46,.2-.89,.34-1.3,.43s-.9,.13-1.48,.13Zm-.35-7.79c-.69,0-1.24,.22-1.64,.67-.41,.45-.65,1.07-.72,1.86h4.48c0-.82-.18-1.44-.55-1.88-.36-.43-.89-.65-1.56-.65Z"/><path class="cls-1" d="M116.83,115.85c0,.8-.3,1.41-.89,1.84-.59,.43-1.43,.65-2.5,.65-1.14,0-2.02-.18-2.66-.54v-1.2c.41,.21,.85,.37,1.32,.49,.47,.12,.93,.18,1.36,.18,.68,0,1.2-.11,1.56-.32,.36-.22,.55-.54,.55-.99,0-.33-.14-.62-.43-.86-.29-.24-.85-.52-1.69-.84-.8-.3-1.36-.56-1.7-.78-.34-.22-.59-.47-.75-.75s-.25-.62-.25-1.01c0-.7,.28-1.25,.85-1.65,.57-.4,1.35-.61,2.34-.61,.92,0,1.82,.19,2.7,.56l-.46,1.05c-.86-.35-1.64-.53-2.34-.53-.61,0-1.08,.1-1.39,.29-.31,.19-.47,.46-.47,.8,0,.23,.06,.42,.18,.59,.12,.16,.31,.32,.57,.46,.26,.15,.76,.36,1.5,.63,1.02,.37,1.7,.74,2.06,1.12s.54,.85,.54,1.41Z"/><path class="cls-1" d="M124.2,118.18l-.26-1.22h-.06c-.43,.54-.85,.9-1.28,1.09-.42,.19-.95,.29-1.59,.29-.85,0-1.51-.22-2-.66s-.72-1.06-.72-1.87c0-1.73,1.38-2.63,4.15-2.72l1.45-.05v-.53c0-.67-.14-1.17-.43-1.49s-.75-.48-1.39-.48c-.71,0-1.52,.22-2.42,.66l-.4-.99c.42-.23,.88-.41,1.39-.54,.5-.13,1.01-.2,1.51-.2,1.02,0,1.78,.23,2.27,.68s.74,1.18,.74,2.18v5.84h-.96Zm-2.93-.91c.81,0,1.44-.22,1.9-.66,.46-.44,.69-1.06,.69-1.86v-.77l-1.3,.05c-1.03,.04-1.77,.2-2.23,.48-.46,.28-.68,.73-.68,1.32,0,.47,.14,.83,.43,1.07,.28,.25,.68,.37,1.19,.37Z"/><path class="cls-1" d="M133.29,118.18h-1.3v-12.16h1.3v12.16Z"/><path class="cls-1" d="M143.43,113.9c0,1.4-.35,2.49-1.05,3.27-.7,.78-1.67,1.18-2.91,1.18-.77,0-1.45-.18-2.04-.54s-1.05-.88-1.38-1.55-.48-1.46-.48-2.36c0-1.4,.35-2.48,1.05-3.26,.7-.78,1.67-1.17,2.91-1.17s2.15,.4,2.86,1.2,1.06,1.88,1.06,3.23Zm-6.52,0c0,1.09,.22,1.93,.66,2.5,.44,.57,1.08,.86,1.93,.86s1.49-.29,1.93-.86,.66-1.4,.66-2.5-.22-1.92-.66-2.48c-.44-.56-1.09-.85-1.95-.85s-1.49,.28-1.92,.84c-.43,.56-.65,1.39-.65,2.49Z"/><path class="cls-1" d="M151.23,115.85c0,.8-.3,1.41-.89,1.84-.59,.43-1.43,.65-2.5,.65-1.14,0-2.02-.18-2.66-.54v-1.2c.41,.21,.85,.37,1.32,.49,.47,.12,.93,.18,1.36,.18,.68,0,1.2-.11,1.56-.32,.36-.22,.55-.54,.55-.99,0-.33-.14-.62-.43-.86-.29-.24-.85-.52-1.69-.84-.8-.3-1.36-.56-1.7-.78-.34-.22-.59-.47-.75-.75s-.25-.62-.25-1.01c0-.7,.28-1.25,.85-1.65,.57-.4,1.35-.61,2.34-.61,.92,0,1.82,.19,2.7,.56l-.46,1.05c-.86-.35-1.64-.53-2.34-.53-.61,0-1.08,.1-1.39,.29-.31,.19-.47,.46-.47,.8,0,.23,.06,.42,.18,.59,.12,.16,.31,.32,.57,.46,.26,.15,.76,.36,1.5,.63,1.02,.37,1.7,.74,2.06,1.12s.54,.85,.54,1.41Z"/><path class="cls-1" d="M157.03,113.3c0-2.24,.44-3.92,1.31-5.04,.87-1.11,2.16-1.67,3.87-1.67,.59,0,1.05,.05,1.39,.15v1.12c-.4-.13-.86-.2-1.38-.2-1.22,0-2.16,.38-2.8,1.14-.65,.76-1,1.96-1.06,3.6h.09c.57-.9,1.48-1.34,2.72-1.34,1.03,0,1.83,.31,2.43,.93,.59,.62,.89,1.46,.89,2.52,0,1.19-.32,2.12-.97,2.8s-1.52,1.02-2.63,1.02c-1.18,0-2.12-.44-2.81-1.33-.69-.89-1.04-2.12-1.04-3.71Zm3.84,3.94c.74,0,1.31-.23,1.72-.7,.41-.47,.61-1.14,.61-2.02,0-.75-.19-1.35-.57-1.78-.38-.43-.95-.65-1.7-.65-.47,0-.9,.1-1.29,.29-.39,.19-.7,.46-.93,.8-.23,.34-.35,.69-.35,1.05,0,.54,.1,1.04,.31,1.5,.21,.46,.5,.83,.89,1.1,.38,.27,.82,.41,1.31,.41Z"/><path class="cls-1" d="M176.66,118.18v-5.54c0-.7-.16-1.22-.48-1.56s-.82-.52-1.49-.52c-.9,0-1.55,.24-1.97,.73s-.62,1.28-.62,2.4v4.49h-1.3v-8.56h1.05l.21,1.17h.06c.27-.42,.64-.75,1.12-.98,.48-.23,1.01-.35,1.6-.35,1.03,0,1.81,.25,2.33,.75,.52,.5,.78,1.29,.78,2.39v5.59h-1.3Z"/><path class="cls-1" d="M181.84,109.62v5.55c0,.7,.16,1.22,.48,1.56s.82,.52,1.49,.52c.9,0,1.55-.24,1.96-.73,.41-.49,.62-1.29,.62-2.4v-4.5h1.3v8.56h-1.07l-.19-1.15h-.07c-.27,.42-.63,.75-1.11,.97s-1.01,.34-1.61,.34c-1.04,0-1.82-.25-2.34-.74-.52-.49-.78-1.29-.78-2.38v-5.6h1.31Zm1.36-1.33c.25-.32,.52-.71,.81-1.17,.29-.46,.52-.86,.68-1.2h1.58v.16c-.23,.34-.57,.76-1.02,1.25-.45,.5-.85,.88-1.18,1.15h-.87v-.2Z"/><path class="cls-1" d="M201.35,118.18v-5.57c0-.68-.15-1.19-.44-1.54-.29-.34-.75-.51-1.36-.51-.81,0-1.4,.23-1.79,.7-.39,.46-.58,1.18-.58,2.14v4.78h-1.3v-5.57c0-.68-.15-1.19-.44-1.54-.29-.34-.75-.51-1.37-.51-.81,0-1.41,.24-1.79,.73-.38,.49-.57,1.29-.57,2.39v4.49h-1.3v-8.56h1.05l.21,1.17h.06c.25-.42,.59-.74,1.04-.98s.94-.35,1.5-.35c1.34,0,2.21,.48,2.62,1.45h.06c.25-.45,.62-.8,1.11-1.06,.48-.26,1.04-.39,1.66-.39,.97,0,1.69,.25,2.18,.75,.48,.5,.72,1.29,.72,2.39v5.59h-1.3Z"/><path class="cls-1" d="M208.94,118.34c-1.27,0-2.26-.38-3-1.16-.73-.77-1.1-1.84-1.1-3.21s.34-2.48,1.02-3.29,1.59-1.22,2.74-1.22c1.07,0,1.92,.35,2.55,1.06,.62,.71,.94,1.64,.94,2.79v.82h-5.9c.03,1.01,.28,1.77,.76,2.29,.48,.52,1.16,.78,2.04,.78,.92,0,1.83-.19,2.73-.58v1.16c-.46,.2-.89,.34-1.3,.43s-.9,.13-1.48,.13Zm-.35-7.79c-.69,0-1.24,.22-1.64,.67-.41,.45-.65,1.07-.72,1.86h4.48c0-.82-.18-1.44-.55-1.88-.36-.43-.89-.65-1.56-.65Z"/><path class="cls-1" d="M218.2,109.47c.38,0,.72,.03,1.02,.09l-.18,1.2c-.35-.08-.67-.12-.94-.12-.69,0-1.29,.28-1.78,.84s-.74,1.26-.74,2.1v4.59h-1.3v-8.56h1.07l.15,1.59h.06c.32-.56,.7-.99,1.15-1.29,.45-.3,.94-.45,1.48-.45Z"/><path class="cls-1" d="M228.22,113.9c0,1.4-.35,2.49-1.05,3.27-.7,.78-1.67,1.18-2.91,1.18-.77,0-1.45-.18-2.04-.54s-1.05-.88-1.38-1.55-.48-1.46-.48-2.36c0-1.4,.35-2.48,1.05-3.26,.7-.78,1.67-1.17,2.91-1.17s2.15,.4,2.86,1.2,1.06,1.88,1.06,3.23Zm-6.52,0c0,1.09,.22,1.93,.66,2.5,.44,.57,1.08,.86,1.93,.86s1.49-.29,1.93-.86,.66-1.4,.66-2.5-.22-1.92-.66-2.48c-.44-.56-1.09-.85-1.95-.85s-1.49,.28-1.92,.84c-.43,.56-.65,1.39-.65,2.49Z"/><path class="cls-1" d="M236.02,115.85c0,.8-.3,1.41-.89,1.84-.59,.43-1.43,.65-2.5,.65-1.14,0-2.02-.18-2.66-.54v-1.2c.41,.21,.85,.37,1.32,.49,.47,.12,.93,.18,1.36,.18,.68,0,1.2-.11,1.56-.32,.36-.22,.55-.54,.55-.99,0-.33-.14-.62-.43-.86-.29-.24-.85-.52-1.69-.84-.8-.3-1.36-.56-1.7-.78-.34-.22-.59-.47-.75-.75s-.25-.62-.25-1.01c0-.7,.28-1.25,.85-1.65,.57-.4,1.35-.61,2.34-.61,.92,0,1.82,.19,2.7,.56l-.46,1.05c-.86-.35-1.64-.53-2.34-.53-.61,0-1.08,.1-1.39,.29-.31,.19-.47,.46-.47,.8,0,.23,.06,.42,.18,.59,.12,.16,.31,.32,.57,.46,.26,.15,.76,.36,1.5,.63,1.02,.37,1.7,.74,2.06,1.12s.54,.85,.54,1.41Z"/><path class="cls-1" d="M245.32,118.34c-1.1,0-1.97-.39-2.59-1.16-.62-.78-.93-1.86-.93-3.25s.31-2.49,.94-3.28c.62-.79,1.5-1.18,2.61-1.18,1.17,0,2.07,.44,2.7,1.33h.07l.19-1.17h1.02v12.41h-1.3v-3.66c0-.52,.03-.96,.09-1.33h-.1c-.6,.87-1.5,1.3-2.7,1.3Zm.2-1.09c.86,0,1.5-.23,1.89-.7,.4-.46,.61-1.24,.63-2.34v-.29c0-1.2-.2-2.06-.61-2.59-.41-.53-1.05-.79-1.93-.79-.76,0-1.34,.3-1.75,.89-.4,.59-.61,1.43-.61,2.5s.2,1.9,.6,2.46c.4,.57,.99,.85,1.77,.85Z"/><path class="cls-1" d="M253.3,109.62v5.55c0,.7,.16,1.22,.48,1.56s.82,.52,1.49,.52c.9,0,1.55-.24,1.96-.73,.41-.49,.62-1.29,.62-2.4v-4.5h1.3v8.56h-1.07l-.19-1.15h-.07c-.27,.42-.63,.75-1.11,.97s-1.01,.34-1.61,.34c-1.04,0-1.82-.25-2.34-.74-.52-.49-.78-1.29-.78-2.38v-5.6h1.31Z"/><path class="cls-1" d="M265.52,118.34c-1.27,0-2.26-.38-3-1.16-.73-.77-1.1-1.84-1.1-3.21s.34-2.48,1.02-3.29,1.59-1.22,2.74-1.22c1.07,0,1.92,.35,2.55,1.06,.62,.71,.94,1.64,.94,2.79v.82h-5.9c.03,1.01,.28,1.77,.76,2.29,.48,.52,1.16,.78,2.04,.78,.92,0,1.83-.19,2.73-.58v1.16c-.46,.2-.89,.34-1.3,.43s-.9,.13-1.48,.13Zm-.35-7.79c-.69,0-1.24,.22-1.64,.67-.41,.45-.65,1.07-.72,1.86h4.48c0-.82-.18-1.44-.55-1.88-.36-.43-.89-.65-1.56-.65Z"/><path class="cls-1" d="M282.05,109.62v.82l-1.59,.19c.15,.18,.28,.42,.39,.71,.11,.29,.17,.63,.17,1,0,.84-.29,1.51-.86,2.01s-1.36,.75-2.36,.75c-.25,0-.5-.02-.72-.06-.55,.29-.83,.66-.83,1.1,0,.23,.1,.41,.29,.52,.19,.11,.52,.17,.99,.17h1.52c.93,0,1.64,.2,2.14,.59s.75,.96,.75,1.7c0,.95-.38,1.67-1.14,2.17s-1.87,.75-3.33,.75c-1.12,0-1.98-.21-2.59-.62s-.91-1-.91-1.77c0-.52,.17-.97,.5-1.35s.8-.64,1.41-.77c-.22-.1-.4-.25-.55-.46-.15-.21-.22-.45-.22-.73,0-.31,.08-.59,.25-.82s.43-.46,.79-.68c-.44-.18-.8-.49-1.08-.93s-.42-.94-.42-1.5c0-.94,.28-1.66,.84-2.17s1.36-.76,2.39-.76c.45,0,.85,.05,1.21,.16h2.96Zm-6.83,10c0,.46,.2,.82,.59,1.05s.95,.36,1.68,.36c1.09,0,1.89-.16,2.42-.49s.79-.77,.79-1.32c0-.46-.14-.79-.43-.96s-.83-.27-1.62-.27h-1.55c-.59,0-1.05,.14-1.38,.42s-.49,.68-.49,1.21Zm.7-7.26c0,.6,.17,1.05,.51,1.36,.34,.31,.81,.46,1.41,.46,1.27,0,1.9-.61,1.9-1.84s-.64-1.93-1.92-1.93c-.61,0-1.08,.16-1.41,.49s-.49,.82-.49,1.46Z"/><path class="cls-1" d="M287.42,118.34c-1.27,0-2.26-.38-3-1.16-.73-.77-1.1-1.84-1.1-3.21s.34-2.48,1.02-3.29,1.59-1.22,2.74-1.22c1.07,0,1.92,.35,2.55,1.06,.62,.71,.94,1.64,.94,2.79v.82h-5.9c.03,1.01,.28,1.77,.76,2.29,.48,.52,1.16,.78,2.04,.78,.92,0,1.83-.19,2.73-.58v1.16c-.46,.2-.89,.34-1.3,.43s-.9,.13-1.48,.13Zm-.35-7.79c-.69,0-1.24,.22-1.64,.67-.41,.45-.65,1.07-.72,1.86h4.48c0-.82-.18-1.44-.55-1.88-.36-.43-.89-.65-1.56-.65Z"/><path class="cls-1" d="M298.64,118.18v-5.54c0-.7-.16-1.22-.48-1.56s-.82-.52-1.49-.52c-.9,0-1.55,.24-1.97,.73s-.62,1.28-.62,2.4v4.49h-1.3v-8.56h1.05l.21,1.17h.06c.27-.42,.64-.75,1.12-.98,.48-.23,1.01-.35,1.6-.35,1.03,0,1.81,.25,2.33,.75,.52,.5,.78,1.29,.78,2.39v5.59h-1.3Z"/><path class="cls-1" d="M306.22,118.34c-1.27,0-2.26-.38-3-1.16-.73-.77-1.1-1.84-1.1-3.21s.34-2.48,1.02-3.29,1.59-1.22,2.74-1.22c1.07,0,1.92,.35,2.55,1.06,.62,.71,.94,1.64,.94,2.79v.82h-5.9c.03,1.01,.28,1.77,.76,2.29,.48,.52,1.16,.78,2.04,.78,.92,0,1.83-.19,2.73-.58v1.16c-.46,.2-.89,.34-1.3,.43s-.9,.13-1.48,.13Zm-.35-7.79c-.69,0-1.24,.22-1.64,.67-.41,.45-.65,1.07-.72,1.86h4.48c0-.82-.18-1.44-.55-1.88-.36-.43-.89-.65-1.56-.65Z"/><path class="cls-1" d="M315.48,109.47c.38,0,.72,.03,1.02,.09l-.18,1.2c-.35-.08-.67-.12-.94-.12-.69,0-1.29,.28-1.78,.84s-.74,1.26-.74,2.1v4.59h-1.3v-8.56h1.07l.15,1.59h.06c.32-.56,.7-.99,1.15-1.29,.45-.3,.94-.45,1.48-.45Z"/><path class="cls-1" d="M323.37,118.18l-.26-1.22h-.06c-.43,.54-.85,.9-1.28,1.09-.42,.19-.95,.29-1.59,.29-.85,0-1.51-.22-2-.66s-.72-1.06-.72-1.87c0-1.73,1.38-2.63,4.15-2.72l1.45-.05v-.53c0-.67-.14-1.17-.43-1.49s-.75-.48-1.39-.48c-.71,0-1.52,.22-2.42,.66l-.4-.99c.42-.23,.88-.41,1.39-.54,.5-.13,1.01-.2,1.51-.2,1.02,0,1.78,.23,2.27,.68s.74,1.18,.74,2.18v5.84h-.96Zm-2.93-.91c.81,0,1.44-.22,1.9-.66,.46-.44,.69-1.06,.69-1.86v-.77l-1.3,.05c-1.03,.04-1.77,.2-2.23,.48-.46,.28-.68,.73-.68,1.32,0,.47,.14,.83,.43,1.07,.28,.25,.68,.37,1.19,.37Z"/><path class="cls-1" d="M332.53,115.85c0,.8-.3,1.41-.89,1.84-.59,.43-1.43,.65-2.5,.65-1.14,0-2.02-.18-2.66-.54v-1.2c.41,.21,.85,.37,1.32,.49,.47,.12,.93,.18,1.36,.18,.68,0,1.2-.11,1.56-.32,.36-.22,.55-.54,.55-.99,0-.33-.14-.62-.43-.86-.29-.24-.85-.52-1.69-.84-.8-.3-1.36-.56-1.7-.78-.34-.22-.59-.47-.75-.75s-.25-.62-.25-1.01c0-.7,.28-1.25,.85-1.65,.57-.4,1.35-.61,2.34-.61,.92,0,1.82,.19,2.7,.56l-.46,1.05c-.86-.35-1.64-.53-2.34-.53-.61,0-1.08,.1-1.39,.29-.31,.19-.47,.46-.47,.8,0,.23,.06,.42,.18,.59,.12,.16,.31,.32,.57,.46,.26,.15,.76,.36,1.5,.63,1.02,.37,1.7,.74,2.06,1.12s.54,.85,.54,1.41Z"/><path class="cls-1" d="M337.41,117.27c.23,0,.45-.02,.66-.05,.21-.03,.38-.07,.51-.11v.99c-.14,.07-.35,.12-.62,.17s-.52,.07-.74,.07c-1.66,0-2.48-.87-2.48-2.62v-5.09h-1.23v-.62l1.23-.54,.55-1.83h.75v1.98h2.48v1.01h-2.48v5.04c0,.52,.12,.91,.37,1.19,.25,.28,.58,.41,1.01,.41Z"/><path class="cls-1" d="M343.91,118.34c-1.27,0-2.26-.38-3-1.16-.73-.77-1.1-1.84-1.1-3.21s.34-2.48,1.02-3.29,1.59-1.22,2.74-1.22c1.07,0,1.92,.35,2.55,1.06,.62,.71,.94,1.64,.94,2.79v.82h-5.9c.03,1.01,.28,1.77,.76,2.29,.48,.52,1.16,.78,2.04,.78,.92,0,1.83-.19,2.73-.58v1.16c-.46,.2-.89,.34-1.3,.43s-.9,.13-1.48,.13Zm-.35-7.79c-.69,0-1.24,.22-1.64,.67-.41,.45-.65,1.07-.72,1.86h4.48c0-.82-.18-1.44-.55-1.88-.36-.43-.89-.65-1.56-.65Z"/><path class="cls-1" d="M135.14,137.54c-1.27,0-2.26-.38-3-1.16-.73-.77-1.1-1.84-1.1-3.21s.34-2.48,1.02-3.29,1.59-1.22,2.74-1.22c1.07,0,1.92,.35,2.55,1.06,.62,.71,.94,1.64,.94,2.79v.82h-5.9c.03,1.01,.28,1.77,.76,2.29,.48,.52,1.16,.78,2.04,.78,.92,0,1.83-.19,2.73-.58v1.16c-.46,.2-.89,.34-1.3,.43s-.9,.13-1.48,.13Zm-.35-7.79c-.69,0-1.24,.22-1.64,.67-.41,.45-.65,1.07-.72,1.86h4.48c0-.82-.18-1.44-.55-1.88-.36-.43-.89-.65-1.56-.65Z"/><path class="cls-1" d="M146.36,137.38v-5.54c0-.7-.16-1.22-.48-1.56s-.82-.52-1.49-.52c-.9,0-1.55,.24-1.97,.73s-.62,1.28-.62,2.4v4.49h-1.3v-8.56h1.05l.21,1.17h.06c.27-.42,.64-.75,1.12-.98,.48-.23,1.01-.35,1.6-.35,1.03,0,1.81,.25,2.33,.75,.52,.5,.78,1.29,.78,2.39v5.59h-1.3Z"/><path class="cls-1" d="M155.77,137.38h-1.3v-12.16h1.3v12.16Z"/><path class="cls-1" d="M163.78,137.38l-.26-1.22h-.06c-.43,.54-.85,.9-1.28,1.09-.42,.19-.95,.29-1.59,.29-.85,0-1.51-.22-2-.66s-.72-1.06-.72-1.87c0-1.73,1.38-2.63,4.15-2.72l1.45-.05v-.53c0-.67-.14-1.17-.43-1.49s-.75-.48-1.39-.48c-.71,0-1.52,.22-2.42,.66l-.4-.99c.42-.23,.88-.41,1.39-.54,.5-.13,1.01-.2,1.51-.2,1.02,0,1.78,.23,2.27,.68s.74,1.18,.74,2.18v5.84h-.96Zm-2.93-.91c.81,0,1.44-.22,1.9-.66,.46-.44,.69-1.06,.69-1.86v-.77l-1.3,.05c-1.03,.04-1.77,.2-2.23,.48-.46,.28-.68,.73-.68,1.32,0,.47,.14,.83,.43,1.07,.28,.25,.68,.37,1.19,.37Z"/><path class="cls-1" d="M176.84,137.38l-.26-1.22h-.06c-.43,.54-.85,.9-1.28,1.09-.42,.19-.95,.29-1.59,.29-.85,0-1.51-.22-2-.66s-.72-1.06-.72-1.87c0-1.73,1.38-2.63,4.15-2.72l1.45-.05v-.53c0-.67-.14-1.17-.43-1.49s-.75-.48-1.39-.48c-.71,0-1.52,.22-2.42,.66l-.4-.99c.42-.23,.88-.41,1.39-.54,.5-.13,1.01-.2,1.51-.2,1.02,0,1.78,.23,2.27,.68s.74,1.18,.74,2.18v5.84h-.96Zm-2.93-.91c.81,0,1.44-.22,1.9-.66,.46-.44,.69-1.06,.69-1.86v-.77l-1.3,.05c-1.03,.04-1.77,.2-2.23,.48-.46,.28-.68,.73-.68,1.32,0,.47,.14,.83,.43,1.07,.28,.25,.68,.37,1.19,.37Z"/><path class="cls-1" d="M184.46,137.54c-.56,0-1.07-.1-1.53-.31-.46-.21-.85-.52-1.16-.95h-.09c.06,.5,.09,.97,.09,1.42v3.52h-1.3v-12.41h1.05l.18,1.17h.06c.33-.47,.72-.81,1.16-1.02,.44-.21,.95-.31,1.52-.31,1.14,0,2.01,.39,2.63,1.16,.62,.78,.93,1.87,.93,3.27s-.31,2.5-.94,3.28c-.63,.78-1.5,1.17-2.61,1.17Zm-.19-7.77c-.88,0-1.51,.24-1.9,.73s-.59,1.26-.6,2.31v.29c0,1.2,.2,2.06,.6,2.58,.4,.52,1.04,.78,1.93,.78,.74,0,1.32-.3,1.74-.9,.42-.6,.63-1.42,.63-2.48s-.21-1.89-.63-2.46-1.01-.86-1.77-.86Z"/><path class="cls-1" d="M194.26,137.54c-.56,0-1.07-.1-1.53-.31-.46-.21-.85-.52-1.16-.95h-.09c.06,.5,.09,.97,.09,1.42v3.52h-1.3v-12.41h1.05l.18,1.17h.06c.33-.47,.72-.81,1.16-1.02,.44-.21,.95-.31,1.52-.31,1.14,0,2.01,.39,2.63,1.16,.62,.78,.93,1.87,.93,3.27s-.31,2.5-.94,3.28c-.63,.78-1.5,1.17-2.61,1.17Zm-.19-7.77c-.88,0-1.51,.24-1.9,.73s-.59,1.26-.6,2.31v.29c0,1.2,.2,2.06,.6,2.58,.4,.52,1.04,.78,1.93,.78,.74,0,1.32-.3,1.74-.9,.42-.6,.63-1.42,.63-2.48s-.21-1.89-.63-2.46-1.01-.86-1.77-.86Z"/><path class="cls-1" d="M204.43,125.96h3.23c1.52,0,2.61,.23,3.29,.68s1.02,1.17,1.02,2.15c0,.68-.19,1.24-.57,1.68-.38,.44-.93,.73-1.65,.86v.08c1.73,.3,2.6,1.21,2.6,2.73,0,1.02-.34,1.82-1.04,2.39-.69,.57-1.66,.86-2.89,.86h-3.98v-11.42Zm1.33,4.89h2.19c.94,0,1.61-.15,2.02-.44,.41-.29,.62-.79,.62-1.49,0-.64-.23-1.1-.69-1.39-.46-.28-1.19-.43-2.19-.43h-1.95v3.74Zm0,1.12v4.27h2.38c.92,0,1.62-.18,2.08-.54,.47-.36,.7-.92,.7-1.68,0-.71-.24-1.23-.71-1.56-.48-.33-1.2-.5-2.18-.5h-2.27Z"/><path class="cls-1" d="M219.87,137.38l-.26-1.22h-.06c-.43,.54-.85,.9-1.28,1.09-.42,.19-.95,.29-1.59,.29-.85,0-1.51-.22-2-.66s-.72-1.06-.72-1.87c0-1.73,1.38-2.63,4.15-2.72l1.45-.05v-.53c0-.67-.14-1.17-.43-1.49s-.75-.48-1.39-.48c-.71,0-1.52,.22-2.42,.66l-.4-.99c.42-.23,.88-.41,1.39-.54,.5-.13,1.01-.2,1.51-.2,1.02,0,1.78,.23,2.27,.68s.74,1.18,.74,2.18v5.84h-.96Zm-2.93-.91c.81,0,1.44-.22,1.9-.66,.46-.44,.69-1.06,.69-1.86v-.77l-1.3,.05c-1.03,.04-1.77,.2-2.23,.48-.46,.28-.68,.73-.68,1.32,0,.47,.14,.83,.43,1.07,.28,.25,.68,.37,1.19,.37Z"/><path class="cls-1" d="M229.36,137.38v-5.54c0-.7-.16-1.22-.48-1.56s-.82-.52-1.49-.52c-.9,0-1.55,.24-1.97,.73s-.62,1.28-.62,2.4v4.49h-1.3v-8.56h1.05l.21,1.17h.06c.27-.42,.64-.75,1.12-.98,.48-.23,1.01-.35,1.6-.35,1.03,0,1.81,.25,2.33,.75,.52,.5,.78,1.29,.78,2.39v5.59h-1.3Z"/><path class="cls-1" d="M236.75,137.54c-1.24,0-2.2-.38-2.88-1.14-.68-.76-1.02-1.84-1.02-3.24s.34-2.54,1.04-3.32,1.67-1.17,2.95-1.17c.41,0,.82,.04,1.23,.13,.41,.09,.73,.19,.97,.31l-.4,1.1c-.29-.11-.6-.21-.94-.29-.34-.08-.64-.11-.9-.11-1.74,0-2.61,1.11-2.61,3.33,0,1.05,.21,1.86,.64,2.42s1.05,.84,1.89,.84c.71,0,1.45-.15,2.2-.46v1.15c-.57,.3-1.29,.45-2.16,.45Z"/><path class="cls-1" d="M246.21,137.38l-.26-1.22h-.06c-.43,.54-.85,.9-1.28,1.09-.42,.19-.95,.29-1.59,.29-.85,0-1.51-.22-2-.66s-.72-1.06-.72-1.87c0-1.73,1.38-2.63,4.15-2.72l1.45-.05v-.53c0-.67-.14-1.17-.43-1.49s-.75-.48-1.39-.48c-.71,0-1.52,.22-2.42,.66l-.4-.99c.42-.23,.88-.41,1.39-.54,.5-.13,1.01-.2,1.51-.2,1.02,0,1.78,.23,2.27,.68s.74,1.18,.74,2.18v5.84h-.96Zm-2.93-.91c.81,0,1.44-.22,1.9-.66,.46-.44,.69-1.06,.69-1.86v-.77l-1.3,.05c-1.03,.04-1.77,.2-2.23,.48-.46,.28-.68,.73-.68,1.32,0,.47,.14,.83,.43,1.07,.28,.25,.68,.37,1.19,.37Z"/><path class="cls-1" d="M264.91,137.38v-5.57c0-.68-.15-1.19-.44-1.54-.29-.34-.75-.51-1.36-.51-.81,0-1.4,.23-1.79,.7-.39,.46-.58,1.18-.58,2.14v4.78h-1.3v-5.57c0-.68-.15-1.19-.44-1.54-.29-.34-.75-.51-1.37-.51-.81,0-1.41,.24-1.79,.73-.38,.49-.57,1.29-.57,2.39v4.49h-1.3v-8.56h1.05l.21,1.17h.06c.25-.42,.59-.74,1.04-.98s.94-.35,1.5-.35c1.34,0,2.21,.48,2.62,1.45h.06c.25-.45,.62-.8,1.11-1.06,.48-.26,1.04-.39,1.66-.39,.97,0,1.69,.25,2.18,.75,.48,.5,.72,1.29,.72,2.39v5.59h-1.3Z"/><path class="cls-1" d="M276.27,133.1c0,1.4-.35,2.49-1.05,3.27-.7,.78-1.67,1.18-2.91,1.18-.77,0-1.45-.18-2.04-.54s-1.05-.88-1.38-1.55-.48-1.46-.48-2.36c0-1.4,.35-2.48,1.05-3.26,.7-.78,1.67-1.17,2.91-1.17s2.15,.4,2.86,1.2,1.06,1.88,1.06,3.23Zm-6.52,0c0,1.09,.22,1.93,.66,2.5,.44,.57,1.08,.86,1.93,.86s1.49-.29,1.93-.86,.66-1.4,.66-2.5-.22-1.92-.66-2.48c-.44-.56-1.09-.85-1.95-.85s-1.49,.28-1.92,.84c-.43,.56-.65,1.39-.65,2.49Zm1.5-5.6c.25-.32,.52-.71,.81-1.17,.29-.46,.52-.86,.68-1.2h1.58v.16c-.23,.34-.57,.76-1.02,1.25-.45,.5-.85,.88-1.18,1.15h-.87v-.2Z"/><path class="cls-1" d="M280.42,137.38l-3.25-8.56h1.39l1.84,5.08c.42,1.19,.66,1.96,.73,2.31h.06c.06-.28,.24-.85,.54-1.71s.99-2.76,2.05-5.68h1.39l-3.25,8.56h-1.52Z"/><path class="cls-1" d="M286.45,126.5c0-.3,.07-.51,.22-.65,.15-.14,.33-.21,.55-.21s.39,.07,.54,.21,.23,.36,.23,.65-.08,.51-.23,.65c-.15,.14-.33,.21-.54,.21-.22,0-.4-.07-.55-.21-.15-.14-.22-.36-.22-.65Zm1.41,10.88h-1.3v-8.56h1.3v8.56Z"/><path class="cls-1" d="M291.9,137.38h-1.3v-12.16h1.3v12.16Z"/></g><g><path class="cls-5" d="M57.66,471.06v1.34h-.58v-.75h-1.47v5.62h.69v.59h-2.12v-.59h.69v-5.62h-1.47v.75h-.59v-1.34h4.85Z"/><path class="cls-5" d="M58.04,475.45c0,.28,.04,.54,.11,.78,.07,.24,.17,.44,.32,.61s.33,.3,.55,.39c.23,.09,.5,.14,.83,.14,.25,0,.51-.01,.76-.03,.25-.02,.52-.08,.8-.17l.09,.57c-.3,.09-.58,.15-.86,.18-.27,.03-.57,.04-.89,.04-.45,0-.83-.06-1.15-.19-.31-.13-.56-.3-.75-.54-.19-.23-.33-.5-.42-.82-.09-.32-.13-.67-.13-1.06s.04-.74,.12-1.05,.22-.59,.41-.82c.19-.23,.44-.41,.74-.54,.3-.13,.67-.19,1.11-.19,.52,0,.92,.09,1.2,.27,.28,.18,.48,.41,.59,.69,.12,.27,.17,.56,.17,.88,0,.31-.03,.59-.09,.85h-3.53Zm1.61-2.14c-.29,0-.53,.04-.72,.13-.2,.09-.36,.21-.48,.36-.12,.15-.22,.33-.28,.54-.06,.2-.11,.42-.12,.65h2.85c.04-.19,.05-.39,.04-.59s-.06-.38-.15-.54c-.09-.16-.23-.29-.41-.39-.18-.1-.42-.16-.73-.16Zm.32-1.05h-.4l.63-1.4h.62l-.85,1.4Z"/><path class="cls-5" d="M62.31,472.86h1.39v.8h.02c.11-.11,.24-.22,.39-.33,.14-.11,.3-.2,.46-.29,.17-.09,.34-.16,.53-.21,.19-.05,.38-.08,.58-.08v.66c-.2,0-.4,.02-.59,.06-.19,.04-.38,.1-.55,.17-.17,.07-.33,.14-.47,.22-.14,.08-.27,.15-.37,.22v3.18h.81v.59h-2.2v-.59h.69v-3.82h-.69v-.59Z"/><path class="cls-5" d="M69.54,477.27h.65v-2.75c0-.17-.02-.32-.06-.46s-.1-.27-.19-.37c-.09-.1-.2-.18-.34-.25-.14-.06-.31-.09-.51-.09-.15,0-.29,.02-.42,.07-.13,.04-.26,.1-.38,.17-.12,.07-.22,.14-.33,.22-.1,.08-.19,.15-.27,.22v3.25h.65v.59h-2.04v-.59h.69v-3.82h-.69v-.59h1.39v.73h.02c.09-.09,.19-.19,.3-.28,.11-.09,.22-.18,.35-.25s.26-.14,.4-.19c.14-.05,.29-.08,.46-.08,.09,0,.17,0,.25,0,.08,0,.16,.01,.24,.03,.53,.07,.88,.35,1.05,.86,.23-.25,.5-.46,.81-.63s.64-.26,1-.26c.5,0,.88,.14,1.12,.42s.38,.69,.38,1.22v2.87h.68v.59h-2.03v-.59h.65v-2.72c0-.35-.08-.63-.25-.86-.16-.23-.45-.34-.85-.34-.15,0-.29,.02-.42,.07-.14,.05-.27,.1-.39,.17s-.23,.14-.33,.22c-.1,.08-.19,.16-.27,.23,.02,.14,.03,.3,.03,.48v2.75h.65v.59h-2v-.59Z"/><path class="cls-5" d="M75.21,472.86h1.39v4.41h.69v.59h-2.08v-.59h.69v-3.82h-.69v-.59Zm1.39-2v1.19h-.7v-1.19h.7Z"/><path class="cls-5" d="M81.15,477.27h.65v-2.72c0-.35-.08-.63-.24-.86-.16-.23-.45-.34-.86-.34-.17,0-.33,.02-.48,.07s-.3,.1-.43,.17-.26,.14-.38,.21-.21,.15-.29,.21v3.25h.65v.59h-2.04v-.59h.69v-3.82h-.69v-.59h1.39v.73h.02c.25-.25,.54-.45,.85-.6,.31-.15,.65-.23,1.01-.23,.5,0,.88,.14,1.12,.42s.38,.69,.38,1.22v2.87h.68v.59h-2.03v-.59Z"/><path class="cls-5" d="M85.96,477.96c-.41,0-.75-.06-1.04-.19s-.51-.3-.69-.54c-.18-.23-.31-.5-.39-.82-.08-.32-.12-.67-.12-1.06s.04-.74,.12-1.05,.21-.59,.39-.82c.18-.23,.41-.41,.69-.54,.28-.13,.63-.19,1.04-.19s.75,.06,1.04,.19c.28,.13,.51,.31,.7,.54,.18,.23,.31,.5,.39,.82s.12,.67,.12,1.05-.04,.74-.12,1.06c-.08,.32-.21,.59-.39,.82-.18,.23-.41,.41-.7,.54s-.63,.19-1.04,.19Zm0-4.61c-.29,0-.54,.05-.72,.16-.19,.11-.34,.25-.46,.43-.12,.18-.2,.39-.25,.63-.05,.24-.07,.51-.07,.79s.02,.54,.07,.79,.13,.46,.25,.63c.12,.18,.27,.32,.46,.43,.19,.11,.43,.16,.72,.16s.53-.05,.72-.16c.19-.11,.35-.25,.46-.43,.12-.18,.2-.39,.25-.63,.05-.24,.07-.5,.07-.79s-.02-.54-.07-.79c-.05-.24-.13-.46-.25-.63-.12-.18-.27-.32-.46-.43-.19-.11-.43-.16-.72-.16Z"/><path class="cls-5" d="M92.28,474.12v-.66c-.28-.07-.54-.11-.78-.12s-.42-.01-.54-.01c-.26,0-.47,.03-.62,.09s-.27,.14-.34,.22c-.07,.08-.12,.17-.14,.25-.02,.09-.03,.15-.03,.19,0,.09,.01,.18,.04,.27,.03,.09,.09,.17,.17,.24,.09,.07,.21,.14,.37,.21s.36,.13,.62,.18c.27,.06,.53,.12,.76,.2s.44,.16,.61,.28,.3,.25,.4,.42c.1,.16,.15,.36,.15,.6,0,.48-.15,.85-.46,1.1-.3,.25-.75,.38-1.33,.38-.38,0-.75-.02-1.11-.06-.36-.04-.68-.09-.98-.17v-1.14h.59v.66c.29,.07,.57,.1,.83,.12,.26,0,.46,.01,.59,.01,.27,0,.48-.04,.63-.11,.16-.07,.28-.16,.36-.25,.08-.09,.13-.19,.15-.29,.02-.1,.03-.17,.03-.22,0-.09-.02-.18-.05-.26-.03-.08-.1-.16-.19-.24-.09-.07-.22-.14-.38-.21s-.38-.12-.63-.17c-.25-.05-.49-.11-.72-.17-.23-.07-.43-.16-.6-.28-.17-.12-.3-.26-.4-.43-.1-.17-.15-.39-.15-.64,0-.45,.15-.78,.46-1.01s.75-.34,1.33-.34c.38,0,.73,.02,1.04,.05,.31,.04,.62,.09,.92,.17v1.14h-.59Z"/><path class="cls-5" d="M98.51,470.86h1.39v6.41h.68v.59h-1.38v-.5h-.02c-.19,.17-.43,.32-.71,.43s-.58,.17-.89,.17c-.35,0-.65-.07-.89-.2-.24-.13-.43-.32-.57-.55-.14-.23-.25-.51-.31-.83s-.09-.66-.09-1.03,.03-.71,.1-1.02c.07-.32,.18-.59,.33-.83,.15-.23,.34-.42,.58-.55,.24-.13,.54-.2,.89-.2,.3,0,.59,.05,.86,.16s.51,.25,.7,.42h.02v-1.89h-.69v-.59Zm-2.05,4.5c0,.27,.02,.53,.06,.77,.04,.24,.12,.45,.23,.64,.11,.19,.25,.33,.42,.44s.4,.16,.67,.16c.15,0,.3-.02,.44-.05,.14-.03,.26-.07,.38-.12,.12-.05,.22-.1,.31-.15s.17-.11,.23-.16v-3.06c-.06-.05-.14-.1-.23-.16s-.19-.11-.31-.16c-.12-.05-.24-.09-.38-.12-.14-.03-.28-.05-.44-.05-.27,0-.5,.05-.67,.17s-.32,.26-.42,.44c-.11,.18-.18,.4-.23,.64-.04,.24-.06,.5-.06,.76Z"/><path class="cls-5" d="M101.86,475.45c0,.28,.04,.54,.11,.78,.07,.24,.17,.44,.32,.61s.33,.3,.55,.39c.23,.09,.5,.14,.83,.14,.25,0,.51-.01,.76-.03,.25-.02,.52-.08,.8-.17l.09,.57c-.3,.09-.58,.15-.86,.18-.27,.03-.57,.04-.89,.04-.45,0-.83-.06-1.15-.19-.31-.13-.56-.3-.75-.54-.19-.23-.33-.5-.42-.82-.09-.32-.13-.67-.13-1.06s.04-.74,.12-1.05,.22-.59,.41-.82c.19-.23,.44-.41,.74-.54,.3-.13,.67-.19,1.11-.19,.52,0,.92,.09,1.2,.27,.28,.18,.48,.41,.59,.69,.12,.27,.17,.56,.17,.88,0,.31-.03,.59-.09,.85h-3.53Zm1.61-2.14c-.29,0-.53,.04-.72,.13-.2,.09-.36,.21-.48,.36-.12,.15-.22,.33-.28,.54-.06,.2-.11,.42-.12,.65h2.85c.04-.19,.05-.39,.04-.59s-.06-.38-.15-.54c-.09-.16-.23-.29-.41-.39-.18-.1-.42-.16-.73-.16Z"/><path class="cls-5" d="M107.93,472.86h1.39v3.31c0,.17,.02,.33,.06,.48,.04,.15,.1,.27,.18,.38,.09,.11,.2,.19,.34,.25,.14,.06,.31,.09,.52,.09,.17,0,.33-.02,.48-.07s.3-.1,.44-.17,.26-.14,.38-.21c.11-.08,.21-.15,.29-.22v-3.25h-.88v-.59h1.58v4.41h.68v.59h-1.38v-.72h-.02c-.25,.24-.54,.44-.84,.59s-.65,.23-1.01,.23c-.5,0-.88-.14-1.12-.42-.25-.28-.38-.69-.38-1.23v-2.87h-.69v-.59Z"/><path class="cls-5" d="M117.28,474.12v-.66c-.28-.07-.54-.11-.77-.12-.24,0-.42-.01-.54-.01-.26,0-.47,.03-.62,.09s-.27,.14-.34,.22c-.07,.08-.12,.17-.14,.25-.02,.09-.03,.15-.03,.19,0,.09,.01,.18,.04,.27,.03,.09,.09,.17,.17,.24,.09,.07,.21,.14,.37,.21,.16,.07,.36,.13,.61,.18,.27,.06,.53,.12,.77,.2,.24,.07,.44,.16,.61,.28s.3,.25,.4,.42c.1,.16,.14,.36,.14,.6,0,.48-.15,.85-.46,1.1-.3,.25-.75,.38-1.33,.38-.38,0-.75-.02-1.1-.06-.36-.04-.69-.09-.99-.17v-1.14h.59v.66c.29,.07,.57,.1,.83,.12,.26,0,.46,.01,.59,.01,.27,0,.48-.04,.63-.11,.16-.07,.27-.16,.35-.25,.08-.09,.13-.19,.15-.29,.02-.1,.03-.17,.03-.22,0-.09-.02-.18-.05-.26-.03-.08-.1-.16-.19-.24-.09-.07-.22-.14-.38-.21-.16-.06-.38-.12-.64-.17-.25-.05-.49-.11-.72-.17-.23-.07-.42-.16-.59-.28-.17-.12-.3-.26-.4-.43-.1-.17-.14-.39-.14-.64,0-.45,.15-.78,.46-1.01s.75-.34,1.33-.34c.38,0,.72,.02,1.04,.05,.31,.04,.61,.09,.91,.17v1.14h-.59Z"/><path class="cls-5" d="M121.06,477.96c-.41,0-.75-.06-1.04-.19s-.51-.3-.69-.54c-.18-.23-.31-.5-.39-.82-.08-.32-.12-.67-.12-1.06s.04-.74,.12-1.05,.21-.59,.39-.82c.18-.23,.41-.41,.69-.54,.28-.13,.63-.19,1.04-.19s.75,.06,1.04,.19c.28,.13,.51,.31,.7,.54,.18,.23,.31,.5,.39,.82s.12,.67,.12,1.05-.04,.74-.12,1.06c-.08,.32-.21,.59-.39,.82-.18,.23-.41,.41-.7,.54s-.63,.19-1.04,.19Zm0-4.61c-.29,0-.54,.05-.72,.16-.19,.11-.34,.25-.46,.43-.12,.18-.2,.39-.25,.63-.05,.24-.07,.51-.07,.79s.02,.54,.07,.79,.13,.46,.25,.63c.12,.18,.27,.32,.46,.43,.19,.11,.43,.16,.72,.16s.53-.05,.72-.16c.19-.11,.35-.25,.46-.43,.12-.18,.2-.39,.25-.63,.05-.24,.07-.5,.07-.79s-.02-.54-.07-.79c-.05-.24-.13-.46-.25-.63-.12-.18-.27-.32-.46-.43-.19-.11-.43-.16-.72-.16Z"/><path class="cls-3" d="M125.91,474.46c0-.49,.09-.94,.28-1.37s.43-.8,.75-1.11,.69-.56,1.12-.75c.43-.18,.88-.27,1.37-.27s.95,.09,1.38,.27c.43,.18,.8,.43,1.12,.75s.57,.68,.75,1.11,.28,.88,.28,1.37-.09,.94-.28,1.37c-.18,.43-.43,.8-.75,1.11s-.7,.56-1.12,.75-.89,.28-1.38,.28-.94-.09-1.37-.28-.8-.43-1.12-.75-.57-.68-.75-1.11c-.18-.43-.28-.88-.28-1.37Zm.34,0c0,.44,.08,.85,.25,1.24,.17,.39,.39,.72,.68,1.01s.62,.51,1.01,.68,.8,.25,1.24,.25,.85-.08,1.24-.25,.72-.39,1.01-.68c.29-.29,.52-.62,.68-1.01,.17-.39,.25-.8,.25-1.24s-.08-.85-.25-1.24c-.17-.38-.39-.72-.68-1s-.63-.51-1.01-.67-.8-.25-1.24-.25-.85,.08-1.24,.25-.72,.39-1.01,.67c-.29,.28-.51,.62-.68,1-.17,.38-.25,.79-.25,1.24Zm3.23-1.37c-.42,0-.72,.12-.91,.35s-.28,.56-.28,.98c0,.45,.09,.8,.28,1.05s.49,.38,.91,.38c.17,0,.34-.02,.51-.07,.18-.04,.35-.12,.53-.23l.17,.33c-.12,.08-.28,.16-.48,.24-.2,.08-.45,.12-.75,.12-.54,0-.95-.16-1.23-.47s-.42-.76-.42-1.35c0-.55,.14-.98,.42-1.28s.69-.45,1.23-.45c.3,0,.55,.04,.75,.12,.2,.08,.36,.16,.48,.24l-.16,.35c-.17-.11-.35-.19-.53-.24-.18-.05-.35-.08-.52-.08Z"/><path class="cls-3" d="M139.88,476.52v1.34h-4.41v-.69c.75-.5,1.34-.96,1.79-1.37,.45-.41,.8-.79,1.04-1.12,.24-.33,.4-.62,.48-.88s.12-.48,.12-.67c0-.34-.06-.61-.17-.82s-.25-.36-.41-.46-.33-.17-.5-.21-.31-.05-.42-.05c-.21,0-.43,.02-.64,.06-.21,.04-.45,.12-.71,.25v.68h-.59v-1.13c.17-.08,.34-.15,.5-.21,.16-.06,.33-.11,.5-.16,.17-.04,.34-.08,.51-.1,.18-.02,.37-.03,.58-.03,.36,0,.67,.05,.93,.16,.26,.11,.48,.25,.65,.44s.3,.4,.38,.65c.08,.24,.12,.5,.12,.76,0,.7-.26,1.39-.79,2.08s-1.32,1.41-2.39,2.17v.02h2.83v-.72h.58Z"/><path class="cls-3" d="M143.11,477.96c-.47,0-.85-.1-1.16-.29-.3-.19-.54-.45-.71-.77-.17-.32-.29-.7-.36-1.13-.07-.43-.11-.88-.11-1.37s.04-.92,.11-1.33c.07-.42,.19-.78,.36-1.09,.17-.31,.41-.56,.71-.75,.3-.18,.69-.27,1.16-.27s.85,.09,1.16,.27c.3,.18,.54,.43,.71,.75,.17,.31,.29,.68,.37,1.09,.07,.42,.1,.86,.1,1.33s-.04,.94-.1,1.37c-.07,.43-.19,.81-.37,1.13-.17,.32-.41,.58-.71,.77-.3,.19-.69,.29-1.16,.29Zm0-6.41c-.33,0-.59,.08-.8,.23-.21,.16-.37,.37-.49,.63-.12,.26-.2,.57-.25,.92-.04,.35-.06,.71-.06,1.08s.02,.74,.06,1.1c.04,.36,.12,.67,.25,.95,.12,.28,.28,.5,.49,.66,.21,.17,.47,.25,.8,.25s.59-.08,.8-.25c.21-.17,.37-.39,.49-.66,.12-.28,.2-.59,.25-.95s.07-.72,.07-1.1-.02-.73-.07-1.08-.12-.65-.25-.92c-.12-.26-.28-.47-.49-.63-.21-.16-.47-.23-.8-.23Z"/><path class="cls-3" d="M150.78,476.52v1.34h-4.41v-.69c.75-.5,1.34-.96,1.79-1.37,.45-.41,.8-.79,1.04-1.12,.24-.33,.4-.62,.48-.88s.12-.48,.12-.67c0-.34-.06-.61-.17-.82s-.25-.36-.41-.46-.33-.17-.5-.21-.31-.05-.42-.05c-.21,0-.43,.02-.64,.06-.21,.04-.45,.12-.71,.25v.68h-.59v-1.13c.17-.08,.34-.15,.5-.21,.16-.06,.33-.11,.5-.16,.17-.04,.34-.08,.51-.1,.18-.02,.37-.03,.58-.03,.36,0,.67,.05,.93,.16,.26,.11,.48,.25,.65,.44s.3,.4,.38,.65c.08,.24,.12,.5,.12,.76,0,.7-.26,1.39-.79,2.08s-1.32,1.41-2.39,2.17v.02h2.83v-.72h.58Z"/><path class="cls-3" d="M156.08,476.52v1.34h-4.41v-.69c.75-.5,1.34-.96,1.79-1.37,.45-.41,.8-.79,1.04-1.12,.24-.33,.4-.62,.48-.88s.12-.48,.12-.67c0-.34-.06-.61-.17-.82s-.25-.36-.41-.46-.33-.17-.5-.21-.31-.05-.42-.05c-.21,0-.43,.02-.64,.06-.21,.04-.45,.12-.71,.25v.68h-.59v-1.13c.17-.08,.34-.15,.5-.21,.16-.06,.33-.11,.5-.16,.17-.04,.34-.08,.51-.1,.18-.02,.37-.03,.58-.03,.36,0,.67,.05,.93,.16,.26,.11,.48,.25,.65,.44s.3,.4,.38,.65c.08,.24,.12,.5,.12,.76,0,.7-.26,1.39-.79,2.08s-1.32,1.41-2.39,2.17v.02h2.83v-.72h.58Z"/><path class="cls-3" d="M162.8,474.39c.44,.09,.78,.29,1,.58,.23,.29,.35,.65,.35,1.08,0,.56-.17,1-.5,1.33-.33,.32-.83,.48-1.49,.48h-3.58v-.59h.69v-5.62h-.69v-.59h3.38c.66,0,1.16,.16,1.49,.47,.33,.31,.5,.73,.5,1.25,0,.4-.1,.74-.29,1.02-.2,.28-.48,.47-.86,.57v.02Zm.37-1.52c0-.36-.11-.65-.33-.88-.22-.23-.54-.34-.96-.34h-1.87v2.45h1.87c.42,0,.74-.11,.96-.32,.22-.21,.33-.51,.33-.92Zm-3.16,1.82v2.58h2.04c.42,0,.75-.11,.98-.33,.23-.22,.34-.54,.34-.96,0-.39-.12-.71-.37-.94s-.6-.35-1.08-.35h-1.91Z"/><path class="cls-3" d="M165.22,474.12v-1.16c.33-.07,.66-.12,.98-.15,.32-.03,.61-.05,.88-.05,.29,0,.54,.02,.77,.08,.22,.05,.41,.14,.56,.26s.27,.29,.35,.5c.08,.21,.11,.48,.11,.79v2.87h.68v.59h-1.38v-.5h-.02c-.23,.19-.46,.34-.7,.43-.23,.09-.49,.15-.78,.16-.23,.01-.46,0-.67-.04-.21-.04-.4-.12-.57-.24-.17-.12-.3-.27-.39-.47-.1-.19-.15-.43-.15-.72s.06-.54,.18-.72c.12-.19,.28-.34,.47-.45s.42-.19,.67-.23c.25-.04,.51-.06,.77-.06h1.18v-.57c0-.37-.09-.64-.28-.82-.19-.18-.51-.27-.96-.27-.13,0-.29,0-.47,.02-.18,.01-.4,.04-.65,.09v.66h-.59Zm2.95,1.33h-1.08c-.55,0-.94,.09-1.17,.26-.22,.17-.33,.42-.33,.75,0,.29,.1,.52,.31,.69,.21,.17,.5,.26,.88,.26,.33,0,.62-.05,.85-.17,.23-.11,.41-.21,.54-.31v-1.48Z"/><path class="cls-3" d="M173.42,477.27h.65v-2.72c0-.35-.08-.63-.24-.86s-.45-.34-.86-.34c-.17,0-.33,.02-.48,.07s-.3,.1-.44,.17-.26,.14-.38,.21-.21,.15-.29,.21v3.25h.65v.59h-2.04v-.59h.69v-3.82h-.69v-.59h1.39v.73h.02c.25-.25,.54-.45,.84-.6,.31-.15,.65-.23,1.02-.23,.5,0,.88,.14,1.12,.42s.38,.69,.38,1.22v2.87h.68v.59h-2.03v-.59Z"/><path class="cls-3" d="M179.47,474.12v-.66c-.25-.05-.47-.08-.65-.1-.18,0-.33-.01-.44-.01-.3,0-.55,.05-.76,.15-.21,.1-.38,.24-.51,.42-.13,.18-.23,.39-.29,.64-.06,.25-.09,.51-.09,.8s.03,.55,.09,.8c.06,.25,.16,.46,.29,.64,.13,.18,.3,.32,.51,.42,.21,.1,.46,.15,.76,.15,.17,0,.38,0,.61-.02,.23-.02,.54-.08,.93-.17l.13,.57c-.3,.07-.57,.13-.82,.17-.25,.04-.53,.06-.85,.06-.44,0-.81-.06-1.12-.19s-.55-.3-.74-.54c-.19-.23-.32-.5-.41-.82-.08-.32-.12-.67-.12-1.06s.04-.74,.12-1.05,.22-.59,.41-.82c.19-.23,.43-.41,.74-.54,.31-.13,.68-.19,1.12-.19,.31,0,.6,.02,.85,.05,.25,.04,.52,.09,.82,.17v1.14h-.58Z"/><path class="cls-3" d="M183.05,477.96c-.41,0-.75-.06-1.04-.19s-.51-.3-.69-.54c-.18-.23-.31-.5-.39-.82-.08-.32-.12-.67-.12-1.06s.04-.74,.12-1.05,.21-.59,.39-.82c.18-.23,.41-.41,.69-.54,.28-.13,.63-.19,1.04-.19s.75,.06,1.04,.19c.28,.13,.51,.31,.7,.54,.18,.23,.31,.5,.39,.82s.12,.67,.12,1.05-.04,.74-.12,1.06c-.08,.32-.21,.59-.39,.82-.18,.23-.41,.41-.7,.54s-.63,.19-1.04,.19Zm0-4.61c-.29,0-.54,.05-.72,.16-.19,.11-.34,.25-.46,.43-.12,.18-.2,.39-.25,.63-.05,.24-.07,.51-.07,.79s.02,.54,.07,.79,.13,.46,.25,.63c.12,.18,.27,.32,.46,.43,.19,.11,.43,.16,.72,.16s.53-.05,.72-.16c.19-.11,.35-.25,.46-.43,.12-.18,.2-.39,.25-.63,.05-.24,.07-.5,.07-.79s-.02-.54-.07-.79c-.05-.24-.13-.46-.25-.63-.12-.18-.27-.32-.46-.43-.19-.11-.43-.16-.72-.16Z"/><path class="cls-3" d="M191.26,471.06c.33,0,.62,.05,.87,.15,.25,.1,.46,.23,.63,.4s.3,.37,.39,.61c.09,.24,.13,.5,.13,.79,0,.61-.17,1.08-.52,1.42-.35,.34-.85,.51-1.51,.51h-2.01v2.33h.69v.59h-2.12v-.59h.69v-5.62h-.69v-.59h3.44Zm-2.01,3.29h1.94c.42,0,.75-.12,.99-.34,.24-.23,.36-.57,.36-1,0-.41-.12-.74-.36-.99s-.57-.37-.99-.37h-1.94v2.7Z"/><path class="cls-3" d="M193.92,472.86h1.39v4.41h.69v.59h-2.08v-.59h.69v-3.82h-.69v-.59Zm1.39-2v1.19h-.7v-1.19h.7Z"/><path class="cls-3" d="M200.01,474.12v-.66c-.25-.05-.47-.08-.65-.1-.18,0-.33-.01-.44-.01-.3,0-.55,.05-.76,.15-.21,.1-.38,.24-.51,.42-.13,.18-.23,.39-.29,.64-.06,.25-.09,.51-.09,.8s.03,.55,.09,.8c.06,.25,.16,.46,.29,.64,.13,.18,.3,.32,.51,.42,.21,.1,.46,.15,.76,.15,.17,0,.38,0,.61-.02,.23-.02,.54-.08,.93-.17l.13,.57c-.3,.07-.57,.13-.82,.17-.25,.04-.53,.06-.85,.06-.44,0-.81-.06-1.12-.19s-.55-.3-.74-.54c-.19-.23-.32-.5-.41-.82-.08-.32-.12-.67-.12-1.06s.04-.74,.12-1.05,.22-.59,.41-.82c.19-.23,.43-.41,.74-.54,.31-.13,.68-.19,1.12-.19,.31,0,.6,.02,.85,.05,.25,.04,.52,.09,.82,.17v1.14h-.58Z"/><path class="cls-3" d="M204.58,477.27h.65v-2.72c0-.35-.08-.63-.24-.86s-.45-.34-.86-.34c-.17,0-.33,.02-.48,.07s-.3,.1-.44,.17-.26,.14-.38,.21-.21,.15-.29,.21v3.25h.65v.59h-2.04v-.59h.69v-5.82h-.69v-.59h1.39v2.73h.02c.25-.25,.54-.45,.84-.6,.31-.15,.65-.23,1.02-.23,.5,0,.88,.14,1.12,.42s.38,.69,.38,1.22v2.87h.68v.59h-2.03v-.59Z"/><path class="cls-3" d="M207.06,472.86h1.39v4.41h.69v.59h-2.08v-.59h.69v-3.82h-.69v-.59Zm1.39-2v1.19h-.7v-1.19h.7Z"/><path class="cls-3" d="M213,477.27h.65v-2.72c0-.35-.08-.63-.24-.86s-.45-.34-.86-.34c-.17,0-.33,.02-.48,.07s-.3,.1-.44,.17-.26,.14-.38,.21-.21,.15-.29,.21v3.25h.65v.59h-2.04v-.59h.69v-3.82h-.69v-.59h1.39v.73h.02c.25-.25,.54-.45,.84-.6,.31-.15,.65-.23,1.02-.23,.5,0,.88,.14,1.12,.42s.38,.69,.38,1.22v2.87h.68v.59h-2.03v-.59Z"/><path class="cls-3" d="M219.05,474.12v-.66c-.25-.05-.47-.08-.65-.1-.18,0-.33-.01-.44-.01-.3,0-.55,.05-.76,.15-.21,.1-.38,.24-.51,.42-.13,.18-.23,.39-.29,.64-.06,.25-.09,.51-.09,.8s.03,.55,.09,.8c.06,.25,.16,.46,.29,.64,.13,.18,.3,.32,.51,.42,.21,.1,.46,.15,.76,.15,.17,0,.38,0,.6-.02,.23-.02,.54-.08,.94-.17l.13,.57c-.3,.07-.58,.13-.83,.17-.25,.04-.53,.06-.84,.06-.44,0-.81-.06-1.12-.19s-.55-.3-.74-.54c-.19-.23-.32-.5-.41-.82-.08-.32-.12-.67-.12-1.06s.04-.74,.12-1.05c.08-.32,.22-.59,.41-.82,.19-.23,.43-.41,.74-.54,.31-.13,.68-.19,1.12-.19,.31,0,.59,.02,.84,.05,.25,.04,.53,.09,.83,.17v1.14h-.58Z"/><path class="cls-3" d="M223.62,477.27h.65v-2.72c0-.35-.08-.63-.24-.86-.16-.23-.45-.34-.86-.34-.17,0-.33,.02-.48,.07s-.3,.1-.43,.17-.26,.14-.38,.21-.21,.15-.29,.21v3.25h.65v.59h-2.04v-.59h.69v-5.82h-.69v-.59h1.39v2.73h.02c.25-.25,.54-.45,.85-.6,.31-.15,.65-.23,1.01-.23,.5,0,.88,.14,1.12,.42s.38,.69,.38,1.22v2.87h.68v.59h-2.03v-.59Z"/><path class="cls-3" d="M226.57,474.12v-1.16c.33-.07,.66-.12,.98-.15,.32-.03,.61-.05,.88-.05,.29,0,.54,.02,.77,.08,.22,.05,.41,.14,.56,.26s.27,.29,.35,.5c.08,.21,.11,.48,.11,.79v2.87h.68v.59h-1.38v-.5h-.02c-.23,.19-.46,.34-.7,.43-.23,.09-.49,.15-.78,.16-.23,.01-.46,0-.67-.04-.21-.04-.4-.12-.57-.24-.17-.12-.3-.27-.39-.47-.1-.19-.15-.43-.15-.72s.06-.54,.18-.72c.12-.19,.28-.34,.47-.45s.42-.19,.67-.23c.25-.04,.51-.06,.77-.06h1.18v-.57c0-.37-.09-.64-.28-.82-.19-.18-.51-.27-.96-.27-.13,0-.29,0-.47,.02-.18,.01-.4,.04-.65,.09v.66h-.59Zm2.95,1.33h-1.08c-.55,0-.94,.09-1.17,.26-.22,.17-.33,.42-.33,.75,0,.29,.1,.52,.31,.69,.21,.17,.5,.26,.88,.26,.33,0,.62-.05,.85-.17,.23-.11,.41-.21,.54-.31v-1.48Z"/><path class="cls-3" d="M232.44,476.64v1.22h-.7v-1.22h.7Z"/><path class="cls-3" d="M240.17,471.06v1.34h-.58v-.75h-1.47v5.62h.69v.59h-2.12v-.59h.69v-5.62h-1.47v.75h-.59v-1.34h4.85Z"/><path class="cls-3" d="M242.05,477.96c-.41,0-.75-.06-1.04-.19s-.51-.3-.7-.54c-.18-.23-.31-.5-.39-.82-.08-.32-.12-.67-.12-1.06s.04-.74,.12-1.05,.21-.59,.39-.82c.18-.23,.41-.41,.7-.54,.28-.13,.63-.19,1.04-.19s.75,.06,1.04,.19c.28,.13,.51,.31,.69,.54,.18,.23,.31,.5,.39,.82s.12,.67,.12,1.05-.04,.74-.12,1.06c-.08,.32-.21,.59-.39,.82-.18,.23-.41,.41-.69,.54-.28,.13-.63,.19-1.04,.19Zm0-4.61c-.29,0-.54,.05-.73,.16-.19,.11-.34,.25-.46,.43-.12,.18-.2,.39-.25,.63-.05,.24-.07,.51-.07,.79s.02,.54,.07,.79c.05,.24,.13,.46,.25,.63,.12,.18,.27,.32,.46,.43,.19,.11,.43,.16,.73,.16s.53-.05,.72-.16,.35-.25,.46-.43c.12-.18,.2-.39,.25-.63s.07-.5,.07-.79-.02-.54-.07-.79c-.05-.24-.13-.46-.25-.63-.12-.18-.27-.32-.46-.43s-.43-.16-.72-.16Z"/><path class="cls-3" d="M248.1,470.86h1.39v6.41h.68v.59h-1.38v-.5h-.02c-.19,.17-.43,.32-.71,.43s-.58,.17-.89,.17c-.35,0-.65-.07-.89-.2-.24-.13-.43-.32-.57-.55-.14-.23-.25-.51-.31-.83s-.09-.66-.09-1.03,.03-.71,.1-1.02c.07-.32,.18-.59,.33-.83,.15-.23,.34-.42,.58-.55,.24-.13,.54-.2,.89-.2,.3,0,.59,.05,.86,.16s.51,.25,.7,.42h.02v-1.89h-.69v-.59Zm-2.05,4.5c0,.27,.02,.53,.06,.77,.04,.24,.12,.45,.23,.64,.11,.19,.25,.33,.42,.44s.4,.16,.67,.16c.15,0,.3-.02,.44-.05,.14-.03,.26-.07,.38-.12,.12-.05,.22-.1,.31-.15s.17-.11,.23-.16v-3.06c-.06-.05-.14-.1-.23-.16s-.19-.11-.31-.16c-.12-.05-.24-.09-.38-.12-.14-.03-.28-.05-.44-.05-.27,0-.5,.05-.67,.17s-.32,.26-.42,.44c-.11,.18-.18,.4-.23,.64-.04,.24-.06,.5-.06,.76Z"/><path class="cls-3" d="M252.95,477.96c-.41,0-.75-.06-1.04-.19s-.51-.3-.69-.54c-.18-.23-.31-.5-.39-.82-.08-.32-.12-.67-.12-1.06s.04-.74,.12-1.05,.21-.59,.39-.82c.18-.23,.41-.41,.69-.54,.28-.13,.63-.19,1.04-.19s.75,.06,1.04,.19c.28,.13,.51,.31,.7,.54,.18,.23,.31,.5,.39,.82s.12,.67,.12,1.05-.04,.74-.12,1.06c-.08,.32-.21,.59-.39,.82-.18,.23-.41,.41-.7,.54s-.63,.19-1.04,.19Zm0-4.61c-.29,0-.54,.05-.72,.16-.19,.11-.34,.25-.46,.43-.12,.18-.2,.39-.25,.63-.05,.24-.07,.51-.07,.79s.02,.54,.07,.79,.13,.46,.25,.63c.12,.18,.27,.32,.46,.43,.19,.11,.43,.16,.72,.16s.53-.05,.72-.16c.19-.11,.35-.25,.46-.43,.12-.18,.2-.39,.25-.63,.05-.24,.07-.5,.07-.79s-.02-.54-.07-.79c-.05-.24-.13-.46-.25-.63-.12-.18-.27-.32-.46-.43-.19-.11-.43-.16-.72-.16Z"/><path class="cls-3" d="M259.27,474.12v-.66c-.28-.07-.54-.11-.78-.12s-.42-.01-.54-.01c-.26,0-.47,.03-.62,.09s-.27,.14-.34,.22c-.07,.08-.12,.17-.14,.25-.02,.09-.03,.15-.03,.19,0,.09,.01,.18,.04,.27,.03,.09,.09,.17,.17,.24,.09,.07,.21,.14,.37,.21s.36,.13,.62,.18c.27,.06,.53,.12,.76,.2s.44,.16,.61,.28,.3,.25,.4,.42c.1,.16,.15,.36,.15,.6,0,.48-.15,.85-.46,1.1-.3,.25-.75,.38-1.33,.38-.38,0-.75-.02-1.11-.06-.36-.04-.68-.09-.98-.17v-1.14h.59v.66c.29,.07,.57,.1,.83,.12,.26,0,.46,.01,.59,.01,.27,0,.48-.04,.63-.11,.16-.07,.28-.16,.36-.25,.08-.09,.13-.19,.15-.29,.02-.1,.03-.17,.03-.22,0-.09-.02-.18-.05-.26-.03-.08-.1-.16-.19-.24-.09-.07-.22-.14-.38-.21s-.38-.12-.63-.17c-.25-.05-.49-.11-.72-.17-.23-.07-.43-.16-.6-.28-.17-.12-.3-.26-.4-.43-.1-.17-.15-.39-.15-.64,0-.45,.15-.78,.46-1.01s.75-.34,1.33-.34c.38,0,.73,.02,1.04,.05,.31,.04,.62,.09,.92,.17v1.14h-.59Z"/><path class="cls-3" d="M262.42,470.86h1.39v6.41h.69v.59h-2.08v-.59h.69v-5.82h-.69v-.59Z"/><path class="cls-3" d="M267.27,477.96c-.41,0-.75-.06-1.04-.19s-.51-.3-.7-.54c-.18-.23-.31-.5-.39-.82-.08-.32-.12-.67-.12-1.06s.04-.74,.12-1.05,.21-.59,.39-.82c.18-.23,.41-.41,.7-.54,.28-.13,.63-.19,1.04-.19s.75,.06,1.04,.19c.28,.13,.51,.31,.69,.54,.18,.23,.31,.5,.39,.82s.12,.67,.12,1.05-.04,.74-.12,1.06c-.08,.32-.21,.59-.39,.82-.18,.23-.41,.41-.69,.54-.28,.13-.63,.19-1.04,.19Zm0-4.61c-.29,0-.54,.05-.73,.16-.19,.11-.34,.25-.46,.43-.12,.18-.2,.39-.25,.63-.05,.24-.07,.51-.07,.79s.02,.54,.07,.79c.05,.24,.13,.46,.25,.63,.12,.18,.27,.32,.46,.43,.19,.11,.43,.16,.73,.16s.53-.05,.72-.16,.35-.25,.46-.43c.12-.18,.2-.39,.25-.63s.07-.5,.07-.79-.02-.54-.07-.79c-.05-.24-.13-.46-.25-.63-.12-.18-.27-.32-.46-.43s-.43-.16-.72-.16Z"/><path class="cls-3" d="M273.59,474.12v-.66c-.28-.07-.54-.11-.77-.12-.24,0-.42-.01-.54-.01-.26,0-.47,.03-.62,.09s-.27,.14-.34,.22c-.07,.08-.12,.17-.14,.25-.02,.09-.03,.15-.03,.19,0,.09,.01,.18,.04,.27,.03,.09,.09,.17,.17,.24,.09,.07,.21,.14,.37,.21,.16,.07,.36,.13,.61,.18,.27,.06,.53,.12,.77,.2,.24,.07,.44,.16,.61,.28s.3,.25,.4,.42c.1,.16,.14,.36,.14,.6,0,.48-.15,.85-.46,1.1-.3,.25-.75,.38-1.33,.38-.38,0-.75-.02-1.1-.06-.36-.04-.69-.09-.99-.17v-1.14h.59v.66c.29,.07,.57,.1,.83,.12,.26,0,.46,.01,.59,.01,.27,0,.48-.04,.63-.11,.16-.07,.27-.16,.35-.25,.08-.09,.13-.19,.15-.29,.02-.1,.03-.17,.03-.22,0-.09-.02-.18-.05-.26-.03-.08-.1-.16-.19-.24-.09-.07-.22-.14-.38-.21-.16-.06-.38-.12-.64-.17-.25-.05-.49-.11-.72-.17-.23-.07-.42-.16-.59-.28-.17-.12-.3-.26-.4-.43-.1-.17-.14-.39-.14-.64,0-.45,.15-.78,.46-1.01s.75-.34,1.33-.34c.38,0,.72,.02,1.04,.05,.31,.04,.61,.09,.91,.17v1.14h-.59Z"/><path class="cls-3" d="M279.82,470.86h1.39v6.41h.68v.59h-1.38v-.5h-.02c-.19,.17-.43,.32-.71,.43s-.58,.17-.89,.17c-.35,0-.65-.07-.89-.2-.24-.13-.43-.32-.57-.55-.14-.23-.25-.51-.31-.83s-.09-.66-.09-1.03,.03-.71,.1-1.02c.07-.32,.18-.59,.33-.83,.15-.23,.34-.42,.58-.55,.24-.13,.54-.2,.89-.2,.3,0,.59,.05,.86,.16s.51,.25,.7,.42h.02v-1.89h-.69v-.59Zm-2.05,4.5c0,.27,.02,.53,.06,.77,.04,.24,.12,.45,.23,.64,.11,.19,.25,.33,.42,.44s.4,.16,.67,.16c.15,0,.3-.02,.44-.05,.14-.03,.26-.07,.38-.12,.12-.05,.22-.1,.31-.15s.17-.11,.23-.16v-3.06c-.06-.05-.14-.1-.23-.16s-.19-.11-.31-.16c-.12-.05-.24-.09-.38-.12-.14-.03-.28-.05-.44-.05-.27,0-.5,.05-.67,.17s-.32,.26-.42,.44c-.11,.18-.18,.4-.23,.64-.04,.24-.06,.5-.06,.76Z"/><path class="cls-3" d="M283.17,475.45c0,.28,.04,.54,.11,.78s.17,.44,.31,.61c.14,.17,.33,.3,.56,.39,.23,.09,.5,.14,.83,.14,.25,0,.51-.01,.76-.03,.25-.02,.52-.08,.8-.17l.09,.57c-.3,.09-.58,.15-.85,.18-.27,.03-.57,.04-.9,.04-.45,0-.83-.06-1.14-.19-.31-.13-.56-.3-.75-.54-.19-.23-.33-.5-.42-.82-.09-.32-.13-.67-.13-1.06s.04-.74,.12-1.05c.08-.32,.22-.59,.41-.82,.19-.23,.44-.41,.74-.54,.3-.13,.67-.19,1.12-.19,.52,0,.92,.09,1.2,.27,.28,.18,.48,.41,.59,.69,.12,.27,.17,.56,.17,.88,0,.31-.03,.59-.08,.85h-3.53Zm1.61-2.14c-.29,0-.53,.04-.73,.13-.2,.09-.36,.21-.48,.36s-.22,.33-.28,.54c-.06,.2-.1,.42-.12,.65h2.85c.04-.19,.05-.39,.04-.59-.01-.2-.06-.38-.15-.54s-.23-.29-.41-.39-.42-.16-.72-.16Z"/><path class="cls-3" d="M287.44,472.86h1.39v.8h.02c.11-.11,.24-.22,.38-.33,.14-.11,.3-.2,.46-.29,.17-.09,.34-.16,.53-.21,.19-.05,.38-.08,.58-.08v.66c-.2,0-.4,.02-.59,.06-.19,.04-.38,.1-.55,.17-.17,.07-.33,.14-.48,.22-.14,.08-.26,.15-.37,.22v3.18h.81v.59h-2.2v-.59h.69v-3.82h-.69v-.59Z"/><path class="cls-3" d="M292.02,475.45c0,.28,.04,.54,.11,.78,.07,.24,.17,.44,.32,.61s.33,.3,.55,.39c.23,.09,.5,.14,.83,.14,.25,0,.51-.01,.76-.03,.25-.02,.52-.08,.8-.17l.09,.57c-.3,.09-.58,.15-.86,.18-.27,.03-.57,.04-.89,.04-.45,0-.83-.06-1.15-.19-.31-.13-.56-.3-.75-.54-.19-.23-.33-.5-.42-.82-.09-.32-.13-.67-.13-1.06s.04-.74,.12-1.05,.22-.59,.41-.82c.19-.23,.44-.41,.74-.54,.3-.13,.67-.19,1.11-.19,.52,0,.92,.09,1.2,.27,.28,.18,.48,.41,.59,.69,.12,.27,.17,.56,.17,.88,0,.31-.03,.59-.09,.85h-3.53Zm1.61-2.14c-.29,0-.53,.04-.72,.13-.2,.09-.36,.21-.48,.36-.12,.15-.22,.33-.28,.54-.06,.2-.11,.42-.12,.65h2.85c.04-.19,.05-.39,.04-.59s-.06-.38-.15-.54c-.09-.16-.23-.29-.41-.39-.18-.1-.42-.16-.73-.16Z"/><path class="cls-3" d="M300.06,474.12v-.66c-.25-.05-.47-.08-.65-.1-.18,0-.33-.01-.44-.01-.3,0-.55,.05-.76,.15-.21,.1-.38,.24-.51,.42-.13,.18-.23,.39-.29,.64-.06,.25-.09,.51-.09,.8s.03,.55,.09,.8c.06,.25,.16,.46,.29,.64,.13,.18,.3,.32,.51,.42,.21,.1,.46,.15,.76,.15,.17,0,.38,0,.61-.02,.23-.02,.54-.08,.93-.17l.13,.57c-.3,.07-.57,.13-.82,.17-.25,.04-.53,.06-.85,.06-.44,0-.81-.06-1.12-.19s-.55-.3-.74-.54c-.19-.23-.32-.5-.41-.82-.08-.32-.12-.67-.12-1.06s.04-.74,.12-1.05,.22-.59,.41-.82c.19-.23,.43-.41,.74-.54,.31-.13,.68-.19,1.12-.19,.31,0,.6,.02,.85,.05,.25,.04,.52,.09,.82,.17v1.14h-.58Z"/><path class="cls-3" d="M304.63,477.27h.65v-2.72c0-.35-.08-.63-.24-.86s-.45-.34-.86-.34c-.17,0-.33,.02-.48,.07s-.3,.1-.44,.17-.26,.14-.38,.21-.21,.15-.29,.21v3.25h.65v.59h-2.04v-.59h.69v-5.82h-.69v-.59h1.39v2.73h.02c.25-.25,.54-.45,.84-.6,.31-.15,.65-.23,1.02-.23,.5,0,.88,.14,1.12,.42s.38,.69,.38,1.22v2.87h.68v.59h-2.03v-.59Z"/><path class="cls-3" d="M309.44,477.96c-.41,0-.75-.06-1.04-.19s-.51-.3-.7-.54c-.18-.23-.31-.5-.39-.82-.08-.32-.12-.67-.12-1.06s.04-.74,.12-1.05,.21-.59,.39-.82c.18-.23,.41-.41,.7-.54,.28-.13,.63-.19,1.04-.19s.75,.06,1.04,.19c.28,.13,.51,.31,.69,.54,.18,.23,.31,.5,.39,.82s.12,.67,.12,1.05-.04,.74-.12,1.06c-.08,.32-.21,.59-.39,.82-.18,.23-.41,.41-.69,.54-.28,.13-.63,.19-1.04,.19Zm0-4.61c-.29,0-.54,.05-.73,.16-.19,.11-.34,.25-.46,.43-.12,.18-.2,.39-.25,.63-.05,.24-.07,.51-.07,.79s.02,.54,.07,.79c.05,.24,.13,.46,.25,.63,.12,.18,.27,.32,.46,.43,.19,.11,.43,.16,.73,.16s.53-.05,.72-.16,.35-.25,.46-.43c.12-.18,.2-.39,.25-.63s.07-.5,.07-.79-.02-.54-.07-.79c-.05-.24-.13-.46-.25-.63-.12-.18-.27-.32-.46-.43s-.43-.16-.72-.16Z"/><path class="cls-3" d="M315.76,474.12v-.66c-.28-.07-.54-.11-.77-.12-.24,0-.42-.01-.54-.01-.26,0-.47,.03-.62,.09s-.27,.14-.34,.22c-.07,.08-.12,.17-.14,.25-.02,.09-.03,.15-.03,.19,0,.09,.01,.18,.04,.27,.03,.09,.09,.17,.17,.24,.09,.07,.21,.14,.37,.21,.16,.07,.36,.13,.61,.18,.27,.06,.53,.12,.77,.2,.24,.07,.44,.16,.61,.28s.3,.25,.4,.42c.1,.16,.14,.36,.14,.6,0,.48-.15,.85-.46,1.1-.3,.25-.75,.38-1.33,.38-.38,0-.75-.02-1.1-.06-.36-.04-.69-.09-.99-.17v-1.14h.59v.66c.29,.07,.57,.1,.83,.12,.26,0,.46,.01,.59,.01,.27,0,.48-.04,.63-.11,.16-.07,.27-.16,.35-.25,.08-.09,.13-.19,.15-.29,.02-.1,.03-.17,.03-.22,0-.09-.02-.18-.05-.26-.03-.08-.1-.16-.19-.24-.09-.07-.22-.14-.38-.21-.16-.06-.38-.12-.64-.17-.25-.05-.49-.11-.72-.17-.23-.07-.42-.16-.59-.28-.17-.12-.3-.26-.4-.43-.1-.17-.14-.39-.14-.64,0-.45,.15-.78,.46-1.01s.75-.34,1.33-.34c.38,0,.72,.02,1.04,.05,.31,.04,.61,.09,.91,.17v1.14h-.59Z"/><path class="cls-3" d="M318.91,472.86h1.39v.8h.02c.11-.11,.24-.22,.38-.33,.14-.11,.3-.2,.46-.29,.17-.09,.34-.16,.53-.21,.19-.05,.38-.08,.58-.08v.66c-.2,0-.4,.02-.59,.06-.19,.04-.38,.1-.55,.17-.17,.07-.33,.14-.48,.22-.14,.08-.26,.15-.37,.22v3.18h.81v.59h-2.2v-.59h.69v-3.82h-.69v-.59Z"/><path class="cls-3" d="M323.49,475.45c0,.28,.04,.54,.11,.78,.07,.24,.17,.44,.32,.61s.33,.3,.55,.39c.23,.09,.5,.14,.83,.14,.25,0,.51-.01,.76-.03,.25-.02,.52-.08,.8-.17l.09,.57c-.3,.09-.58,.15-.86,.18-.27,.03-.57,.04-.89,.04-.45,0-.83-.06-1.15-.19-.31-.13-.56-.3-.75-.54-.19-.23-.33-.5-.42-.82-.09-.32-.13-.67-.13-1.06s.04-.74,.12-1.05,.22-.59,.41-.82c.19-.23,.44-.41,.74-.54,.3-.13,.67-.19,1.11-.19,.52,0,.92,.09,1.2,.27,.28,.18,.48,.41,.59,.69,.12,.27,.17,.56,.17,.88,0,.31-.03,.59-.09,.85h-3.53Zm1.61-2.14c-.29,0-.53,.04-.72,.13-.2,.09-.36,.21-.48,.36-.12,.15-.22,.33-.28,.54-.06,.2-.11,.42-.12,.65h2.85c.04-.19,.05-.39,.04-.59s-.06-.38-.15-.54c-.09-.16-.23-.29-.41-.39-.18-.1-.42-.16-.73-.16Z"/><path class="cls-3" d="M331.21,474.12v-.66c-.28-.07-.54-.11-.78-.12s-.42-.01-.54-.01c-.26,0-.47,.03-.62,.09s-.27,.14-.34,.22c-.07,.08-.12,.17-.14,.25-.02,.09-.03,.15-.03,.19,0,.09,.01,.18,.04,.27,.03,.09,.09,.17,.17,.24,.09,.07,.21,.14,.37,.21s.36,.13,.62,.18c.27,.06,.53,.12,.76,.2s.44,.16,.61,.28,.3,.25,.4,.42c.1,.16,.15,.36,.15,.6,0,.48-.15,.85-.46,1.1-.3,.25-.75,.38-1.33,.38-.38,0-.75-.02-1.11-.06-.36-.04-.68-.09-.98-.17v-1.14h.59v.66c.29,.07,.57,.1,.83,.12,.26,0,.46,.01,.59,.01,.27,0,.48-.04,.63-.11,.16-.07,.28-.16,.36-.25,.08-.09,.13-.19,.15-.29,.02-.1,.03-.17,.03-.22,0-.09-.02-.18-.05-.26-.03-.08-.1-.16-.19-.24-.09-.07-.22-.14-.38-.21s-.38-.12-.63-.17c-.25-.05-.49-.11-.72-.17-.23-.07-.43-.16-.6-.28-.17-.12-.3-.26-.4-.43-.1-.17-.15-.39-.15-.64,0-.45,.15-.78,.46-1.01s.75-.34,1.33-.34c.38,0,.73,.02,1.04,.05,.31,.04,.62,.09,.92,.17v1.14h-.59Z"/><path class="cls-3" d="M333.49,475.45c0,.28,.04,.54,.11,.78,.07,.24,.17,.44,.32,.61s.33,.3,.55,.39c.23,.09,.5,.14,.83,.14,.25,0,.51-.01,.76-.03,.25-.02,.52-.08,.8-.17l.09,.57c-.3,.09-.58,.15-.86,.18-.27,.03-.57,.04-.89,.04-.45,0-.83-.06-1.15-.19-.31-.13-.56-.3-.75-.54-.19-.23-.33-.5-.42-.82-.09-.32-.13-.67-.13-1.06s.04-.74,.12-1.05,.22-.59,.41-.82c.19-.23,.44-.41,.74-.54,.3-.13,.67-.19,1.11-.19,.52,0,.92,.09,1.2,.27,.28,.18,.48,.41,.59,.69,.12,.27,.17,.56,.17,.88,0,.31-.03,.59-.09,.85h-3.53Zm1.61-2.14c-.29,0-.53,.04-.72,.13-.2,.09-.36,.21-.48,.36-.12,.15-.22,.33-.28,.54-.06,.2-.11,.42-.12,.65h2.85c.04-.19,.05-.39,.04-.59s-.06-.38-.15-.54c-.09-.16-.23-.29-.41-.39-.18-.1-.42-.16-.73-.16Z"/><path class="cls-3" d="M337.76,472.86h1.39v.8h.02c.11-.11,.24-.22,.38-.33,.14-.11,.3-.2,.46-.29,.17-.09,.34-.16,.53-.21,.19-.05,.38-.08,.58-.08v.66c-.2,0-.4,.02-.59,.06-.19,.04-.38,.1-.55,.17-.17,.07-.33,.14-.48,.22-.14,.08-.26,.15-.37,.22v3.18h.81v.59h-2.2v-.59h.69v-3.82h-.69v-.59Z"/><path class="cls-3" d="M345.16,472.86h1.95v.59h-.46l-1.79,4.46h-.83l-1.79-4.46h-.48v-.59h2.06v.59h-.8l1.47,3.72h.02l1.44-3.72h-.79v-.59Z"/><path class="cls-3" d="M347.69,474.12v-1.16c.33-.07,.66-.12,.98-.15,.32-.03,.61-.05,.88-.05,.29,0,.54,.02,.76,.08,.22,.05,.41,.14,.57,.26,.15,.13,.27,.29,.34,.5,.08,.21,.12,.48,.12,.79v2.87h.68v.59h-1.38v-.5h-.02c-.23,.19-.46,.34-.69,.43-.23,.09-.49,.15-.79,.16-.23,.01-.46,0-.67-.04-.21-.04-.4-.12-.57-.24-.17-.12-.3-.27-.39-.47s-.15-.43-.15-.72,.06-.54,.18-.72c.12-.19,.28-.34,.47-.45s.42-.19,.67-.23c.25-.04,.51-.06,.77-.06h1.18v-.57c0-.37-.09-.64-.28-.82-.19-.18-.51-.27-.96-.27-.13,0-.29,0-.47,.02-.18,.01-.4,.04-.65,.09v.66h-.59Zm2.95,1.33h-1.08c-.55,0-.94,.09-1.17,.26-.22,.17-.33,.42-.33,.75,0,.29,.1,.52,.31,.69,.21,.17,.5,.26,.88,.26,.33,0,.62-.05,.85-.17,.23-.11,.41-.21,.54-.31v-1.48Z"/><path class="cls-3" d="M355.35,470.86h1.39v6.41h.68v.59h-1.38v-.5h-.02c-.19,.17-.43,.32-.71,.43-.28,.11-.57,.17-.89,.17-.35,0-.65-.07-.88-.2-.24-.13-.43-.32-.57-.55s-.25-.51-.31-.83c-.06-.32-.1-.66-.1-1.03s.03-.71,.1-1.02c.07-.32,.17-.59,.32-.83,.15-.23,.35-.42,.58-.55,.24-.13,.54-.2,.89-.2,.3,0,.59,.05,.86,.16s.51,.25,.7,.42h.02v-1.89h-.69v-.59Zm-2.05,4.5c0,.27,.02,.53,.07,.77,.04,.24,.12,.45,.22,.64s.25,.33,.42,.44,.4,.16,.67,.16c.15,0,.3-.02,.44-.05,.14-.03,.26-.07,.38-.12,.12-.05,.22-.1,.31-.15,.09-.06,.17-.11,.23-.16v-3.06c-.06-.05-.13-.1-.23-.16-.09-.06-.19-.11-.31-.16-.12-.05-.24-.09-.38-.12s-.28-.05-.44-.05c-.27,0-.5,.05-.67,.17s-.32,.26-.42,.44c-.11,.18-.18,.4-.22,.64-.04,.24-.07,.5-.07,.76Z"/><path class="cls-3" d="M360.2,477.96c-.41,0-.75-.06-1.04-.19s-.51-.3-.7-.54c-.18-.23-.31-.5-.39-.82-.08-.32-.12-.67-.12-1.06s.04-.74,.12-1.05,.21-.59,.39-.82c.18-.23,.41-.41,.7-.54,.28-.13,.63-.19,1.04-.19s.75,.06,1.04,.19c.28,.13,.51,.31,.7,.54,.18,.23,.31,.5,.39,.82s.12,.67,.12,1.05-.04,.74-.12,1.06c-.08,.32-.21,.59-.39,.82-.18,.23-.41,.41-.7,.54s-.63,.19-1.04,.19Zm0-4.61c-.29,0-.54,.05-.72,.16-.19,.11-.34,.25-.46,.43-.12,.18-.2,.39-.25,.63-.05,.24-.07,.51-.07,.79s.02,.54,.07,.79c.05,.24,.13,.46,.25,.63,.12,.18,.27,.32,.46,.43,.19,.11,.43,.16,.72,.16s.53-.05,.72-.16,.35-.25,.46-.43c.12-.18,.2-.39,.25-.63s.07-.5,.07-.79-.02-.54-.07-.79c-.05-.24-.13-.46-.25-.63-.12-.18-.27-.32-.46-.43s-.43-.16-.72-.16Z"/><path class="cls-3" d="M366.52,474.12v-.66c-.28-.07-.54-.11-.78-.12-.24,0-.42-.01-.54-.01-.26,0-.47,.03-.62,.09-.15,.06-.27,.14-.34,.22-.07,.08-.12,.17-.14,.25-.02,.09-.03,.15-.03,.19,0,.09,.02,.18,.04,.27,.03,.09,.09,.17,.18,.24,.09,.07,.21,.14,.36,.21,.16,.07,.36,.13,.62,.18,.27,.06,.53,.12,.76,.2,.24,.07,.44,.16,.61,.28s.3,.25,.4,.42c.1,.16,.14,.36,.14,.6,0,.48-.15,.85-.46,1.1-.3,.25-.75,.38-1.33,.38-.38,0-.75-.02-1.1-.06-.36-.04-.69-.09-.99-.17v-1.14h.59v.66c.29,.07,.57,.1,.83,.12,.26,0,.46,.01,.59,.01,.27,0,.48-.04,.64-.11,.16-.07,.27-.16,.35-.25,.08-.09,.13-.19,.15-.29,.02-.1,.03-.17,.03-.22,0-.09-.02-.18-.05-.26-.03-.08-.1-.16-.19-.24-.09-.07-.22-.14-.39-.21-.16-.06-.38-.12-.63-.17-.25-.05-.49-.11-.72-.17-.23-.07-.42-.16-.59-.28-.17-.12-.3-.26-.4-.43-.1-.17-.15-.39-.15-.64,0-.45,.15-.78,.46-1.01,.31-.23,.75-.34,1.33-.34,.38,0,.73,.02,1.04,.05,.31,.04,.62,.09,.92,.17v1.14h-.59Z"/></g><line class="cls-6" x1="50.7" y1="301.1" x2="369.3" y2="301.1"/></g></svg>