<?xml version="1.0" encoding="utf-8"?>
<!-- Generator: Adobe Illustrator 26.3.1, SVG Export Plug-In . SVG Version: 6.00 Build 0)  -->
<svg version="1.1" id="Capa_1" xmlns="http://www.w3.org/2000/svg" xmlns:xlink="http://www.w3.org/1999/xlink" x="0px" y="0px"
	 viewBox="0 0 250 53" style="enable-background:new 0 0 250 53;" xml:space="preserve">
<style type="text/css">
	.st0{filter:url(#Adobe_OpacityMaskFilter);}
	.st1{fill-rule:evenodd;clip-rule:evenodd;fill:#FFFFFF;}
	.st2{mask:url(#mask-2_00000098939750714865109220000009118627381198724224_);fill-rule:evenodd;clip-rule:evenodd;fill:#FFDC11;}
	.st3{fill-rule:evenodd;clip-rule:evenodd;fill:#10265C;}
</style>
<g id="Group-3" transform="translate(0.000000, 0.853511)">
	<g id="Clip-2">
	</g>
	<defs>
		<filter id="Adobe_OpacityMaskFilter" filterUnits="userSpaceOnUse" x="0" y="0.2" width="52.1" height="51.7">
			<feColorMatrix  type="matrix" values="1 0 0 0 0  0 1 0 0 0  0 0 1 0 0  0 0 0 1 0"/>
		</filter>
	</defs>
	
		<mask maskUnits="userSpaceOnUse" x="0" y="0.2" width="52.1" height="51.7" id="mask-2_00000098939750714865109220000009118627381198724224_">
		<g class="st0">
			<polygon id="path-1_00000001631429596196079120000016974212189235438492_" class="st1" points="0,0.2 0,51.9 52.1,51.9 52.1,0.2 
							"/>
		</g>
	</mask>
	<path id="Fill-1" class="st2" d="M52.1,0.2v51.7H17.5C7.8,51.9,0,44.2,0,34.6V0.2h32.8H52.1z"/>
</g>
<polygon id="Fill-4" class="st3" points="43,26.5 43,9.4 25.8,9.4 25.8,17.1 35.2,17.1 35.2,26.5 "/>
<g id="Group-21" transform="translate(68.781315, 0.000000)">
	<path id="Fill-7" class="st3" d="M9.1,4.9c2.7,0,3.8,0.6,3.8,2.2c0,1.5-1.2,2.2-3.6,2.2H4.9V4.9H9.1z M4.9,13.1h4.7
		c2.5,0,3.8,0.8,3.8,2.4c0,1.8-1.3,2.5-3.9,2.5H4.9V13.1z M10.6,22.2c2.3,0,4.1-0.6,5.4-1.7c1.4-1.2,2.1-2.7,2.1-4.6
		c0-2-0.9-3.6-2.8-4.9c1.5-1.1,2.2-2.6,2.2-4.4c0-3.8-2.9-5.9-7.5-5.9H0.3v21.5H10.6z"/>
	<path id="Fill-9" class="st3" d="M33.4,2.2c-0.4-0.9-1.2-1.5-2.2-1.5h-2.8l-8.5,21.5h4.8l1.7-4.2h8.4l1.7,4.2h4.8L33.4,2.2z
		 M27.9,13.9l2.7-7l2.7,7H27.9z"/>
	<path id="Fill-11" class="st3" d="M63.7,22.2V0.7h-4.6v14.6L51,1.8c-0.4-0.7-1.2-1.1-2-1.1h-4.2v21.5h4.6V7.7L57.5,21
		c0.4,0.7,1.2,1.1,2,1.1H63.7z"/>
	<path id="Fill-13" class="st3" d="M85.2,15.3c-1.5,2-3.4,3-5.9,3c-1.9,0-3.5-0.6-4.7-1.8c-1.3-1.2-1.9-2.9-1.9-5
		c0-2.1,0.7-3.7,1.9-4.9c1.3-1.2,2.8-1.8,4.5-1.8c1.7,0,3.2,0.5,4.4,1.5c0.9,0.7,2.2,0.6,3-0.3l1.4-1.4c-2.2-2.7-5.1-4-8.7-4
		c-3.3,0-6,1-8.1,3.1c-2.2,2-3.3,4.7-3.3,8.1c0,3.3,1.1,6,3.3,8c2.2,2,5,3,8.3,3c3.7,0,6.6-1.3,8.8-4L85.2,15.3z"/>
	<path id="Fill-15" class="st3" d="M109.7,3.5c-2.2-2.1-4.8-3.2-8-3.2c-3.1,0-5.8,1-7.9,3.2c-2.1,2.1-3.2,4.7-3.2,7.9
		c0,3.2,1.1,5.9,3.2,8c2.1,2.1,4.8,3.1,7.9,3.1c3.2,0,5.8-1,8-3.1c2.2-2.1,3.3-4.8,3.3-8C113,8.2,111.9,5.6,109.7,3.5 M106.5,16.3
		c-1.1,1.3-2.7,2-4.7,2c-2,0-3.6-0.6-4.8-2c-1.2-1.3-1.8-2.9-1.8-4.8c0-1.9,0.6-3.5,1.8-4.8c1.2-1.3,2.8-2,4.8-2
		c1.9,0,3.4,0.7,4.6,2c1.2,1.3,1.8,2.9,1.8,4.8C108.3,13.4,107.7,14.9,106.5,16.3"/>
	<path id="Fill-17" class="st3" d="M172.5,31.7c-0.4-0.9-1.2-1.5-2.2-1.5h-2.8L159,51.7h4.8l1.7-4.2h8.4l1.7,4.2h4.8L172.5,31.7z
		 M167,43.4l2.7-7l2.7,7H167z"/>
	<path id="Fill-19" class="st3" d="M47.6,44.8c-1.5,2-3.4,3-5.9,3c-1.9,0-3.5-0.6-4.8-1.8c-1.3-1.2-1.9-2.9-1.9-5
		c0-2.1,0.7-3.7,1.9-4.9c1.3-1.2,2.8-1.8,4.5-1.8c1.7,0,3.2,0.5,4.4,1.4c0.9,0.7,2.3,0.6,3.1-0.2l1.4-1.4c-2.2-2.7-5.1-4-8.7-4
		c-3.3,0-6,1-8.1,3.1c-2.2,2-3.3,4.7-3.3,8.1c0,3.3,1.1,6,3.3,8c2.2,2,5,3,8.3,3c3.7,0,6.6-1.3,8.8-4L47.6,44.8z"/>
</g>
<polygon id="Fill-22" class="st3" points="90.3,52.1 94.6,52.1 94.6,30.7 90.3,30.7 "/>
<g id="Group-35" transform="translate(68.790861, 29.872902)">
	<path id="Fill-23" class="st3" d="M83.5,0.6h-4.6v21.7h4.6L83.5,0.6C83.5,0.6,83.5,0.6,83.5,0.6"/>
	<path id="Fill-25" class="st3" d="M73.2,22.3V0.6H71c-1.3,0-2.3,1-2.3,2.3v6.2h-9.1V0.6h-4.6v21.7h4.6v-9h9.1v9H73.2z"/>
	<path id="Fill-27" class="st3" d="M15.2,2.6c-1.6-1.3-3.6-2-6.2-2H0.2v21.7h4.6v-6.9H9c2.5,0,4.6-0.7,6.2-2.1
		c1.6-1.4,2.4-3.2,2.4-5.5C17.5,5.6,16.8,3.9,15.2,2.6 M8.2,11.2H4.8V4.8h3.4c3.2,0,4.7,0.9,4.7,3.1C12.9,10.1,11.4,11.2,8.2,11.2"
		/>
	<path id="Fill-29" class="st3" d="M108.1,22.3V0.6h-4.6v14.7L95.4,1.7c-0.4-0.7-1.2-1.1-2-1.1h-4.2v21.7h4.6V7.7l8.1,13.5
		c0.4,0.7,1.2,1.1,2,1.1H108.1z"/>
	<path id="Fill-31" class="st3" d="M129.7,15.3c-1.5,2-3.4,3-5.9,3c-1.9,0-3.5-0.6-4.8-1.9c-1.3-1.2-1.9-2.9-1.9-5.1
		c0-2.1,0.7-3.8,1.9-5c1.3-1.2,2.8-1.9,4.5-1.9c1.7,0,3.2,0.5,4.4,1.5c0.9,0.7,2.2,0.6,3-0.3l1.4-1.5c-2.2-2.7-5.1-4.1-8.7-4.1
		c-3.3,0-6,1-8.1,3.1c-2.2,2-3.3,4.8-3.3,8.2c0,3.3,1.1,6,3.3,8.1c2.2,2,5,3.1,8.3,3.1c3.7,0,6.6-1.4,8.9-4.1L129.7,15.3z"/>
	<path id="Fill-33" class="st3" d="M155.3,22.3V0.6h-2.2c-1.3,0-2.3,1-2.3,2.3v6.2h-9.1V0.6H137v21.7h4.6v-9h9.1v9H155.3z"/>
</g>
</svg>
